STARTFONT 2.1
COMMENT 
COMMENT Copyright (C) 2012-2025 Uwe Waldmann
COMMENT 
COMMENT Permission is hereby granted, free of charge, to any person obtaining
COMMENT a copy of this font software and associated files (the "Software"),
COMMENT to deal in the Software without restriction, including without
COMMENT limitation the rights to use, copy, modify, merge, publish,
COMMENT distribute, embed, sublicense, and/or sell copies of the Software,
COMMENT and to permit persons to whom the Software is furnished to do so,
COMMENT subject to the following conditions:
COMMENT 
COMMENT (1) The above copyright notice, this permission notice, and the
COMMENT     disclaimer below shall be included in all copies or substantial
COMMENT     portions of the Software.
COMMENT 
COMMENT (2) If the design of any glyphs in the fonts that are contained in the
COMMENT     Software or generated during the installation process is modified
COMMENT     or if additional glyphs are added to the fonts, the fonts
COMMENT     must be renamed. The new names may not contain the word "UW",
COMMENT     irrespective of capitalisation; the new names may contain the word
COMMENT     "ttyp0", irrespective of capitalisation, only if preceded by a
COMMENT     foundry name different from "UW".
COMMENT 
COMMENT THE SOFTWARE IS PROVIDED "AS IS", WITHOUT WARRANTY OF ANY KIND, EXPRESS
COMMENT OR IMPLIED, INCLUDING BUT NOT LIMITED TO THE WARRANTIES OF
COMMENT MERCHANTABILITY, FITNESS FOR A PARTICULAR PURPOSE AND NONINFRINGEMENT.
COMMENT IN NO EVENT SHALL THE AUTHORS OR COPYRIGHT HOLDERS BE LIABLE FOR ANY
COMMENT CLAIM, DAMAGES OR OTHER LIABILITY, WHETHER IN AN ACTION OF CONTRACT,
COMMENT TORT OR OTHERWISE, ARISING FROM, OUT OF OR IN CONNECTION WITH THE
COMMENT SOFTWARE OR THE USE OR OTHER DEALINGS IN THE SOFTWARE.
COMMENT 
FONT -UW-Ttyp0-Bold-R-Normal--30-280-75-75-C-140-UW-Fontspecific
SIZE 30 75 75
FONTBOUNDINGBOX 14 30 0 -7
STARTPROPERTIES 21
FONTNAME_REGISTRY ""
FOUNDRY "UW"
FAMILY_NAME "Ttyp0"

STARTCHAR LtCapA
ENCODING 0
SWIDTH 448 0
DWIDTH 14 0
BBX 14 30 0 -7
BITMAP
0000
0000
0000
0000
0000
0000
0380
0380
07C0
07C0
06C0
0EE0
0EE0
0C60
1C70
1C70
1FF0
3FF8
3838
3838
701C
701C
701C
0000
0000
0000
0000
0000
0000
0000
ENDCHAR
STARTCHAR LtCapB
ENCODING 1
SWIDTH 448 0
DWIDTH 14 0
BBX 14 30 0 -7
BITMAP
0000
0000
0000
0000
0000
0000
3FC0
3FF0
3870
3838
3838
3838
3870
3FE0
3FE0
3870
3838
3838
3838
3838
3870
3FF0
3FC0
0000
0000
0000
0000
0000
0000
0000
ENDCHAR
STARTCHAR LtCapC
ENCODING 2
SWIDTH 448 0
DWIDTH 14 0
BBX 14 30 0 -7
BITMAP
0000
0000
0000
0000
0000
0000
03F0
0FF8
1E38
1C18
3800
3800
3800
3800
3800
3800
3800
3800
3800
1C18
1E38
0FF8
03F0
0000
0000
0000
0000
0000
0000
0000
ENDCHAR
STARTCHAR LtCapD
ENCODING 3
SWIDTH 448 0
DWIDTH 14 0
BBX 14 30 0 -7
BITMAP
0000
0000
0000
0000
0000
0000
3F80
3FE0
38F0
3870
3838
3838
3838
3838
3838
3838
3838
3838
3838
3870
38F0
3FE0
3F80
0000
0000
0000
0000
0000
0000
0000
ENDCHAR
STARTCHAR LtCapE
ENCODING 4
SWIDTH 448 0
DWIDTH 14 0
BBX 14 30 0 -7
BITMAP
0000
0000
0000
0000
0000
0000
3FF8
3FF8
3800
3800
3800
3800
3800
3FE0
3FE0
3800
3800
3800
3800
3800
3800
3FF8
3FF8
0000
0000
0000
0000
0000
0000
0000
ENDCHAR
STARTCHAR LtCapF
ENCODING 5
SWIDTH 448 0
DWIDTH 14 0
BBX 14 30 0 -7
BITMAP
0000
0000
0000
0000
0000
0000
1FFC
1FFC
1C00
1C00
1C00
1C00
1C00
1FF0
1FF0
1C00
1C00
1C00
1C00
1C00
1C00
1C00
1C00
0000
0000
0000
0000
0000
0000
0000
ENDCHAR
STARTCHAR LtCapG
ENCODING 6
SWIDTH 448 0
DWIDTH 14 0
BBX 14 30 0 -7
BITMAP
0000
0000
0000
0000
0000
0000
03F0
0FF8
1E38
1C18
3800
3800
3800
3800
39F8
39F8
3838
3838
3838
1C38
1E38
0FF8
03F8
0000
0000
0000
0000
0000
0000
0000
ENDCHAR
STARTCHAR LtCapH
ENCODING 7
SWIDTH 448 0
DWIDTH 14 0
BBX 14 30 0 -7
BITMAP
0000
0000
0000
0000
0000
0000
3838
3838
3838
3838
3838
3838
3838
3FF8
3FF8
3838
3838
3838
3838
3838
3838
3838
3838
0000
0000
0000
0000
0000
0000
0000
ENDCHAR
STARTCHAR LtCapI
ENCODING 8
SWIDTH 448 0
DWIDTH 14 0
BBX 14 30 0 -7
BITMAP
0000
0000
0000
0000
0000
0000
1FF0
1FF0
0380
0380
0380
0380
0380
0380
0380
0380
0380
0380
0380
0380
0380
1FF0
1FF0
0000
0000
0000
0000
0000
0000
0000
ENDCHAR
STARTCHAR LtCapJ
ENCODING 9
SWIDTH 448 0
DWIDTH 14 0
BBX 14 30 0 -7
BITMAP
0000
0000
0000
0000
0000
0000
00F8
00F8
0070
0070
0070
0070
0070
0070
0070
0070
0070
3870
3870
3870
1CE0
1FE0
0780
0000
0000
0000
0000
0000
0000
0000
ENDCHAR
STARTCHAR LtCapK
ENCODING 10
SWIDTH 448 0
DWIDTH 14 0
BBX 14 30 0 -7
BITMAP
0000
0000
0000
0000
0000
0000
3838
3838
3870
38E0
38E0
39C0
3B80
3B80
3F80
3FC0
3DC0
38E0
38E0
3870
3870
3838
3838
0000
0000
0000
0000
0000
0000
0000
ENDCHAR
STARTCHAR LtCapL
ENCODING 11
SWIDTH 448 0
DWIDTH 14 0
BBX 14 30 0 -7
BITMAP
0000
0000
0000
0000
0000
0000
3800
3800
3800
3800
3800
3800
3800
3800
3800
3800
3800
3800
3800
3800
3800
3FF8
3FF8
0000
0000
0000
0000
0000
0000
0000
ENDCHAR
STARTCHAR LtCapM
ENCODING 12
SWIDTH 448 0
DWIDTH 14 0
BBX 14 30 0 -7
BITMAP
0000
0000
0000
0000
0000
0000
701C
701C
783C
7C7C
7C7C
7EFC
77DC
77DC
739C
739C
711C
701C
701C
701C
701C
701C
701C
0000
0000
0000
0000
0000
0000
0000
ENDCHAR
STARTCHAR LtCapN
ENCODING 13
SWIDTH 448 0
DWIDTH 14 0
BBX 14 30 0 -7
BITMAP
0000
0000
0000
0000
0000
0000
3838
3838
3C38
3C38
3E38
3E38
3F38
3B38
3BB8
39B8
39F8
38F8
38F8
3878
3878
3838
3838
0000
0000
0000
0000
0000
0000
0000
ENDCHAR
STARTCHAR LtCapO
ENCODING 14
SWIDTH 448 0
DWIDTH 14 0
BBX 14 30 0 -7
BITMAP
0000
0000
0000
0000
0000
0000
0780
1FE0
3CF0
3870
7038
7038
7038
7038
7038
7038
7038
7038
7038
3870
3CF0
1FE0
0780
0000
0000
0000
0000
0000
0000
0000
ENDCHAR
STARTCHAR LtCapP
ENCODING 15
SWIDTH 448 0
DWIDTH 14 0
BBX 14 30 0 -7
BITMAP
0000
0000
0000
0000
0000
0000
3FC0
3FF0
3870
3838
3838
3838
3838
3870
3FF0
3FC0
3800
3800
3800
3800
3800
3800
3800
0000
0000
0000
0000
0000
0000
0000
ENDCHAR
STARTCHAR LtCapQ
ENCODING 16
SWIDTH 448 0
DWIDTH 14 0
BBX 14 30 0 -7
BITMAP
0000
0000
0000
0000
0000
0000
0780
1FE0
3CF0
3870
7038
7038
7038
7038
7038
7038
7038
7038
77B8
3FF0
3CF0
1FE0
07E0
0070
003C
001C
0000
0000
0000
0000
ENDCHAR
STARTCHAR LtCapR
ENCODING 17
SWIDTH 448 0
DWIDTH 14 0
BBX 14 30 0 -7
BITMAP
0000
0000
0000
0000
0000
0000
3FC0
3FF0
3870
3838
3838
3838
3870
3FF0
3FC0
3980
39C0
38E0
38E0
3870
3838
3838
381C
0000
0000
0000
0000
0000
0000
0000
ENDCHAR
STARTCHAR LtCapS
ENCODING 18
SWIDTH 448 0
DWIDTH 14 0
BBX 14 30 0 -7
BITMAP
0000
0000
0000
0000
0000
0000
0FF0
1FF8
3C38
3818
3800
3C00
1E00
0F00
07C0
01E0
00F0
0078
0038
3038
3878
3FF0
1FE0
0000
0000
0000
0000
0000
0000
0000
ENDCHAR
STARTCHAR LtCapT
ENCODING 19
SWIDTH 448 0
DWIDTH 14 0
BBX 14 30 0 -7
BITMAP
0000
0000
0000
0000
0000
0000
7FFC
7FFC
0380
0380
0380
0380
0380
0380
0380
0380
0380
0380
0380
0380
0380
0380
0380
0000
0000
0000
0000
0000
0000
0000
ENDCHAR
STARTCHAR LtCapU
ENCODING 20
SWIDTH 448 0
DWIDTH 14 0
BBX 14 30 0 -7
BITMAP
0000
0000
0000
0000
0000
0000
3838
3838
3838
3838
3838
3838
3838
3838
3838
3838
3838
3838
3838
3838
1C70
1FF0
07C0
0000
0000
0000
0000
0000
0000
0000
ENDCHAR
STARTCHAR LtCapV
ENCODING 21
SWIDTH 448 0
DWIDTH 14 0
BBX 14 30 0 -7
BITMAP
0000
0000
0000
0000
0000
0000
701C
701C
701C
3838
3838
3838
1C70
1C70
1C70
0C60
0EE0
0EE0
06C0
07C0
07C0
0380
0380
0000
0000
0000
0000
0000
0000
0000
ENDCHAR
STARTCHAR LtCapW
ENCODING 22
SWIDTH 448 0
DWIDTH 14 0
BBX 14 30 0 -7
BITMAP
0000
0000
0000
0000
0000
0000
701C
701C
701C
701C
701C
711C
3938
3BB8
3BB8
3BB8
3BB8
1EF0
1EF0
1EF0
1C70
1C70
1C70
0000
0000
0000
0000
0000
0000
0000
ENDCHAR
STARTCHAR LtCapX
ENCODING 23
SWIDTH 448 0
DWIDTH 14 0
BBX 14 30 0 -7
BITMAP
0000
0000
0000
0000
0000
0000
3838
3838
1C70
1C70
0EE0
0EE0
07C0
07C0
0380
07C0
07C0
0EE0
0EE0
1C70
1C70
3838
3838
0000
0000
0000
0000
0000
0000
0000
ENDCHAR
STARTCHAR LtCapY
ENCODING 24
SWIDTH 448 0
DWIDTH 14 0
BBX 14 30 0 -7
BITMAP
0000
0000
0000
0000
0000
0000
701C
3838
3838
1C70
1C70
0EE0
0EE0
07C0
07C0
0380
0380
0380
0380
0380
0380
0380
0380
0000
0000
0000
0000
0000
0000
0000
ENDCHAR
STARTCHAR LtCapZ
ENCODING 25
SWIDTH 448 0
DWIDTH 14 0
BBX 14 30 0 -7
BITMAP
0000
0000
0000
0000
0000
0000
3FF8
3FF8
0078
0070
00F0
00E0
01C0
03C0
0380
0780
0700
0E00
1E00
1C00
3C00
3FF8
3FF8
0000
0000
0000
0000
0000
0000
0000
ENDCHAR
STARTCHAR LtCapTone6
ENCODING 26
SWIDTH 448 0
DWIDTH 14 0
BBX 14 30 0 -7
BITMAP
0000
0000
0000
0000
0000
0000
0E00
1E00
3E00
7E00
6E00
4E00
0E00
0FE0
0FF8
0E38
0E1C
0E1C
0E1C
0E1C
0E38
0FF8
0FE0
0000
0000
0000
0000
0000
0000
0000
ENDCHAR
STARTCHAR LtCapBet
ENCODING 27
SWIDTH 448 0
DWIDTH 14 0
BBX 14 30 0 -7
BITMAP
0000
0000
0000
0000
0000
0000
3FC0
3FF0
3870
3838
3838
3838
3870
3FE0
3FE0
3870
3838
3838
3838
3838
3870
3FF0
3FC0
3800
3800
3800
3800
3800
0000
0000
ENDCHAR
STARTCHAR LtCapEth
ENCODING 28
SWIDTH 448 0
DWIDTH 14 0
BBX 14 30 0 -7
BITMAP
0000
0000
0000
0000
0000
0000
3F80
3FE0
38F0
3870
3838
3838
3838
7F38
7F38
3838
3838
3838
3838
3870
38F0
3FE0
3F80
0000
0000
0000
0000
0000
0000
0000
ENDCHAR
STARTCHAR LtCapEps
ENCODING 29
SWIDTH 448 0
DWIDTH 14 0
BBX 14 30 0 -7
BITMAP
0000
0000
0000
0000
0000
0000
07F0
1FF8
3C38
3818
3800
3800
1C00
0F80
0F80
1C00
3800
3800
3800
3818
3C38
1FF8
07F0
0000
0000
0000
0000
0000
0000
0000
ENDCHAR
STARTCHAR LtCapSchwa
ENCODING 30
SWIDTH 448 0
DWIDTH 14 0
BBX 14 30 0 -7
BITMAP
0000
0000
0000
0000
0000
0000
0FC0
1FE0
1C70
1870
0038
0038
0038
3FF8
3FF8
3838
3838
3838
3838
1C70
1C70
0FE0
07C0
0000
0000
0000
0000
0000
0000
0000
ENDCHAR
STARTCHAR LtCapGam
ENCODING 31
SWIDTH 448 0
DWIDTH 14 0
BBX 14 30 0 -7
BITMAP
0000
0000
0000
0000
0000
0000
701C
701C
3838
3838
1C70
1C70
1C70
0EE0
0EE0
07C0
07C0
0380
0380
07C0
07C0
0EE0
0EE0
1C70
1C70
1C70
0FE0
07C0
0000
0000
ENDCHAR
STARTCHAR LtCapRamshorn
ENCODING 32
SWIDTH 448 0
DWIDTH 14 0
BBX 14 30 0 -7
BITMAP
0000
0000
0000
0000
0000
0000
3838
7C7C
7EFC
6EEC
07C0
0380
07C0
07C0
0EE0
0EE0
1C70
1C70
1C70
1C70
0EE0
0FE0
07C0
0000
0000
0000
0000
0000
0000
0000
ENDCHAR
STARTCHAR LtCapHwair
ENCODING 33
SWIDTH 448 0
DWIDTH 14 0
BBX 14 30 0 -7
BITMAP
0000
0000
0000
0000
0000
0000
7380
7380
7380
7380
7380
739C
739C
7F9C
7F9C
739C
739C
739C
739C
739C
739C
71F8
70F0
0000
0000
0000
0000
0000
0000
0000
ENDCHAR
STARTCHAR LtCapIot
ENCODING 34
SWIDTH 448 0
DWIDTH 14 0
BBX 14 30 0 -7
BITMAP
0000
0000
0000
0000
0000
0000
3E00
3E00
1C00
1C00
1C00
1C00
1C00
1C00
1C00
1C00
1C00
1C38
1C38
1C38
0E70
0FF0
03C0
0000
0000
0000
0000
0000
0000
0000
ENDCHAR
STARTCHAR LtCapLam
ENCODING 35
SWIDTH 448 0
DWIDTH 14 0
BBX 14 30 0 -7
BITMAP
0000
0000
0000
0000
0000
0000
0380
0380
0380
0380
0380
0380
0380
0380
07C0
07C0
0EE0
0EE0
1C70
1C70
3838
3838
701C
0000
0000
0000
0000
0000
0000
0000
ENDCHAR
STARTCHAR LtCapEng
ENCODING 36
SWIDTH 448 0
DWIDTH 14 0
BBX 14 30 0 -7
BITMAP
0000
0000
0000
0000
0000
0000
39E0
3BF0
3E78
3C38
3838
3838
3838
3838
3838
3838
3838
3838
3838
3838
3838
3838
3838
0038
0038
0638
07F0
03E0
0000
0000
ENDCHAR
STARTCHAR LtCapEngNodesc
ENCODING 37
SWIDTH 448 0
DWIDTH 14 0
BBX 14 30 0 -7
BITMAP
0000
0000
0000
0000
0000
0000
39E0
3BF0
3E78
3C38
3838
3838
3838
3838
3838
3838
3838
3838
3838
39B8
39B8
39F0
38E0
0000
0000
0000
0000
0000
0000
0000
ENDCHAR
STARTCHAR LtCapEngSami
ENCODING 38
SWIDTH 448 0
DWIDTH 14 0
BBX 14 30 0 -7
BITMAP
0000
0000
0000
0000
0000
0000
3838
3838
3C38
3C38
3E38
3E38
3F38
3B38
3BB8
39B8
39F8
38F8
38F8
3878
3878
3838
3838
0038
0038
0738
03F0
01E0
0000
0000
ENDCHAR
STARTCHAR LtCapOme
ENCODING 39
SWIDTH 448 0
DWIDTH 14 0
BBX 14 30 0 -7
BITMAP
0000
0000
0000
0000
0000
0000
1830
3838
3838
701C
701C
701C
701C
739C
739C
739C
739C
739C
739C
739C
37D8
3EF8
1C70
0000
0000
0000
0000
0000
0000
0000
ENDCHAR
STARTCHAR LtCapOi
ENCODING 40
SWIDTH 448 0
DWIDTH 14 0
BBX 14 30 0 -7
BITMAP
0000
0000
0000
0000
0000
0000
1E38
3F38
33F8
73F8
73B8
73B8
73B8
73B8
73B8
73B8
73B8
73B8
73B8
73B8
3338
3F38
1E38
0038
0038
0038
0038
0038
0000
0000
ENDCHAR
STARTCHAR LtCapOu
ENCODING 41
SWIDTH 448 0
DWIDTH 14 0
BBX 14 30 0 -7
BITMAP
0000
0000
0000
0000
0000
0000
1C70
3C78
3838
3838
1C70
0EE0
07C0
07C0
07C0
0EE0
1C70
3838
3838
3838
3C78
1FF0
0FE0
0000
0000
0000
0000
0000
0000
0000
ENDCHAR
STARTCHAR LtCapYr
ENCODING 42
SWIDTH 448 0
DWIDTH 14 0
BBX 14 30 0 -7
BITMAP
0000
0000
0000
0000
0000
0000
3800
3800
3800
3800
3FC0
3FF0
3870
3838
3838
3838
3870
3FF0
3FC0
3B80
39C0
39C0
38E0
0070
0070
0038
001C
0000
0000
0000
ENDCHAR
STARTCHAR LtCapEsh
ENCODING 43
SWIDTH 448 0
DWIDTH 14 0
BBX 14 30 0 -7
BITMAP
0000
0000
0000
0000
0000
0000
3FF8
3FF8
3C00
1E00
0E00
0700
0380
03C0
01E0
03C0
0380
0700
0E00
1E00
3C00
3FF8
3FF8
0000
0000
0000
0000
0000
0000
0000
ENDCHAR
STARTCHAR LtCapTone2
ENCODING 44
SWIDTH 448 0
DWIDTH 14 0
BBX 14 30 0 -7
BITMAP
0000
0000
0000
0000
0000
0000
1FE0
3FF0
3878
3038
0038
0078
00F0
01E0
07C0
0F00
1E00
3C00
3800
3818
3C38
1FF8
0FF0
0000
0000
0000
0000
0000
0000
0000
ENDCHAR
STARTCHAR LtCapTone5
ENCODING 45
SWIDTH 448 0
DWIDTH 14 0
BBX 14 30 0 -7
BITMAP
0000
0000
0000
0000
0000
0000
3FF8
3FF8
0E00
0E00
0E00
0FC0
0FF0
0070
0038
0038
0038
0038
0038
3038
3870
3FF0
1FC0
0000
0000
0000
0000
0000
0000
0000
ENDCHAR
STARTCHAR LtCapSz
ENCODING 46
SWIDTH 448 0
DWIDTH 14 0
BBX 14 30 0 -7
BITMAP
0000
0000
0000
0000
0000
0000
07F8
1FF8
3C38
3870
70E0
70E0
71C0
73E0
73F8
7038
701C
701C
701C
701C
7318
73F8
71F0
0000
0000
0000
0000
0000
0000
0000
ENDCHAR
STARTCHAR LtCapThorn
ENCODING 47
SWIDTH 448 0
DWIDTH 14 0
BBX 14 30 0 -7
BITMAP
0000
0000
0000
0000
0000
0000
3800
3800
3800
3800
3FC0
3FF0
3870
3838
3838
3838
3870
3FF0
3FC0
3800
3800
3800
3800
0000
0000
0000
0000
0000
0000
0000
ENDCHAR
STARTCHAR LtCapUps
ENCODING 48
SWIDTH 448 0
DWIDTH 14 0
BBX 14 30 0 -7
BITMAP
0000
0000
0000
0000
0000
0000
7C7C
7C7C
1C70
1C70
3838
3838
701C
701C
701C
701C
701C
701C
701C
3838
3C78
1FF0
07C0
0000
0000
0000
0000
0000
0000
0000
ENDCHAR
STARTCHAR LtCapWynn
ENCODING 49
SWIDTH 448 0
DWIDTH 14 0
BBX 14 30 0 -7
BITMAP
0000
0000
0000
0000
0000
0000
39F0
3BF8
3F38
3E38
3C38
3C38
3870
38F0
39E0
39C0
3B80
3F00
3E00
3C00
3800
3800
3800
0000
0000
0000
0000
0000
0000
0000
ENDCHAR
STARTCHAR LtCapChi
ENCODING 50
SWIDTH 448 0
DWIDTH 14 0
BBX 14 30 0 -7
BITMAP
0000
0000
0000
0000
0000
0000
3838
3838
3838
1C70
1C70
0EE0
0EE0
0EE0
07C0
07C0
0380
0380
07C0
07C0
0EE0
0EE0
0EE0
1C70
1C70
3838
3838
3838
0000
0000
ENDCHAR
STARTCHAR LtCapYogh
ENCODING 51
SWIDTH 448 0
DWIDTH 14 0
BBX 14 30 0 -7
BITMAP
0000
0000
0000
0000
0000
0000
1FE0
3FF0
3838
3038
0078
00F0
03E0
0FF0
0F70
0038
0038
0078
00F0
03E0
0FC0
3F00
3C00
0000
0000
0000
0000
0000
0000
0000
ENDCHAR
STARTCHAR LtCapEzh
ENCODING 52
SWIDTH 448 0
DWIDTH 14 0
BBX 14 30 0 -7
BITMAP
0000
0000
0000
0000
0000
0000
3FF8
3FF8
0070
00E0
01E0
01C0
0380
07C0
07F0
0070
0038
0038
0038
3038
3870
3FF0
1FC0
0000
0000
0000
0000
0000
0000
0000
ENDCHAR
STARTCHAR LtCapEzhAlt
ENCODING 53
SWIDTH 448 0
DWIDTH 14 0
BBX 14 30 0 -7
BITMAP
0000
0000
0000
0000
0000
0000
3FF8
3FF8
0078
00F0
00E0
01C0
0380
0780
0F00
0780
0380
01C0
00E0
00F0
0078
3FF8
3FF8
0000
0000
0000
0000
0000
0000
0000
ENDCHAR
STARTCHAR LtCapHHalf
ENCODING 54
SWIDTH 448 0
DWIDTH 14 0
BBX 14 30 0 -7
BITMAP
0000
0000
0000
0000
0000
0000
3800
3800
3800
3800
3800
3800
3800
3FF8
3FF8
3800
3800
3800
3800
3800
3800
3800
3800
0000
0000
0000
0000
0000
0000
0000
ENDCHAR
STARTCHAR LtCapGlot1
ENCODING 55
SWIDTH 448 0
DWIDTH 14 0
BBX 14 30 0 -7
BITMAP
0000
0000
0000
0000
0000
0000
0FE0
1FF0
3C70
3838
3838
0038
0038
0070
01F0
03E0
0380
0380
0380
0380
0380
0380
0380
0000
0000
0000
0000
0000
0000
0000
ENDCHAR
STARTCHAR LtCapAin1
ENCODING 56
SWIDTH 448 0
DWIDTH 14 0
BBX 14 30 0 -7
BITMAP
0000
0000
0000
0000
0000
0000
0FE0
1FF0
1C78
3838
3838
3800
3800
1C00
1F00
0F80
0380
0380
0380
0380
0380
0380
0380
0000
0000
0000
0000
0000
0000
0000
ENDCHAR
STARTCHAR LtCapAinEgpt
ENCODING 57
SWIDTH 448 0
DWIDTH 14 0
BBX 14 30 0 -7
BITMAP
0000
0000
0000
0000
0000
0000
03F0
0FF8
1F38
1C18
3800
3800
3800
3800
1C00
1F00
0F00
0000
0000
0000
0000
0000
0000
0000
0000
0000
0000
0000
0000
0000
ENDCHAR
STARTCHAR LtCapAlefEgpt
ENCODING 58
SWIDTH 448 0
DWIDTH 14 0
BBX 14 30 0 -7
BITMAP
0000
0000
0000
0000
0000
0000
1FC0
1FE0
00F0
0070
0070
00F0
00E0
0FC0
0FE0
00F0
0070
0070
0070
00E0
03E0
1FC0
1F00
0000
0000
0000
0000
0000
0000
0000
ENDCHAR
STARTCHAR LtCapSaltillo
ENCODING 59
SWIDTH 448 0
DWIDTH 14 0
BBX 14 30 0 -7
BITMAP
0000
0000
0000
0000
0000
0000
0380
0380
0380
0380
0380
0380
0380
0380
0380
0380
0000
0000
0000
0000
0000
0000
0000
0000
0000
0000
0000
0000
0000
0000
ENDCHAR
STARTCHAR LtSmlA
ENCODING 60
SWIDTH 448 0
DWIDTH 14 0
BBX 14 30 0 -7
BITMAP
0000
0000
0000
0000
0000
0000
0000
0000
0000
0000
0FE0
1FF0
1C38
0038
0038
07F8
1FF8
3C38
3838
3838
3878
1FF8
0FB8
0000
0000
0000
0000
0000
0000
0000
ENDCHAR
STARTCHAR LtSmlB
ENCODING 61
SWIDTH 448 0
DWIDTH 14 0
BBX 14 30 0 -7
BITMAP
0000
0000
0000
0000
0000
3800
3800
3800
3800
3800
3BC0
3FF0
3C70
3838
3838
3838
3838
3838
3838
3838
3C70
3FF0
3BC0
0000
0000
0000
0000
0000
0000
0000
ENDCHAR
STARTCHAR LtSmlC
ENCODING 62
SWIDTH 448 0
DWIDTH 14 0
BBX 14 30 0 -7
BITMAP
0000
0000
0000
0000
0000
0000
0000
0000
0000
0000
07F0
0FF8
1E38
1C18
3800
3800
3800
3800
3800
1C18
1E38
0FF8
07F0
0000
0000
0000
0000
0000
0000
0000
ENDCHAR
STARTCHAR LtSmlD
ENCODING 63
SWIDTH 448 0
DWIDTH 14 0
BBX 14 30 0 -7
BITMAP
0000
0000
0000
0000
0000
0038
0038
0038
0038
0038
07B8
1FF8
1C78
3838
3838
3838
3838
3838
3838
3838
1C78
1FF8
07B8
0000
0000
0000
0000
0000
0000
0000
ENDCHAR
STARTCHAR LtSmlE
ENCODING 64
SWIDTH 448 0
DWIDTH 14 0
BBX 14 30 0 -7
BITMAP
0000
0000
0000
0000
0000
0000
0000
0000
0000
0000
07C0
1FF0
1C70
3838
3838
3FF8
3FF8
3800
3800
3800
1C38
1FF0
07E0
0000
0000
0000
0000
0000
0000
0000
ENDCHAR
STARTCHAR LtSmlF
ENCODING 65
SWIDTH 448 0
DWIDTH 14 0
BBX 14 30 0 -7
BITMAP
0000
0000
0000
0000
0000
01F8
03FC
078C
0700
0700
0700
3FF0
3FF0
0700
0700
0700
0700
0700
0700
0700
0700
0700
0700
0000
0000
0000
0000
0000
0000
0000
ENDCHAR
STARTCHAR LtSmlG
ENCODING 66
SWIDTH 448 0
DWIDTH 14 0
BBX 14 30 0 -7
BITMAP
0000
0000
0000
0000
0000
0000
0000
0000
0000
0000
0FCC
1FFC
3878
3870
3870
3870
1FE0
0FC0
1C00
1C00
1FF0
0FF8
1FFC
381C
381C
381C
1FF8
0FF0
0000
0000
ENDCHAR
STARTCHAR LtSmlH
ENCODING 67
SWIDTH 448 0
DWIDTH 14 0
BBX 14 30 0 -7
BITMAP
0000
0000
0000
0000
0000
3800
3800
3800
3800
3800
39E0
3BF0
3E78
3C38
3838
3838
3838
3838
3838
3838
3838
3838
3838
0000
0000
0000
0000
0000
0000
0000
ENDCHAR
STARTCHAR LtSmlI
ENCODING 68
SWIDTH 448 0
DWIDTH 14 0
BBX 14 30 0 -7
BITMAP
0000
0000
0000
0000
0000
0380
0380
0380
0000
0000
1F80
1F80
0380
0380
0380
0380
0380
0380
0380
0380
0380
3FF8
3FF8
0000
0000
0000
0000
0000
0000
0000
ENDCHAR
STARTCHAR LtSmlJ
ENCODING 69
SWIDTH 448 0
DWIDTH 14 0
BBX 14 30 0 -7
BITMAP
0000
0000
0000
0000
0000
01C0
01C0
01C0
0000
0000
0FC0
0FC0
01C0
01C0
01C0
01C0
01C0
01C0
01C0
01C0
01C0
01C0
01C0
01C0
01C0
63C0
7F80
3F00
0000
0000
ENDCHAR
STARTCHAR LtSmlK
ENCODING 70
SWIDTH 448 0
DWIDTH 14 0
BBX 14 30 0 -7
BITMAP
0000
0000
0000
0000
0000
3800
3800
3800
3800
3800
3838
3878
38F0
39E0
3BC0
3F80
3FC0
3DC0
38E0
38E0
3870
3878
3838
0000
0000
0000
0000
0000
0000
0000
ENDCHAR
STARTCHAR LtSmlL
ENCODING 71
SWIDTH 448 0
DWIDTH 14 0
BBX 14 30 0 -7
BITMAP
0000
0000
0000
0000
0000
1F80
1F80
0380
0380
0380
0380
0380
0380
0380
0380
0380
0380
0380
0380
0380
0380
3FF8
3FF8
0000
0000
0000
0000
0000
0000
0000
ENDCHAR
STARTCHAR LtSmlM
ENCODING 72
SWIDTH 448 0
DWIDTH 14 0
BBX 14 30 0 -7
BITMAP
0000
0000
0000
0000
0000
0000
0000
0000
0000
0000
6630
6F78
7FFC
7BDC
739C
739C
739C
739C
739C
739C
739C
739C
739C
0000
0000
0000
0000
0000
0000
0000
ENDCHAR
STARTCHAR LtSmlN
ENCODING 73
SWIDTH 448 0
DWIDTH 14 0
BBX 14 30 0 -7
BITMAP
0000
0000
0000
0000
0000
0000
0000
0000
0000
0000
39E0
3BF0
3E78
3C38
3838
3838
3838
3838
3838
3838
3838
3838
3838
0000
0000
0000
0000
0000
0000
0000
ENDCHAR
STARTCHAR LtSmlO
ENCODING 74
SWIDTH 448 0
DWIDTH 14 0
BBX 14 30 0 -7
BITMAP
0000
0000
0000
0000
0000
0000
0000
0000
0000
0000
07C0
1FF0
1C70
3838
3838
3838
3838
3838
3838
3838
1C70
1FF0
07C0
0000
0000
0000
0000
0000
0000
0000
ENDCHAR
STARTCHAR LtSmlP
ENCODING 75
SWIDTH 448 0
DWIDTH 14 0
BBX 14 30 0 -7
BITMAP
0000
0000
0000
0000
0000
0000
0000
0000
0000
0000
3BC0
3FF0
3C70
3838
3838
3838
3838
3838
3838
3838
3C70
3FF0
3BC0
3800
3800
3800
3800
3800
0000
0000
ENDCHAR
STARTCHAR LtSmlQ
ENCODING 76
SWIDTH 448 0
DWIDTH 14 0
BBX 14 30 0 -7
BITMAP
0000
0000
0000
0000
0000
0000
0000
0000
0000
0000
07B8
1FF8
1C78
3838
3838
3838
3838
3838
3838
3838
1C78
1FF8
07B8
0038
0038
0038
0038
0038
0000
0000
ENDCHAR
STARTCHAR LtSmlR
ENCODING 77
SWIDTH 448 0
DWIDTH 14 0
BBX 14 30 0 -7
BITMAP
0000
0000
0000
0000
0000
0000
0000
0000
0000
0000
3CF0
3DF8
1FB8
1F18
1E00
1C00
1C00
1C00
1C00
1C00
1C00
1C00
1C00
0000
0000
0000
0000
0000
0000
0000
ENDCHAR
STARTCHAR LtSmlS
ENCODING 78
SWIDTH 448 0
DWIDTH 14 0
BBX 14 30 0 -7
BITMAP
0000
0000
0000
0000
0000
0000
0000
0000
0000
0000
0FF0
1FF8
3838
3800
3C00
1F80
0FE0
03F0
0078
0038
3838
3FF0
1FE0
0000
0000
0000
0000
0000
0000
0000
ENDCHAR
STARTCHAR LtSmlT
ENCODING 79
SWIDTH 448 0
DWIDTH 14 0
BBX 14 30 0 -7
BITMAP
0000
0000
0000
0000
0000
0000
0100
0300
0700
0700
3FF0
3FF0
0700
0700
0700
0700
0700
0700
0700
0700
0718
03F8
01F0
0000
0000
0000
0000
0000
0000
0000
ENDCHAR
STARTCHAR LtSmlU
ENCODING 80
SWIDTH 448 0
DWIDTH 14 0
BBX 14 30 0 -7
BITMAP
0000
0000
0000
0000
0000
0000
0000
0000
0000
0000
3838
3838
3838
3838
3838
3838
3838
3838
3838
3878
3CF8
1FB8
0F38
0000
0000
0000
0000
0000
0000
0000
ENDCHAR
STARTCHAR LtSmlV
ENCODING 81
SWIDTH 448 0
DWIDTH 14 0
BBX 14 30 0 -7
BITMAP
0000
0000
0000
0000
0000
0000
0000
0000
0000
0000
701C
701C
3838
3838
1C70
1C70
1C70
0EE0
0EE0
07C0
07C0
0380
0380
0000
0000
0000
0000
0000
0000
0000
ENDCHAR
STARTCHAR LtSmlW
ENCODING 82
SWIDTH 448 0
DWIDTH 14 0
BBX 14 30 0 -7
BITMAP
0000
0000
0000
0000
0000
0000
0000
0000
0000
0000
701C
701C
701C
711C
711C
3BB8
3BB8
3BB8
3BB8
1EF0
1EF0
1C70
1C70
0000
0000
0000
0000
0000
0000
0000
ENDCHAR
STARTCHAR LtSmlX
ENCODING 83
SWIDTH 448 0
DWIDTH 14 0
BBX 14 30 0 -7
BITMAP
0000
0000
0000
0000
0000
0000
0000
0000
0000
0000
3838
3C78
1C70
0EE0
0EE0
07C0
0380
07C0
0EE0
0EE0
1C70
3C78
3838
0000
0000
0000
0000
0000
0000
0000
ENDCHAR
STARTCHAR LtSmlY
ENCODING 84
SWIDTH 448 0
DWIDTH 14 0
BBX 14 30 0 -7
BITMAP
0000
0000
0000
0000
0000
0000
0000
0000
0000
0000
3838
3838
3838
1C38
1C70
0E70
0E70
0E70
07E0
07E0
03E0
03C0
01C0
01C0
0380
7380
7F00
3E00
0000
0000
ENDCHAR
STARTCHAR LtSmlZ
ENCODING 85
SWIDTH 448 0
DWIDTH 14 0
BBX 14 30 0 -7
BITMAP
0000
0000
0000
0000
0000
0000
0000
0000
0000
0000
3FF8
3FF8
0070
00E0
01E0
03C0
0380
0780
0F00
0E00
1C00
3FF8
3FF8
0000
0000
0000
0000
0000
0000
0000
ENDCHAR
STARTCHAR LtSmlTone6
ENCODING 86
SWIDTH 448 0
DWIDTH 14 0
BBX 14 30 0 -7
BITMAP
0000
0000
0000
0000
0000
0000
0000
0000
0000
0000
0E00
1E00
3E00
7E00
6E00
4FF0
0FF8
0E3C
0E1C
0E1C
0E3C
0FF8
0FF0
0000
0000
0000
0000
0000
0000
0000
ENDCHAR
STARTCHAR LtSmlBet
ENCODING 87
SWIDTH 448 0
DWIDTH 14 0
BBX 14 30 0 -7
BITMAP
0000
0000
0000
0000
0000
0FC0
1FE0
3CF0
3870
3870
3870
38E0
3FC0
3FE0
3870
3838
3838
3838
3838
3838
3878
3FF0
3FE0
3800
3800
3800
3800
3800
0000
0000
ENDCHAR
STARTCHAR LtSmlCStretch
ENCODING 88
SWIDTH 448 0
DWIDTH 14 0
BBX 14 30 0 -7
BITMAP
0000
0000
0000
0000
0000
0000
0000
0000
0000
0000
07F0
0FF8
1E38
1C18
3800
3800
3800
3800
3800
3800
3800
3800
3800
3800
1C18
1E38
0FF8
07F0
0000
0000
ENDCHAR
STARTCHAR LtSmlEth
ENCODING 89
SWIDTH 448 0
DWIDTH 14 0
BBX 14 30 0 -7
BITMAP
0000
0000
0000
0000
0000
1B80
0F80
1F00
1B80
01C0
07E0
0FE0
1C70
1C30
3838
3838
3838
3838
3838
3838
1C70
1FF0
0FE0
0000
0000
0000
0000
0000
0000
0000
ENDCHAR
STARTCHAR LtSmlDel
ENCODING 90
SWIDTH 448 0
DWIDTH 14 0
BBX 14 30 0 -7
BITMAP
0000
0000
0000
0000
0000
0FE0
1FF0
1C30
1E00
0F00
0780
03C0
0FE0
1EF0
1C70
3838
3838
3838
3838
3838
1C70
1FF0
07C0
0000
0000
0000
0000
0000
0000
0000
ENDCHAR
STARTCHAR LtSmlEps
ENCODING 91
SWIDTH 448 0
DWIDTH 14 0
BBX 14 30 0 -7
BITMAP
0000
0000
0000
0000
0000
0000
0000
0000
0000
0000
0FF0
1FF8
3C38
3818
3800
1F80
0F80
1C00
3800
3818
3C38
1FF8
0FF0
0000
0000
0000
0000
0000
0000
0000
ENDCHAR
STARTCHAR LtSmlSchwa
ENCODING 92
SWIDTH 448 0
DWIDTH 14 0
BBX 14 30 0 -7
BITMAP
0000
0000
0000
0000
0000
0000
0000
0000
0000
0000
0FC0
1FF0
3870
0038
0038
0038
3FF8
3FF8
3838
3838
1C70
1FF0
07C0
0000
0000
0000
0000
0000
0000
0000
ENDCHAR
STARTCHAR LtSmlPhi
ENCODING 93
SWIDTH 448 0
DWIDTH 14 0
BBX 14 30 0 -7
BITMAP
0000
0000
0000
0000
0000
0380
0380
0380
0380
0380
0FE0
1FF0
3BB8
739C
739C
739C
739C
739C
739C
739C
3BB8
1FF0
0FE0
0380
0380
0380
0380
0380
0000
0000
ENDCHAR
STARTCHAR LtSmlGam
ENCODING 94
SWIDTH 448 0
DWIDTH 14 0
BBX 14 30 0 -7
BITMAP
0000
0000
0000
0000
0000
0000
0000
0000
0000
0000
3838
3838
1C70
1C70
0EE0
0EE0
07C0
07C0
0380
07C0
07C0
0EE0
0EE0
1C70
1C70
1EF0
0FE0
07C0
0000
0000
ENDCHAR
STARTCHAR LtSmlRamshorn
ENCODING 95
SWIDTH 448 0
DWIDTH 14 0
BBX 14 30 0 -7
BITMAP
0000
0000
0000
0000
0000
0000
0000
0000
0000
0000
3838
7EFC
7EFC
67CC
0380
07C0
0FE0
0EE0
1C70
1C70
1EF0
0FE0
07C0
0000
0000
0000
0000
0000
0000
0000
ENDCHAR
STARTCHAR LtSmlHwair
ENCODING 96
SWIDTH 448 0
DWIDTH 14 0
BBX 14 30 0 -7
BITMAP
0000
0000
0000
0000
0000
7000
7000
7000
7000
7000
771C
7F9C
7B9C
739C
739C
739C
739C
739C
739C
739C
739C
71F8
70F0
0000
0000
0000
0000
0000
0000
0000
ENDCHAR
STARTCHAR LtSmlIot
ENCODING 97
SWIDTH 448 0
DWIDTH 14 0
BBX 14 30 0 -7
BITMAP
0000
0000
0000
0000
0000
0000
0000
0000
0000
0000
0E00
0E00
0E00
0E00
0E00
0E00
0E00
0E00
0E00
0E00
0F38
07F8
03F0
0000
0000
0000
0000
0000
0000
0000
ENDCHAR
STARTCHAR LtSmlKra
ENCODING 98
SWIDTH 448 0
DWIDTH 14 0
BBX 14 30 0 -7
BITMAP
0000
0000
0000
0000
0000
0000
0000
0000
0000
0000
3838
3878
38F0
39E0
3BC0
3F80
3F80
3DC0
39E0
38E0
3870
3878
3838
0000
0000
0000
0000
0000
0000
0000
ENDCHAR
STARTCHAR LtSmlLam
ENCODING 99
SWIDTH 448 0
DWIDTH 14 0
BBX 14 30 0 -7
BITMAP
0000
0000
0000
0000
0000
0E00
0E00
0700
0700
0380
0380
0380
03C0
07C0
07E0
0EE0
0EE0
0E70
1C70
1C70
3838
3838
3838
0000
0000
0000
0000
0000
0000
0000
ENDCHAR
STARTCHAR LtSmlEng
ENCODING 100
SWIDTH 448 0
DWIDTH 14 0
BBX 14 30 0 -7
BITMAP
0000
0000
0000
0000
0000
0000
0000
0000
0000
0000
39E0
3BF0
3E78
3C38
3838
3838
3838
3838
3838
3838
3838
3838
3838
0038
0038
0638
07F0
03E0
0000
0000
ENDCHAR
STARTCHAR LtSmlOme
ENCODING 101
SWIDTH 448 0
DWIDTH 14 0
BBX 14 30 0 -7
BITMAP
0000
0000
0000
0000
0000
0000
0000
0000
0000
0000
1830
3838
3838
701C
701C
739C
739C
739C
739C
739C
37D8
3EF8
1C70
0000
0000
0000
0000
0000
0000
0000
ENDCHAR
STARTCHAR LtSmlOi
ENCODING 102
SWIDTH 448 0
DWIDTH 14 0
BBX 14 30 0 -7
BITMAP
0000
0000
0000
0000
0000
0000
0000
0000
0000
0000
1E38
3FF8
33F8
73B8
73B8
73B8
73B8
73B8
73B8
73B8
3338
3F38
1E38
0038
0038
0038
0038
0038
0000
0000
ENDCHAR
STARTCHAR LtSmlOu
ENCODING 103
SWIDTH 448 0
DWIDTH 14 0
BBX 14 30 0 -7
BITMAP
0000
0000
0000
0000
0000
1C70
3838
3838
3838
1C70
1C70
0EE0
07C0
07C0
0FE0
0EE0
1C70
1C70
3838
3838
1C70
1FF0
0FE0
0000
0000
0000
0000
0000
0000
0000
ENDCHAR
STARTCHAR LtSmlRFish
ENCODING 104
SWIDTH 448 0
DWIDTH 14 0
BBX 14 30 0 -7
BITMAP
0000
0000
0000
0000
0000
0000
0000
0000
0000
0000
07E0
1FF0
1E78
3C38
3800
3800
3800
3800
3800
3800
3800
3800
3800
0000
0000
0000
0000
0000
0000
0000
ENDCHAR
STARTCHAR LtSmlSLong
ENCODING 105
SWIDTH 448 0
DWIDTH 14 0
BBX 14 30 0 -7
BITMAP
0000
0000
0000
0000
0000
01F8
03FC
078C
0700
0700
0700
1F00
1F00
0700
0700
0700
0700
0700
0700
0700
0700
0700
0700
0000
0000
0000
0000
0000
0000
0000
ENDCHAR
STARTCHAR LtSmlEsh
ENCODING 106
SWIDTH 448 0
DWIDTH 14 0
BBX 14 30 0 -7
BITMAP
0000
0000
0000
0000
0000
00F8
01FC
038C
0380
0380
0380
0380
0380
0380
0380
0380
0380
0380
0380
0380
0380
0380
0380
0380
0380
6380
7F00
3E00
0000
0000
ENDCHAR
STARTCHAR LtSmlTone2
ENCODING 107
SWIDTH 448 0
DWIDTH 14 0
BBX 14 30 0 -7
BITMAP
0000
0000
0000
0000
0000
0000
0000
0000
0000
0000
1FE0
3FF0
3838
0038
0078
03F0
0FE0
1F80
3C00
3800
3838
1FF8
0FF0
0000
0000
0000
0000
0000
0000
0000
ENDCHAR
STARTCHAR LtSmlTone5
ENCODING 108
SWIDTH 448 0
DWIDTH 14 0
BBX 14 30 0 -7
BITMAP
0000
0000
0000
0000
0000
0000
0000
0000
0000
0000
3FF8
3FF8
0E00
0E00
0FC0
0FF0
0070
0038
0038
0038
3878
3FF0
1FE0
0000
0000
0000
0000
0000
0000
0000
ENDCHAR
STARTCHAR LtSmlSz
ENCODING 109
SWIDTH 448 0
DWIDTH 14 0
BBX 14 30 0 -7
BITMAP
0000
0000
0000
0000
0000
0F80
1FC0
3DE0
38E0
38E0
38E0
39C0
3B80
3B80
3BC0
39E0
38F0
3878
3838
3838
3B38
3BF0
39E0
0000
0000
0000
0000
0000
0000
0000
ENDCHAR
STARTCHAR LtSmlThorn
ENCODING 110
SWIDTH 448 0
DWIDTH 14 0
BBX 14 30 0 -7
BITMAP
0000
0000
0000
0000
0000
3800
3800
3800
3800
3800
3BC0
3FF0
3C70
3838
3838
3838
3838
3838
3838
3838
3C70
3FF0
3BC0
3800
3800
3800
3800
3800
0000
0000
ENDCHAR
STARTCHAR LtSmlUps
ENCODING 111
SWIDTH 448 0
DWIDTH 14 0
BBX 14 30 0 -7
BITMAP
0000
0000
0000
0000
0000
0000
0000
0000
0000
0000
3C78
3C78
0C60
1C70
3838
3838
3838
3838
3838
3838
1C70
1FF0
07C0
0000
0000
0000
0000
0000
0000
0000
ENDCHAR
STARTCHAR LtSmlW2
ENCODING 112
SWIDTH 448 0
DWIDTH 14 0
BBX 14 30 0 -7
BITMAP
0000
0000
0000
0000
0000
739C
739C
739C
3BB8
3BB8
3EF8
1C70
1C70
0000
0000
739C
739C
739C
3BB8
3BB8
3EF8
1C70
1C70
0000
0000
0000
0000
0000
0000
0000
ENDCHAR
STARTCHAR LtSmlWynn
ENCODING 113
SWIDTH 448 0
DWIDTH 14 0
BBX 14 30 0 -7
BITMAP
0000
0000
0000
0000
0000
0000
0000
0000
0000
0000
39E0
3BF0
3F38
3E38
3C38
3838
3870
38F0
39E0
3BC0
3B80
3F00
3E00
3C00
3C00
3800
3800
3800
0000
0000
ENDCHAR
STARTCHAR LtSmlChi
ENCODING 114
SWIDTH 448 0
DWIDTH 14 0
BBX 14 30 0 -7
BITMAP
0000
0000
0000
0000
0000
0000
0000
0000
0000
0000
3838
3838
1C70
1C70
0EE0
0EE0
07C0
07C0
0380
0380
07C0
07C0
0EE0
0EE0
1C70
1C70
3838
3838
0000
0000
ENDCHAR
STARTCHAR LtSmlYogh
ENCODING 115
SWIDTH 448 0
DWIDTH 14 0
BBX 14 30 0 -7
BITMAP
0000
0000
0000
0000
0000
0000
0000
0000
0000
0000
1FE0
3FF0
3838
3038
0078
00F0
01E0
07F0
0F78
0E38
0038
0070
00F0
03E0
07C0
1F00
3C00
3800
0000
0000
ENDCHAR
STARTCHAR LtSmlEzh
ENCODING 116
SWIDTH 448 0
DWIDTH 14 0
BBX 14 30 0 -7
BITMAP
0000
0000
0000
0000
0000
0000
0000
0000
0000
0000
3FF8
3FF8
0070
00E0
01E0
01C0
0380
07C0
07F0
0070
0038
0038
0038
0038
3038
3870
3FF0
1FC0
0000
0000
ENDCHAR
STARTCHAR LtSmlHHalf
ENCODING 117
SWIDTH 448 0
DWIDTH 14 0
BBX 14 30 0 -7
BITMAP
0000
0000
0000
0000
0000
0000
0000
0000
0000
0000
3800
3800
3800
3800
3800
3FF8
3FF8
3800
3800
3800
3800
3800
3800
0000
0000
0000
0000
0000
0000
0000
ENDCHAR
STARTCHAR LtSmlGlot
ENCODING 118
SWIDTH 448 0
DWIDTH 14 0
BBX 14 30 0 -7
BITMAP
0000
0000
0000
0000
0000
0FE0
1FF0
3C78
3838
3838
0038
0078
00F0
01E0
01C0
0380
0380
0380
0380
0380
0380
0380
0380
0000
0000
0000
0000
0000
0000
0000
ENDCHAR
STARTCHAR LtSmlAin
ENCODING 119
SWIDTH 448 0
DWIDTH 14 0
BBX 14 30 0 -7
BITMAP
0000
0000
0000
0000
0000
0FE0
1FF0
3C78
3838
3838
3800
3C00
1E00
0F00
0700
0380
0380
0380
0380
0380
0380
0380
0380
0000
0000
0000
0000
0000
0000
0000
ENDCHAR
STARTCHAR LtSmlGlot1
ENCODING 120
SWIDTH 448 0
DWIDTH 14 0
BBX 14 30 0 -7
BITMAP
0000
0000
0000
0000
0000
0000
0000
0000
0000
0000
0FE0
1FF0
3C70
3838
3838
0038
0078
01F0
03E0
0380
0380
0380
0380
0000
0000
0000
0000
0000
0000
0000
ENDCHAR
STARTCHAR LtSmlAin1
ENCODING 121
SWIDTH 448 0
DWIDTH 14 0
BBX 14 30 0 -7
BITMAP
0000
0000
0000
0000
0000
0000
0000
0000
0000
0000
0FE0
1FF0
1C78
3838
3838
3800
3C00
1F00
0F80
0380
0380
0380
0380
0000
0000
0000
0000
0000
0000
0000
ENDCHAR
STARTCHAR LtSmlAinEgpt
ENCODING 122
SWIDTH 448 0
DWIDTH 14 0
BBX 14 30 0 -7
BITMAP
0000
0000
0000
0000
0000
0000
0000
0000
0000
0000
0FF0
1FF8
3C38
3800
3800
3800
3C00
1F00
0F00
0000
0000
0000
0000
0000
0000
0000
0000
0000
0000
0000
ENDCHAR
STARTCHAR LtSmlAlefEgpt
ENCODING 123
SWIDTH 448 0
DWIDTH 14 0
BBX 14 30 0 -7
BITMAP
0000
0000
0000
0000
0000
0000
0000
0000
0000
0000
1FC0
1FE0
0070
0070
00E0
0FE0
0FC0
00E0
0070
0070
00E0
1FE0
1F80
0000
0000
0000
0000
0000
0000
0000
ENDCHAR
STARTCHAR LtSmlSaltillo
ENCODING 124
SWIDTH 448 0
DWIDTH 14 0
BBX 14 30 0 -7
BITMAP
0000
0000
0000
0000
0000
0380
0380
0380
0380
0380
0380
0380
0380
0000
0000
0000
0000
0000
0000
0000
0000
0000
0000
0000
0000
0000
0000
0000
0000
0000
ENDCHAR
STARTCHAR LtSmlBullseye
ENCODING 125
SWIDTH 448 0
DWIDTH 14 0
BBX 14 30 0 -7
BITMAP
0000
0000
0000
0000
0000
0000
0000
0000
0000
0000
07C0
1FF0
3C78
3838
739C
739C
739C
739C
739C
3838
3C78
1FF0
07C0
0000
0000
0000
0000
0000
0000
0000
ENDCHAR
STARTCHAR LtSmlPipe
ENCODING 126
SWIDTH 448 0
DWIDTH 14 0
BBX 14 30 0 -7
BITMAP
0000
0000
0000
0000
0000
0380
0380
0380
0380
0380
0380
0380
0380
0380
0380
0380
0380
0380
0380
0380
0380
0380
0380
0380
0380
0380
0380
0380
0000
0000
ENDCHAR
STARTCHAR LtSmlPipe2
ENCODING 127
SWIDTH 448 0
DWIDTH 14 0
BBX 14 30 0 -7
BITMAP
0000
0000
0000
0000
0000
1CE0
1CE0
1CE0
1CE0
1CE0
1CE0
1CE0
1CE0
1CE0
1CE0
1CE0
1CE0
1CE0
1CE0
1CE0
1CE0
1CE0
1CE0
1CE0
1CE0
1CE0
1CE0
1CE0
0000
0000
ENDCHAR
STARTCHAR LtSmlBridge2
ENCODING 128
SWIDTH 448 0
DWIDTH 14 0
BBX 14 30 0 -7
BITMAP
0000
0000
0000
0000
0000
3FF8
3FF8
3838
3838
3838
3838
3838
3838
0000
0000
3FF8
3FF8
3838
3838
3838
3838
3838
3838
0000
0000
0000
0000
0000
0000
0000
ENDCHAR
STARTCHAR LtToneHhigh
ENCODING 129
SWIDTH 448 0
DWIDTH 14 0
BBX 14 30 0 -7
BITMAP
0000
0000
0000
0000
0000
1FE0
1FE0
00E0
00E0
00E0
00E0
00E0
00E0
00E0
00E0
00E0
00E0
00E0
00E0
00E0
00E0
00E0
00E0
0000
0000
0000
0000
0000
0000
0000
ENDCHAR
STARTCHAR LtToneHigh
ENCODING 130
SWIDTH 448 0
DWIDTH 14 0
BBX 14 30 0 -7
BITMAP
0000
0000
0000
0000
0000
00E0
00E0
00E0
00E0
1FE0
1FE0
00E0
00E0
00E0
00E0
00E0
00E0
00E0
00E0
00E0
00E0
00E0
00E0
0000
0000
0000
0000
0000
0000
0000
ENDCHAR
STARTCHAR LtToneMid
ENCODING 131
SWIDTH 448 0
DWIDTH 14 0
BBX 14 30 0 -7
BITMAP
0000
0000
0000
0000
0000
00E0
00E0
00E0
00E0
00E0
00E0
00E0
00E0
1FE0
1FE0
00E0
00E0
00E0
00E0
00E0
00E0
00E0
00E0
0000
0000
0000
0000
0000
0000
0000
ENDCHAR
STARTCHAR LtToneLow
ENCODING 132
SWIDTH 448 0
DWIDTH 14 0
BBX 14 30 0 -7
BITMAP
0000
0000
0000
0000
0000
00E0
00E0
00E0
00E0
00E0
00E0
00E0
00E0
00E0
00E0
00E0
00E0
1FE0
1FE0
00E0
00E0
00E0
00E0
0000
0000
0000
0000
0000
0000
0000
ENDCHAR
STARTCHAR LtToneLlow
ENCODING 133
SWIDTH 448 0
DWIDTH 14 0
BBX 14 30 0 -7
BITMAP
0000
0000
0000
0000
0000
00E0
00E0
00E0
00E0
00E0
00E0
00E0
00E0
00E0
00E0
00E0
00E0
00E0
00E0
00E0
00E0
1FE0
1FE0
0000
0000
0000
0000
0000
0000
0000
ENDCHAR
STARTCHAR LtCapISmc
ENCODING 134
SWIDTH 448 0
DWIDTH 14 0
BBX 14 30 0 -7
BITMAP
0000
0000
0000
0000
0000
0000
3FF8
3FF8
2388
0380
0380
0380
0380
0380
0380
0380
0380
0380
0380
0380
2388
3FF8
3FF8
0000
0000
0000
0000
0000
0000
0000
ENDCHAR
STARTCHAR LtSmlBSmc
ENCODING 135
SWIDTH 448 0
DWIDTH 14 0
BBX 14 30 0 -7
BITMAP
0000
0000
0000
0000
0000
0000
0000
0000
0000
0000
3FE0
3FF0
3878
3838
3870
3FE0
3FF0
3838
3838
3838
3878
3FF0
3FE0
0000
0000
0000
0000
0000
0000
0000
ENDCHAR
STARTCHAR LtSmlGSmc
ENCODING 136
SWIDTH 448 0
DWIDTH 14 0
BBX 14 30 0 -7
BITMAP
0000
0000
0000
0000
0000
0000
0000
0000
0000
0000
07F0
0FF8
1C38
1800
3800
39F8
39F8
3838
3838
1838
1C38
0FF8
07F8
0000
0000
0000
0000
0000
0000
0000
ENDCHAR
STARTCHAR LtSmlHSmc
ENCODING 137
SWIDTH 448 0
DWIDTH 14 0
BBX 14 30 0 -7
BITMAP
0000
0000
0000
0000
0000
0000
0000
0000
0000
0000
3838
3838
3838
3838
3838
3FF8
3FF8
3838
3838
3838
3838
3838
3838
0000
0000
0000
0000
0000
0000
0000
ENDCHAR
STARTCHAR LtSmlISmc
ENCODING 138
SWIDTH 448 0
DWIDTH 14 0
BBX 14 30 0 -7
BITMAP
0000
0000
0000
0000
0000
0000
0000
0000
0000
0000
1FF0
1FF0
0380
0380
0380
0380
0380
0380
0380
0380
0380
1FF0
1FF0
0000
0000
0000
0000
0000
0000
0000
ENDCHAR
STARTCHAR LtSmlLSmc
ENCODING 139
SWIDTH 448 0
DWIDTH 14 0
BBX 14 30 0 -7
BITMAP
0000
0000
0000
0000
0000
0000
0000
0000
0000
0000
3800
3800
3800
3800
3800
3800
3800
3800
3800
3800
3800
3FF8
3FF8
0000
0000
0000
0000
0000
0000
0000
ENDCHAR
STARTCHAR LtSmlNSmc
ENCODING 140
SWIDTH 448 0
DWIDTH 14 0
BBX 14 30 0 -7
BITMAP
0000
0000
0000
0000
0000
0000
0000
0000
0000
0000
3838
3C38
3C38
3E38
3F38
3B38
3BB8
39F8
38F8
38F8
3878
3838
3838
0000
0000
0000
0000
0000
0000
0000
ENDCHAR
STARTCHAR LtSmlRSmc
ENCODING 141
SWIDTH 448 0
DWIDTH 14 0
BBX 14 30 0 -7
BITMAP
0000
0000
0000
0000
0000
0000
0000
0000
0000
0000
3FE0
3FF0
3878
3838
3878
3FF0
3FE0
3B80
39C0
38E0
38F0
3878
383C
0000
0000
0000
0000
0000
0000
0000
ENDCHAR
STARTCHAR LtSmlYSmc
ENCODING 142
SWIDTH 448 0
DWIDTH 14 0
BBX 14 30 0 -7
BITMAP
0000
0000
0000
0000
0000
0000
0000
0000
0000
0000
3838
3838
1C70
1C70
0EE0
07C0
07C0
0380
0380
0380
0380
0380
0380
0000
0000
0000
0000
0000
0000
0000
ENDCHAR
STARTCHAR LtSmlOESmc
ENCODING 143
SWIDTH 448 0
DWIDTH 14 0
BBX 14 30 0 -7
BITMAP
0000
0000
0000
0000
0000
0000
0000
0000
0000
0000
1FFC
3FFC
7380
7380
7380
73F8
73F8
7380
7380
7380
7380
3FFC
1FFC
0000
0000
0000
0000
0000
0000
0000
ENDCHAR
STARTCHAR LtCapAScr
ENCODING 144
SWIDTH 448 0
DWIDTH 14 0
BBX 14 30 0 -7
BITMAP
0000
0000
0000
0000
0000
0000
0EE0
1FE0
39E0
38E0
70E0
70E0
70E0
70E0
70E0
70E0
70E0
70E0
70E0
38E0
39FC
1FBC
0F1C
0000
0000
0000
0000
0000
0000
0000
ENDCHAR
STARTCHAR LtCapGScr
ENCODING 145
SWIDTH 448 0
DWIDTH 14 0
BBX 14 30 0 -7
BITMAP
0000
0000
0000
0000
0000
0000
07B8
0FF8
1C78
1C38
3838
3838
3838
3838
3838
3838
3838
3838
3838
1C38
1C78
0FF8
07B8
0038
0038
3078
3FF0
1FE0
0000
0000
ENDCHAR
STARTCHAR LtSmlAScr
ENCODING 146
SWIDTH 448 0
DWIDTH 14 0
BBX 14 30 0 -7
BITMAP
0000
0000
0000
0000
0000
0000
0000
0000
0000
0000
0738
1FB8
1CF8
3878
3838
3838
3838
3838
3838
3878
1CF8
1FBC
071C
0000
0000
0000
0000
0000
0000
0000
ENDCHAR
STARTCHAR LtSmlGScr
ENCODING 147
SWIDTH 448 0
DWIDTH 14 0
BBX 14 30 0 -7
BITMAP
0000
0000
0000
0000
0000
0000
0000
0000
0000
0000
0FB8
1FF8
1C78
3838
3838
3838
3838
3838
3838
3838
1C78
1FF8
0FB8
0038
0038
1C78
1FF0
0FE0
0000
0000
ENDCHAR
STARTCHAR LtSmlANonscr
ENCODING 148
SWIDTH 448 0
DWIDTH 14 0
BBX 14 30 0 -7
BITMAP
0000
0000
0000
0000
0000
0000
0000
0000
0000
0000
0FE0
1FF0
1C38
0038
0038
07F8
1FF8
3C38
3838
3838
3878
1FF8
0FB8
0000
0000
0000
0000
0000
0000
0000
ENDCHAR
STARTCHAR LtSmlEpsClsd
ENCODING 149
SWIDTH 448 0
DWIDTH 14 0
BBX 14 30 0 -7
BITMAP
0000
0000
0000
0000
0000
0000
0000
0000
0000
0000
0FE0
1FF0
3C70
3838
3838
1F38
0F38
1C38
3838
3838
3C70
1FF0
0FE0
0000
0000
0000
0000
0000
0000
0000
ENDCHAR
STARTCHAR LtSmlOmeClsd
ENCODING 150
SWIDTH 448 0
DWIDTH 14 0
BBX 14 30 0 -7
BITMAP
0000
0000
0000
0000
0000
0000
0000
0000
0000
0FE0
1FF0
3C78
3838
701C
701C
701C
739C
739C
739C
739C
739C
3EF8
1C70
0000
0000
0000
0000
0000
0000
0000
ENDCHAR
STARTCHAR LtSmlGlotInv
ENCODING 151
SWIDTH 448 0
DWIDTH 14 0
BBX 14 30 0 -7
BITMAP
0000
0000
0000
0000
0000
0380
0380
0380
0380
0380
0380
0380
0380
01C0
01E0
00F0
0078
0038
3838
3838
3C78
1FF0
0FE0
0000
0000
0000
0000
0000
0000
0000
ENDCHAR
STARTCHAR LtSmlRSmcInv
ENCODING 152
SWIDTH 448 0
DWIDTH 14 0
BBX 14 30 0 -7
BITMAP
0000
0000
0000
0000
0000
0000
0000
0000
0000
0000
383C
3878
38F0
38E0
39C0
3B80
3FE0
3FF0
3878
3838
3878
3FF0
3FE0
0000
0000
0000
0000
0000
0000
0000
ENDCHAR
STARTCHAR LtCapERev
ENCODING 153
SWIDTH 448 0
DWIDTH 14 0
BBX 14 30 0 -7
BITMAP
0000
0000
0000
0000
0000
0000
3FF8
3FF8
0038
0038
0038
0038
0038
0FF8
0FF8
0038
0038
0038
0038
0038
0038
3FF8
3FF8
0000
0000
0000
0000
0000
0000
0000
ENDCHAR
STARTCHAR LtCapEpsRev
ENCODING 154
SWIDTH 448 0
DWIDTH 14 0
BBX 14 30 0 -7
BITMAP
0000
0000
0000
0000
0000
0000
1FC0
3FF0
3878
3038
0038
0038
0070
03E0
03E0
0070
0038
0038
0038
3038
3878
3FF0
1FC0
0000
0000
0000
0000
0000
0000
0000
ENDCHAR
STARTCHAR LtCapEzhRev
ENCODING 155
SWIDTH 448 0
DWIDTH 14 0
BBX 14 30 0 -7
BITMAP
0000
0000
0000
0000
0000
0000
3FF8
3FF8
1C00
0E00
0F00
0700
0380
0FC0
1FC0
1C00
3800
3800
3800
3818
1C38
1FF8
07F0
0000
0000
0000
0000
0000
0000
0000
ENDCHAR
STARTCHAR LtSmlERev
ENCODING 156
SWIDTH 448 0
DWIDTH 14 0
BBX 14 30 0 -7
BITMAP
0000
0000
0000
0000
0000
0000
0000
0000
0000
0000
07C0
1FF0
1C70
3838
3838
3FF8
3FF8
0038
0038
0038
3870
1FF0
0FC0
0000
0000
0000
0000
0000
0000
0000
ENDCHAR
STARTCHAR LtSmlEpsRev
ENCODING 157
SWIDTH 448 0
DWIDTH 14 0
BBX 14 30 0 -7
BITMAP
0000
0000
0000
0000
0000
0000
0000
0000
0000
0000
1FE0
3FF0
3878
3038
0038
03F0
03E0
0070
0038
3038
3878
3FF0
1FE0
0000
0000
0000
0000
0000
0000
0000
ENDCHAR
STARTCHAR LtSmlRFishRev
ENCODING 158
SWIDTH 448 0
DWIDTH 14 0
BBX 14 30 0 -7
BITMAP
0000
0000
0000
0000
0000
0000
0000
0000
0000
0000
0FC0
1FF0
3CF0
3878
0038
0038
0038
0038
0038
0038
0038
0038
0038
0000
0000
0000
0000
0000
0000
0000
ENDCHAR
STARTCHAR LtSmlEshSmlRev
ENCODING 159
SWIDTH 448 0
DWIDTH 14 0
BBX 14 30 0 -7
BITMAP
0000
0000
0000
0000
0000
0000
0000
0000
0000
0000
3E00
7F00
6380
0380
0380
0380
0380
0380
0380
0380
038C
01FC
00F8
0000
0000
0000
0000
0000
0000
0000
ENDCHAR
STARTCHAR LtSmlEzhRev
ENCODING 160
SWIDTH 448 0
DWIDTH 14 0
BBX 14 30 0 -7
BITMAP
0000
0000
0000
0000
0000
0000
0000
0000
0000
0000
3FF8
3FF8
1C00
0E00
0F00
0700
0380
07C0
1FC0
1C00
3800
3800
3800
3800
3818
1C38
1FF8
07F0
0000
0000
ENDCHAR
STARTCHAR LtSmlEpsRevClsd
ENCODING 161
SWIDTH 448 0
DWIDTH 14 0
BBX 14 30 0 -7
BITMAP
0000
0000
0000
0000
0000
0000
0000
0000
0000
0000
0FE0
1FF0
1C78
3838
3838
39F0
39E0
3870
3838
3838
1C78
1FF0
0FE0
0000
0000
0000
0000
0000
0000
0000
ENDCHAR
STARTCHAR LtCapATrnd
ENCODING 162
SWIDTH 448 0
DWIDTH 14 0
BBX 14 30 0 -7
BITMAP
0000
0000
0000
0000
0000
0000
701C
701C
701C
3838
3838
3FF8
1FF0
1C70
1C70
0C60
0EE0
0EE0
06C0
07C0
07C0
0380
0380
0000
0000
0000
0000
0000
0000
0000
ENDCHAR
STARTCHAR LtCapCTrnd
ENCODING 163
SWIDTH 448 0
DWIDTH 14 0
BBX 14 30 0 -7
BITMAP
0000
0000
0000
0000
0000
0000
1F80
3FE0
38F0
3070
0038
0038
0038
0038
0038
0038
0038
0038
0038
3070
38F0
3FE0
1F80
0000
0000
0000
0000
0000
0000
0000
ENDCHAR
STARTCHAR LtCapHTrnd
ENCODING 164
SWIDTH 448 0
DWIDTH 14 0
BBX 14 30 0 -7
BITMAP
0000
0000
0000
0000
0000
0000
3838
3838
3838
3838
3838
3838
3838
3FF8
3FF8
0038
0038
0038
0038
0038
0038
0038
0038
0000
0000
0000
0000
0000
0000
0000
ENDCHAR
STARTCHAR LtCapKTrnd
ENCODING 165
SWIDTH 448 0
DWIDTH 14 0
BBX 14 30 0 -7
BITMAP
0000
0000
0000
0000
0000
0000
3838
3838
1C38
1C38
0E38
0E38
0778
07F8
03F8
03B8
03B8
0738
0E38
0E38
1C38
3838
3838
0000
0000
0000
0000
0000
0000
0000
ENDCHAR
STARTCHAR LtCapMTrnd
ENCODING 166
SWIDTH 448 0
DWIDTH 14 0
BBX 14 30 0 -7
BITMAP
0000
0000
0000
0000
0000
0000
739C
739C
739C
739C
739C
739C
739C
739C
739C
739C
739C
739C
739C
77BC
7FFC
3DEC
18CC
0000
0000
0000
0000
0000
0000
0000
ENDCHAR
STARTCHAR LtCapTTrnd
ENCODING 167
SWIDTH 448 0
DWIDTH 14 0
BBX 14 30 0 -7
BITMAP
0000
0000
0000
0000
0000
0000
0380
0380
0380
0380
0380
0380
0380
0380
0380
0380
0380
0380
0380
0380
0380
7FFC
7FFC
0000
0000
0000
0000
0000
0000
0000
ENDCHAR
STARTCHAR LtCapVTrnd
ENCODING 168
SWIDTH 448 0
DWIDTH 14 0
BBX 14 30 0 -7
BITMAP
0000
0000
0000
0000
0000
0000
0380
0380
07C0
07C0
06C0
0EE0
0EE0
0C60
1C70
1C70
1C70
3838
3838
3838
701C
701C
701C
0000
0000
0000
0000
0000
0000
0000
ENDCHAR
STARTCHAR LtCapAScrTrnd
ENCODING 169
SWIDTH 448 0
DWIDTH 14 0
BBX 14 30 0 -7
BITMAP
0000
0000
0000
0000
0000
0000
71E0
7BF0
7F38
0E38
0E1C
0E1C
0E1C
0E1C
0E1C
0E1C
0E1C
0E1C
0E1C
0E38
0F38
0FF0
0EE0
0000
0000
0000
0000
0000
0000
0000
ENDCHAR
STARTCHAR LtSmlATrnd
ENCODING 170
SWIDTH 448 0
DWIDTH 14 0
BBX 14 30 0 -7
BITMAP
0000
0000
0000
0000
0000
0000
0000
0000
0000
0000
77E0
7FF0
3C38
3838
3838
3878
3FF0
3FC0
3800
3800
3870
1FF0
0FE0
0000
0000
0000
0000
0000
0000
0000
ENDCHAR
STARTCHAR LtSmlCTrnd
ENCODING 171
SWIDTH 448 0
DWIDTH 14 0
BBX 14 30 0 -7
BITMAP
0000
0000
0000
0000
0000
0000
0000
0000
0000
0000
1FC0
3FE0
38F0
3070
0038
0038
0038
0038
0038
3070
38F0
3FE0
1FC0
0000
0000
0000
0000
0000
0000
0000
ENDCHAR
STARTCHAR LtSmlFTrnd
ENCODING 172
SWIDTH 448 0
DWIDTH 14 0
BBX 14 30 0 -7
BITMAP
0000
0000
0000
0000
0000
0000
0000
0000
0000
0000
01C0
01C0
01C0
01C0
01C0
01C0
01C0
01C0
01C0
01C0
1FF8
1FF8
01C0
01C0
01C0
63C0
7F80
3F00
0000
0000
ENDCHAR
STARTCHAR LtSmlHTrnd
ENCODING 173
SWIDTH 448 0
DWIDTH 14 0
BBX 14 30 0 -7
BITMAP
0000
0000
0000
0000
0000
0000
0000
0000
0000
0000
3838
3838
3838
3838
3838
3838
3838
3838
3838
3878
3CF8
1FB8
0F38
0038
0038
0038
0038
0038
0000
0000
ENDCHAR
STARTCHAR LtSmlKTrnd
ENCODING 174
SWIDTH 448 0
DWIDTH 14 0
BBX 14 30 0 -7
BITMAP
0000
0000
0000
0000
0000
0000
0000
0000
0000
0000
3838
3C38
1C38
0E38
0E38
0778
07F8
03F8
07B8
0F38
1E38
3C38
3838
0038
0038
0038
0038
0038
0000
0000
ENDCHAR
STARTCHAR LtSmlMTrnd
ENCODING 175
SWIDTH 448 0
DWIDTH 14 0
BBX 14 30 0 -7
BITMAP
0000
0000
0000
0000
0000
0000
0000
0000
0000
0000
739C
739C
739C
739C
739C
739C
739C
739C
739C
77BC
7FFC
3DEC
18CC
0000
0000
0000
0000
0000
0000
0000
ENDCHAR
STARTCHAR LtSmlRTrnd
ENCODING 176
SWIDTH 448 0
DWIDTH 14 0
BBX 14 30 0 -7
BITMAP
0000
0000
0000
0000
0000
0000
0000
0000
0000
0000
0070
0070
0070
0070
0070
0070
0070
0070
00F0
31F0
3BF0
3F78
1E78
0000
0000
0000
0000
0000
0000
0000
ENDCHAR
STARTCHAR LtSmlTTrnd
ENCODING 177
SWIDTH 448 0
DWIDTH 14 0
BBX 14 30 0 -7
BITMAP
0000
0000
0000
0000
0000
0000
0000
0000
0000
0000
1F00
3F80
31C0
01C0
01C0
01C0
01C0
01C0
01C0
01C0
01C0
1FF8
1FF8
01C0
01C0
0180
0100
0000
0000
0000
ENDCHAR
STARTCHAR LtSmlVTrnd
ENCODING 178
SWIDTH 448 0
DWIDTH 14 0
BBX 14 30 0 -7
BITMAP
0000
0000
0000
0000
0000
0000
0000
0000
0000
0000
0380
0380
07C0
07C0
0EE0
0EE0
1C70
1C70
1C70
3838
3838
701C
701C
0000
0000
0000
0000
0000
0000
0000
ENDCHAR
STARTCHAR LtSmlWTrnd
ENCODING 179
SWIDTH 448 0
DWIDTH 14 0
BBX 14 30 0 -7
BITMAP
0000
0000
0000
0000
0000
0000
0000
0000
0000
0000
1C70
1C70
1EF0
1EF0
3BB8
3BB8
3BB8
3BB8
711C
711C
701C
701C
701C
0000
0000
0000
0000
0000
0000
0000
ENDCHAR
STARTCHAR LtSmlYTrnd
ENCODING 180
SWIDTH 448 0
DWIDTH 14 0
BBX 14 30 0 -7
BITMAP
0000
0000
0000
0000
0000
00F8
01FC
039C
0380
0700
0700
0780
0F80
0FC0
0FC0
1CE0
1CE0
1CE0
1C70
3870
3838
3838
3838
0000
0000
0000
0000
0000
0000
0000
ENDCHAR
STARTCHAR LtSmlDelTrnd
ENCODING 181
SWIDTH 448 0
DWIDTH 14 0
BBX 14 30 0 -7
BITMAP
0000
0000
0000
0000
0000
0000
0000
0000
0000
0000
07C0
1FF0
1C70
3838
3838
3838
3838
3838
3C78
1EF0
0FE0
07C0
03C0
01E0
00F0
0070
1FF0
1FE0
0000
0000
ENDCHAR
STARTCHAR LtSmlAScrTrnd
ENCODING 182
SWIDTH 448 0
DWIDTH 14 0
BBX 14 30 0 -7
BITMAP
0000
0000
0000
0000
0000
0000
0000
0000
0000
0000
71C0
7BF0
3E70
3C38
3838
3838
3838
3838
3838
3C38
3E70
3BF0
39C0
0000
0000
0000
0000
0000
0000
0000
ENDCHAR
STARTCHAR LtCapAE
ENCODING 183
SWIDTH 448 0
DWIDTH 14 0
BBX 14 30 0 -7
BITMAP
0000
0000
0000
0000
0000
0000
03FC
03FC
07C0
07C0
07C0
0FC0
0DC0
0DF8
1DF8
19C0
1FC0
3FC0
39C0
39C0
71C0
71FC
71FC
0000
0000
0000
0000
0000
0000
0000
ENDCHAR
STARTCHAR LtCapDZ
ENCODING 184
SWIDTH 448 0
DWIDTH 14 0
BBX 14 30 0 -7
BITMAP
0000
0000
0000
0000
0000
0000
78FC
7CFC
7E1C
771C
771C
7738
7738
7738
7738
7770
7770
7770
7770
77E0
7EE0
7CFC
78FC
0000
0000
0000
0000
0000
0000
0000
ENDCHAR
STARTCHAR LtCapIJ
ENCODING 185
SWIDTH 448 0
DWIDTH 14 0
BBX 14 30 0 -7
BITMAP
0000
0000
0000
0000
0000
0000
1C70
1C70
1C70
1C70
1C70
1C70
1C70
1C70
1C70
1C70
1C70
1C70
1C70
0070
0070
0070
1870
1CE0
1FE0
0780
0000
0000
0000
0000
ENDCHAR
STARTCHAR LtCapLJ
ENCODING 186
SWIDTH 448 0
DWIDTH 14 0
BBX 14 30 0 -7
BITMAP
0000
0000
0000
0000
0000
0000
703C
703C
701C
701C
701C
701C
701C
701C
701C
701C
701C
71DC
71DC
71DC
71DC
7EF8
7E70
0000
0000
0000
0000
0000
0000
0000
ENDCHAR
STARTCHAR LtCapNJ
ENCODING 187
SWIDTH 448 0
DWIDTH 14 0
BBX 14 30 0 -7
BITMAP
0000
0000
0000
0000
0000
0000
663C
663C
661C
761C
761C
761C
761C
7E1C
7E1C
7E1C
6E1C
6EDC
6EDC
6EDC
66DC
66F8
6670
0000
0000
0000
0000
0000
0000
0000
ENDCHAR
STARTCHAR LtCapOE
ENCODING 188
SWIDTH 448 0
DWIDTH 14 0
BBX 14 30 0 -7
BITMAP
0000
0000
0000
0000
0000
0000
1FFC
3FFC
79C0
71C0
71C0
71C0
71C0
71F8
71F8
71C0
71C0
71C0
71C0
71C0
79C0
3FFC
1FFC
0000
0000
0000
0000
0000
0000
0000
ENDCHAR
STARTCHAR LtMixDZ
ENCODING 189
SWIDTH 448 0
DWIDTH 14 0
BBX 14 30 0 -7
BITMAP
0000
0000
0000
0000
0000
0000
7800
7C00
7E00
7700
77FC
77FC
771C
7738
7738
7770
7770
7770
77E0
76E0
7FC0
7DFC
79FC
0000
0000
0000
0000
0000
0000
0000
ENDCHAR
STARTCHAR LtMixLJ
ENCODING 190
SWIDTH 448 0
DWIDTH 14 0
BBX 14 30 0 -7
BITMAP
0000
0000
0000
0000
0000
001C
701C
701C
7000
7000
70FC
70FC
701C
701C
701C
701C
701C
701C
701C
701C
701C
7F9C
7F9C
001C
001C
033C
03F8
01F0
0000
0000
ENDCHAR
STARTCHAR LtMixNJ
ENCODING 191
SWIDTH 448 0
DWIDTH 14 0
BBX 14 30 0 -7
BITMAP
0000
0000
0000
0000
0000
001C
739C
739C
7380
7380
7BBC
7BBC
7B9C
7F9C
7F9C
779C
779C
779C
739C
739C
739C
739C
739C
001C
001C
033C
03F8
01F0
0000
0000
ENDCHAR
STARTCHAR LtSmlAE
ENCODING 192
SWIDTH 448 0
DWIDTH 14 0
BBX 14 30 0 -7
BITMAP
0000
0000
0000
0000
0000
0000
0000
0000
0000
0000
3EF8
7FFC
739C
039C
039C
1FFC
3FFC
7380
7380
7380
73CC
7FFC
3E78
0000
0000
0000
0000
0000
0000
0000
ENDCHAR
STARTCHAR LtSmlDB
ENCODING 193
SWIDTH 448 0
DWIDTH 14 0
BBX 14 30 0 -7
BITMAP
0000
0000
0000
0000
0000
0380
0380
0380
0380
0380
0FE0
1FF0
3BB8
739C
739C
739C
739C
739C
739C
739C
3BB8
1FF0
0FE0
0000
0000
0000
0000
0000
0000
0000
ENDCHAR
STARTCHAR LtSmlDZ
ENCODING 194
SWIDTH 448 0
DWIDTH 14 0
BBX 14 30 0 -7
BITMAP
0000
0000
0000
0000
0000
0700
0700
0700
0700
0700
1FFC
3FFC
771C
7738
7738
7738
7730
7770
7770
7770
77E0
3FFC
1FFC
0000
0000
0000
0000
0000
0000
0000
ENDCHAR
STARTCHAR LtSmlDEzh
ENCODING 195
SWIDTH 448 0
DWIDTH 14 0
BBX 14 30 0 -7
BITMAP
0000
0000
0000
0000
0000
0700
0700
0700
0700
0700
1FFC
3FFC
771C
7738
7738
7738
7770
7770
7778
773C
771C
3F1C
1F1C
001C
001C
063C
07F8
03F0
0000
0000
ENDCHAR
STARTCHAR LtSmlFF
ENCODING 196
SWIDTH 448 0
DWIDTH 14 0
BBX 14 30 0 -7
BITMAP
0000
0000
0000
0000
0000
0F3C
1F7C
3DF4
38E0
38E0
38E0
7FFC
7FFC
38E0
38E0
38E0
38E0
38E0
38E0
38E0
38E0
38E0
38E0
0000
0000
0000
0000
0000
0000
0000
ENDCHAR
STARTCHAR LtSmlFI
ENCODING 197
SWIDTH 448 0
DWIDTH 14 0
BBX 14 30 0 -7
BITMAP
0000
0000
0000
0000
0000
0F38
1FB8
3DB8
3800
3800
38F8
7EF8
7E38
3838
3838
3838
3838
3838
3838
3838
3838
38FC
38FC
0000
0000
0000
0000
0000
0000
0000
ENDCHAR
STARTCHAR LtSmlFFI
ENCODING 198
SWIDTH 448 0
DWIDTH 14 0
BBX 14 30 0 -7
BITMAP
0000
0000
0000
0000
0000
1EFC
3FFC
7B9C
7380
7380
739C
FFFC
FFFC
739C
739C
739C
739C
739C
739C
739C
739C
739C
739C
0000
0000
0000
0000
0000
0000
0000
ENDCHAR
STARTCHAR LtSmlFL
ENCODING 199
SWIDTH 448 0
DWIDTH 14 0
BBX 14 30 0 -7
BITMAP
0000
0000
0000
0000
0000
0FF8
1FF8
3C38
3838
3838
3838
7F38
7F38
3838
3838
3838
3838
3838
3838
3838
3838
38FC
38FC
0000
0000
0000
0000
0000
0000
0000
ENDCHAR
STARTCHAR LtSmlFFL
ENCODING 200
SWIDTH 448 0
DWIDTH 14 0
BBX 14 30 0 -7
BITMAP
0000
0000
0000
0000
0000
1EFC
3FFC
7B9C
739C
739C
739C
FFDC
FFDC
739C
739C
739C
739C
739C
739C
739C
739C
739C
739C
0000
0000
0000
0000
0000
0000
0000
ENDCHAR
STARTCHAR LtSmlFEng
ENCODING 201
SWIDTH 448 0
DWIDTH 14 0
BBX 14 30 0 -7
BITMAP
0000
0000
0000
0000
0000
0F80
1FC0
38C0
3800
3800
3BB8
7FFC
7FDC
3B9C
3B9C
3B9C
3B9C
3B9C
3B9C
3B9C
3B9C
3B9C
3B9C
001C
001C
031C
03F8
01F0
0000
0000
ENDCHAR
STARTCHAR LtSmlIJ
ENCODING 202
SWIDTH 448 0
DWIDTH 14 0
BBX 14 30 0 -7
BITMAP
0000
0000
0000
0000
0000
1C38
1C38
1C38
0000
0000
3C78
3C78
1C38
1C38
1C38
1C38
1C38
1C38
1C38
1C38
1C38
3E38
3E38
0038
0038
0638
07F0
03E0
0000
0000
ENDCHAR
STARTCHAR LtSmlLJ
ENCODING 203
SWIDTH 448 0
DWIDTH 14 0
BBX 14 30 0 -7
BITMAP
0000
0000
0000
0000
0000
7C38
7C38
1C38
1C00
1C00
1CF8
1CF8
1C38
1C38
1C38
1C38
1C38
1C38
1C38
1C38
1C38
7F38
7F38
0038
0038
0738
07F0
03E0
0000
0000
ENDCHAR
STARTCHAR LtSmlLS
ENCODING 204
SWIDTH 448 0
DWIDTH 14 0
BBX 14 30 0 -7
BITMAP
0000
0000
0000
0000
0000
7C00
7C00
1C00
1C00
1C00
1CF8
1DFC
1DCC
1DC0
1DC0
1CE0
1C70
1C38
1C1C
1C1C
1C1C
7FFC
7FF8
0000
0000
0000
0000
0000
0000
0000
ENDCHAR
STARTCHAR LtSmlLZ
ENCODING 205
SWIDTH 448 0
DWIDTH 14 0
BBX 14 30 0 -7
BITMAP
0000
0000
0000
0000
0000
7C00
7C00
1C00
1C00
1C00
1FFC
1FFC
1C1C
1C38
1C38
1C70
1C70
1CE0
1CE0
1DC0
1DC0
7FFC
7FFC
0000
0000
0000
0000
0000
0000
0000
ENDCHAR
STARTCHAR LtSmlLEzh
ENCODING 206
SWIDTH 448 0
DWIDTH 14 0
BBX 14 30 0 -7
BITMAP
0000
0000
0000
0000
0000
7C00
7C00
1C00
1C00
1C00
1FFC
1FFC
1C1C
1C38
1C38
1C70
1C70
1CF0
1CF8
1C38
1C1C
7F1C
7F1C
001C
001C
063C
07F8
03F0
0000
0000
ENDCHAR
STARTCHAR LtSmlNJ
ENCODING 207
SWIDTH 448 0
DWIDTH 14 0
BBX 14 30 0 -7
BITMAP
0000
0000
0000
0000
0000
001C
001C
001C
0000
0000
773C
7FBC
7B9C
739C
739C
739C
739C
739C
739C
739C
739C
739C
739C
001C
001C
031C
03F8
01F0
0000
0000
ENDCHAR
STARTCHAR LtSmlOE
ENCODING 208
SWIDTH 448 0
DWIDTH 14 0
BBX 14 30 0 -7
BITMAP
0000
0000
0000
0000
0000
0000
0000
0000
0000
0000
1E78
3FFC
73DC
739C
739C
73FC
73FC
7380
7380
7380
73CC
3FFC
1E78
0000
0000
0000
0000
0000
0000
0000
ENDCHAR
STARTCHAR LtSmlQP
ENCODING 209
SWIDTH 448 0
DWIDTH 14 0
BBX 14 30 0 -7
BITMAP
0000
0000
0000
0000
0000
0000
0000
0000
0000
0000
0FE0
1FF0
3BB8
739C
739C
739C
739C
739C
739C
739C
3BB8
1FF0
0FE0
0380
0380
0380
0380
0380
0000
0000
ENDCHAR
STARTCHAR LtSmlST
ENCODING 210
SWIDTH 448 0
DWIDTH 14 0
BBX 14 30 0 -7
BITMAP
0000
0000
0000
0000
0000
0000
0020
0060
00E0
00E0
1FFC
3FFC
70E0
70E0
70E0
38E0
3CE0
1CE0
0EE0
0EE0
6EEC
7CFC
3878
0000
0000
0000
0000
0000
0000
0000
ENDCHAR
STARTCHAR LtSmlSLongT
ENCODING 211
SWIDTH 448 0
DWIDTH 14 0
BBX 14 30 0 -7
BITMAP
0000
0000
0000
0000
0000
0FC0
1FE0
3CE0
38E0
38E0
39FC
79FC
78E0
38E0
38E0
38E0
38E0
38E0
38E0
38E0
38EC
38FC
3878
0000
0000
0000
0000
0000
0000
0000
ENDCHAR
STARTCHAR LtSmlTS
ENCODING 212
SWIDTH 448 0
DWIDTH 14 0
BBX 14 30 0 -7
BITMAP
0000
0000
0000
0000
0000
0000
0800
1800
3800
3800
7E78
7EFC
39CC
39C0
39E0
38F0
3878
383C
381C
381C
3B9C
1FF8
0EF0
0000
0000
0000
0000
0000
0000
0000
ENDCHAR
STARTCHAR LtSmlTEsh
ENCODING 213
SWIDTH 448 0
DWIDTH 14 0
BBX 14 30 0 -7
BITMAP
0000
0000
0000
0000
0000
003C
087C
18EC
38E0
38E0
7EE0
7EE0
38E0
38E0
38E0
38E0
38E0
38E0
38E0
38E0
3AE0
1EE0
0EE0
00E0
00E0
0EE0
0FC0
0780
0000
0000
ENDCHAR
STARTCHAR LtCapBTopbar
ENCODING 214
SWIDTH 448 0
DWIDTH 14 0
BBX 14 30 0 -7
BITMAP
0000
0000
0000
0000
0000
0000
3FF0
3FF0
3800
3800
3800
3800
3800
3FC0
3FF0
3870
3838
3838
3838
3838
3870
3FF0
3FC0
0000
0000
0000
0000
0000
0000
0000
ENDCHAR
STARTCHAR LtCapDTopbar
ENCODING 215
SWIDTH 448 0
DWIDTH 14 0
BBX 14 30 0 -7
BITMAP
0000
0000
0000
0000
0000
0000
1FF8
1FF8
0038
0038
0038
0038
0038
07F8
1FF8
1C38
3838
3838
3838
3838
1C38
1FF8
07F8
0000
0000
0000
0000
0000
0000
0000
ENDCHAR
STARTCHAR LtSmlBTopbar
ENCODING 216
SWIDTH 448 0
DWIDTH 14 0
BBX 14 30 0 -7
BITMAP
0000
0000
0000
0000
0000
3FE0
3FE0
3800
3800
3800
3BC0
3FF0
3C70
3838
3838
3838
3838
3838
3838
3838
3C70
3FF0
3BC0
0000
0000
0000
0000
0000
0000
0000
ENDCHAR
STARTCHAR LtSmlDTopbar
ENCODING 217
SWIDTH 448 0
DWIDTH 14 0
BBX 14 30 0 -7
BITMAP
0000
0000
0000
0000
0000
0FF8
0FF8
0038
0038
0038
07B8
1FF8
1C78
3838
3838
3838
3838
3838
3838
3838
1C78
1FF8
07B8
0000
0000
0000
0000
0000
0000
0000
ENDCHAR
STARTCHAR LtCapBHook
ENCODING 218
SWIDTH 448 0
DWIDTH 14 0
BBX 14 30 0 -7
BITMAP
0000
0000
0000
0000
0000
0000
3FF0
7FF8
673C
771C
771C
371C
0738
07F0
07F0
0738
071C
071C
071C
071C
073C
07F8
07F0
0000
0000
0000
0000
0000
0000
0000
ENDCHAR
STARTCHAR LtCapCHook
ENCODING 219
SWIDTH 448 0
DWIDTH 14 0
BBX 14 30 0 -7
BITMAP
0000
0000
0000
003C
007C
0060
03F0
0FF8
1E38
1C18
3800
3800
3800
3800
3800
3800
3800
3800
3800
1C18
1E38
0FF8
03F0
0000
0000
0000
0000
0000
0000
0000
ENDCHAR
STARTCHAR LtCapDHook
ENCODING 220
SWIDTH 448 0
DWIDTH 14 0
BBX 14 30 0 -7
BITMAP
0000
0000
0000
0000
0000
0000
3FE0
7FF0
6738
7718
771C
371C
071C
071C
071C
071C
071C
071C
071C
0718
0738
07F0
07E0
0000
0000
0000
0000
0000
0000
0000
ENDCHAR
STARTCHAR LtCapGHook
ENCODING 221
SWIDTH 448 0
DWIDTH 14 0
BBX 14 30 0 -7
BITMAP
0000
0000
0000
003C
007C
0060
03F0
0FF8
1E38
1C18
3800
3800
3800
3800
39F8
39F8
3838
3838
3838
1C38
1E38
0FF8
03F8
0000
0000
0000
0000
0000
0000
0000
ENDCHAR
STARTCHAR LtCapHHook
ENCODING 222
SWIDTH 448 0
DWIDTH 14 0
BBX 14 30 0 -7
BITMAP
0000
0000
0000
0000
0000
0000
3F1C
7F1C
671C
771C
771C
371C
071C
07FC
07FC
071C
071C
071C
071C
071C
071C
071C
071C
0000
0000
0000
0000
0000
0000
0000
ENDCHAR
STARTCHAR LtCapKHook
ENCODING 223
SWIDTH 448 0
DWIDTH 14 0
BBX 14 30 0 -7
BITMAP
0000
0000
0000
0000
0000
0000
3878
38FC
39DC
39CC
3B8C
3B80
3B00
3F00
3F00
3F80
3F80
39C0
39C0
38E0
38E0
3870
3870
0000
0000
0000
0000
0000
0000
0000
ENDCHAR
STARTCHAR LtCapPHook
ENCODING 224
SWIDTH 448 0
DWIDTH 14 0
BBX 14 30 0 -7
BITMAP
0000
0000
0000
0000
0000
0000
3FE0
7FF8
6738
771C
771C
371C
071C
0738
07F8
07E0
0700
0700
0700
0700
0700
0700
0700
0000
0000
0000
0000
0000
0000
0000
ENDCHAR
STARTCHAR LtCapTHook
ENCODING 225
SWIDTH 448 0
DWIDTH 14 0
BBX 14 30 0 -7
BITMAP
0000
0000
0000
0000
0000
0000
3FFC
7FFC
61C0
71C0
71C0
31C0
01C0
01C0
01C0
01C0
01C0
01C0
01C0
01C0
01C0
01C0
01C0
0000
0000
0000
0000
0000
0000
0000
ENDCHAR
STARTCHAR LtCapVHook
ENCODING 226
SWIDTH 448 0
DWIDTH 14 0
BBX 14 30 0 -7
BITMAP
0000
0000
0000
0000
0000
0000
39C0
39E0
38F0
3870
3838
3838
3838
3838
3838
3838
3838
3838
3870
3870
1CE0
1FE0
0FC0
0000
0000
0000
0000
0000
0000
0000
ENDCHAR
STARTCHAR LtCapWHook
ENCODING 227
SWIDTH 448 0
DWIDTH 14 0
BBX 14 30 0 -7
BITMAP
0000
0000
0000
0000
0000
0000
7078
70FC
70EC
70EC
70EC
76E0
76E0
76E0
76E0
76E0
3FC0
3FC0
3FC0
3FC0
39C0
39C0
39C0
0000
0000
0000
0000
0000
0000
0000
ENDCHAR
STARTCHAR LtCapYHook
ENCODING 228
SWIDTH 448 0
DWIDTH 14 0
BBX 14 30 0 -7
BITMAP
0000
0000
0000
0000
0000
0000
7038
707C
707C
38EC
38EC
1DC0
1DC0
0F80
0F80
0700
0700
0700
0700
0700
0700
0700
0700
0000
0000
0000
0000
0000
0000
0000
ENDCHAR
STARTCHAR LtSmlBHook
ENCODING 229
SWIDTH 448 0
DWIDTH 14 0
BBX 14 30 0 -7
BITMAP
0000
0000
0000
0000
0000
0F00
1F80
3B80
3800
3800
3BC0
3FF0
3C70
3838
3838
3838
3838
3838
3838
3838
3C70
3FF0
3BC0
0000
0000
0000
0000
0000
0000
0000
ENDCHAR
STARTCHAR LtSmlCHook
ENCODING 230
SWIDTH 448 0
DWIDTH 14 0
BBX 14 30 0 -7
BITMAP
0000
0000
0000
0000
0000
0000
0078
00FC
00DC
00C0
07F0
0FF8
1E38
1C18
3800
3800
3800
3800
3800
1C18
1E38
0FF8
07F0
0000
0000
0000
0000
0000
0000
0000
ENDCHAR
STARTCHAR LtSmlDHook
ENCODING 231
SWIDTH 448 0
DWIDTH 14 0
BBX 14 30 0 -7
BITMAP
0000
0000
0000
0000
0000
0038
007C
00EC
00E0
00E0
0EE0
3FE0
39E0
70E0
70E0
70E0
70E0
70E0
70E0
70E0
39E0
3FE0
0EE0
0000
0000
0000
0000
0000
0000
0000
ENDCHAR
STARTCHAR LtSmlGHook
ENCODING 232
SWIDTH 448 0
DWIDTH 14 0
BBX 14 30 0 -7
BITMAP
0000
0000
0000
0000
0000
0038
007C
00EC
00E0
00E0
0EE0
3FE0
39E0
70E0
70E0
70E0
70E0
70E0
70E0
70E0
39E0
3FE0
0EE0
00E0
00E0
31E0
3FC0
1F80
0000
0000
ENDCHAR
STARTCHAR LtSmlHHook
ENCODING 233
SWIDTH 448 0
DWIDTH 14 0
BBX 14 30 0 -7
BITMAP
0000
0000
0000
0000
0000
0F00
1F80
3B80
3800
3800
39E0
3BF0
3E78
3C38
3838
3838
3838
3838
3838
3838
3838
3838
3838
0000
0000
0000
0000
0000
0000
0000
ENDCHAR
STARTCHAR LtSmlKHook
ENCODING 234
SWIDTH 448 0
DWIDTH 14 0
BBX 14 30 0 -7
BITMAP
0000
0000
0000
0000
0000
0F00
1F80
3B80
3800
3800
3838
3878
38F0
39E0
3BC0
3F80
3FC0
3DC0
38E0
38E0
3870
3878
3838
0000
0000
0000
0000
0000
0000
0000
ENDCHAR
STARTCHAR LtSmlPHook
ENCODING 235
SWIDTH 448 0
DWIDTH 14 0
BBX 14 30 0 -7
BITMAP
0000
0000
0000
0000
0000
0F00
1F80
3B80
3800
3800
3BC0
3FF0
3C70
3838
3838
3838
3838
3838
3838
3838
3C70
3FF0
3BC0
3800
3800
3800
3800
3800
0000
0000
ENDCHAR
STARTCHAR LtSmlQHook
ENCODING 236
SWIDTH 448 0
DWIDTH 14 0
BBX 14 30 0 -7
BITMAP
0000
0000
0000
0000
0000
0038
007C
00EC
00E0
00E0
0EE0
3FE0
39E0
70E0
70E0
70E0
70E0
70E0
70E0
70E0
39E0
3FE0
0EE0
00E0
00E0
00E0
00E0
00E0
0000
0000
ENDCHAR
STARTCHAR LtSmlTHook
ENCODING 237
SWIDTH 448 0
DWIDTH 14 0
BBX 14 30 0 -7
BITMAP
0000
0000
0000
0000
0000
01E0
03F0
0770
0700
0700
3FF0
3FF0
0700
0700
0700
0700
0700
0700
0700
0700
0718
03F8
01F0
0000
0000
0000
0000
0000
0000
0000
ENDCHAR
STARTCHAR LtSmlVHook
ENCODING 238
SWIDTH 448 0
DWIDTH 14 0
BBX 14 30 0 -7
BITMAP
0000
0000
0000
0000
0000
0000
0000
0000
0000
0000
38E0
38F0
3870
3838
3838
3838
3838
3838
3838
3870
38F0
1FE0
0F80
0000
0000
0000
0000
0000
0000
0000
ENDCHAR
STARTCHAR LtSmlWHook
ENCODING 239
SWIDTH 448 0
DWIDTH 14 0
BBX 14 30 0 -7
BITMAP
0000
0000
0000
0000
0000
0000
001C
003C
0074
0070
7070
7070
70E0
76E0
76E0
76E0
76E0
36C0
3FC0
3FC0
39C0
39C0
39C0
0000
0000
0000
0000
0000
0000
0000
ENDCHAR
STARTCHAR LtSmlYHook
ENCODING 240
SWIDTH 448 0
DWIDTH 14 0
BBX 14 30 0 -7
BITMAP
0000
0000
0000
0000
0000
0000
001C
003C
0074
0070
7070
7070
70E0
38E0
38E0
1CE0
1DC0
1DC0
0FC0
0F80
0780
0780
0380
0300
0700
7700
7E00
3C00
0000
0000
ENDCHAR
STARTCHAR LtSmlSchwaHook
ENCODING 241
SWIDTH 448 0
DWIDTH 14 0
BBX 14 30 0 -7
BITMAP
0000
0000
0000
0000
0000
0000
0000
0000
0000
0000
1F38
3FB8
71F8
00FC
00EC
00EC
7FE0
7FE0
70E0
70E0
39C0
3FC0
0F00
0000
0000
0000
0000
0000
0000
0000
ENDCHAR
STARTCHAR LtSmlGSmcHook
ENCODING 242
SWIDTH 448 0
DWIDTH 14 0
BBX 14 30 0 -7
BITMAP
0000
0000
0000
0000
0000
0000
0078
00FC
00DC
00C0
07F0
0FF8
1C38
1800
3800
39F8
39F8
3838
3838
1838
1C38
0FF8
07F8
0000
0000
0000
0000
0000
0000
0000
ENDCHAR
STARTCHAR LtSmlEpsRevHook
ENCODING 243
SWIDTH 448 0
DWIDTH 14 0
BBX 14 30 0 -7
BITMAP
0000
0000
0000
0000
0000
0000
0000
0000
0000
0000
3F38
7FB8
71F8
60FC
00EC
0FCC
0F80
01C0
00E0
60E0
71E0
7FC0
3F80
0000
0000
0000
0000
0000
0000
0000
ENDCHAR
STARTCHAR LtSmlFTrndHook
ENCODING 244
SWIDTH 448 0
DWIDTH 14 0
BBX 14 30 0 -7
BITMAP
0000
0000
0000
0000
0000
00F8
01FC
038C
0380
0380
0380
0380
0380
0380
0380
0380
0380
0380
0380
0380
3FF8
3FF8
0380
0380
0380
6380
7F00
3E00
0000
0000
ENDCHAR
STARTCHAR LtSmlHTrndHook
ENCODING 245
SWIDTH 448 0
DWIDTH 14 0
BBX 14 30 0 -7
BITMAP
0000
0000
0000
0000
0000
0000
0000
0000
0000
0000
381C
7C1C
6E1C
0E1C
0E1C
0E1C
0E1C
0E1C
0E1C
0E3C
0F7C
07DC
039C
001C
001C
001C
001C
001C
0000
0000
ENDCHAR
STARTCHAR LtCapFLhook
ENCODING 246
SWIDTH 448 0
DWIDTH 14 0
BBX 14 30 0 -7
BITMAP
0000
0000
0000
0000
0000
0000
07FC
07FC
0700
0700
0700
0700
0700
07F0
07F0
0700
0700
0700
0700
0700
7700
7E00
3C00
0000
0000
0000
0000
0000
0000
0000
ENDCHAR
STARTCHAR LtCapHLhook
ENCODING 247
SWIDTH 448 0
DWIDTH 14 0
BBX 14 30 0 -7
BITMAP
0000
0000
0000
0000
0000
0000
3838
3838
3838
3838
3838
3838
3838
3FF8
3FF8
3838
3838
3838
3838
3838
3838
3838
3838
0038
0038
0638
07F0
03E0
0000
0000
ENDCHAR
STARTCHAR LtCapNLhookL
ENCODING 248
SWIDTH 448 0
DWIDTH 14 0
BBX 14 30 0 -7
BITMAP
0000
0000
0000
0000
0000
0000
0E1C
0E1C
0F1C
0F1C
0F1C
0F9C
0F9C
0EDC
0EDC
0EDC
0E7C
0E7C
0E3C
0E3C
6E3C
7C1C
381C
0000
0000
0000
0000
0000
0000
0000
ENDCHAR
STARTCHAR LtCapQHooktail
ENCODING 249
SWIDTH 448 0
DWIDTH 14 0
BBX 14 30 0 -7
BITMAP
0000
0000
0000
0000
0000
0000
0EE0
1FE0
39E0
38E0
70E0
70E0
70E0
70E0
70E0
70E0
70E0
70E0
70E0
38E0
39E0
1FE0
0EE0
00E0
00E0
00EC
007C
0038
0000
0000
ENDCHAR
STARTCHAR LtCapRLhook
ENCODING 250
SWIDTH 448 0
DWIDTH 14 0
BBX 14 30 0 -7
BITMAP
0000
0000
0000
0000
0000
0000
3FC0
3FF0
3870
3838
3838
3838
3870
3FF0
3FC0
3980
39C0
38E0
38E0
3870
3838
3838
381C
3800
3800
3B80
1F80
0F00
0000
0000
ENDCHAR
STARTCHAR LtCapTLhook
ENCODING 251
SWIDTH 448 0
DWIDTH 14 0
BBX 14 30 0 -7
BITMAP
0000
0000
0000
0000
0000
0000
7FFC
7FFC
0380
0380
0380
0380
0380
0380
0380
0380
0380
0380
0380
0380
03B8
01F8
00F0
0000
0000
0000
0000
0000
0000
0000
ENDCHAR
STARTCHAR LtCapZLhookL
ENCODING 252
SWIDTH 448 0
DWIDTH 14 0
BBX 14 30 0 -7
BITMAP
0000
0000
0000
0000
0000
0000
3FF8
3FF8
0078
0070
00F0
00E0
01C0
03C0
0380
0780
0700
0E00
1E00
1C00
3C00
3FF8
3FFC
000C
001C
001C
0018
0000
0000
0000
ENDCHAR
STARTCHAR LtSmlDLhook
ENCODING 253
SWIDTH 448 0
DWIDTH 14 0
BBX 14 30 0 -7
BITMAP
0000
0000
0000
0000
0000
00E0
00E0
00E0
00E0
00E0
0EE0
3FE0
39E0
70E0
70E0
70E0
70E0
70E0
70E0
70E0
39E0
3FE0
0EE0
00E0
00E0
00EC
007C
0038
0000
0000
ENDCHAR
STARTCHAR LtSmlFLhook
ENCODING 254
SWIDTH 448 0
DWIDTH 14 0
BBX 14 30 0 -7
BITMAP
0000
0000
0000
0000
0000
00F8
01FC
038C
0380
0380
0380
3FF8
3FF8
0380
0380
0380
0380
0380
0380
0380
0380
0380
0380
0380
0380
6380
7F00
3E00
0000
0000
ENDCHAR
STARTCHAR LtSmlHLhook
ENCODING 255
SWIDTH 448 0
DWIDTH 14 0
BBX 14 30 0 -7
BITMAP
0000
0000
0000
0000
0000
3800
3800
3800
3800
3800
39E0
3BF0
3E78
3C38
3838
3838
3838
3838
3838
3838
3838
3838
3838
0038
0038
0638
07F0
03E0
0000
0000
ENDCHAR
STARTCHAR LtSmlLLhook
ENCODING 256
SWIDTH 448 0
DWIDTH 14 0
BBX 14 30 0 -7
BITMAP
0000
0000
0000
0000
0000
0F80
0F80
0380
0380
0380
0380
0380
0380
0380
0380
0380
0380
0380
0380
0380
0380
0380
0380
0380
039C
039C
01FC
00F8
0000
0000
ENDCHAR
STARTCHAR LtSmlMLhook
ENCODING 257
SWIDTH 448 0
DWIDTH 14 0
BBX 14 30 0 -7
BITMAP
0000
0000
0000
0000
0000
0000
0000
0000
0000
0000
6630
6F78
7FFC
7BDC
739C
739C
739C
739C
739C
739C
739C
739C
739C
001C
001C
039C
03F8
01F0
0000
0000
ENDCHAR
STARTCHAR LtSmlNLhook
ENCODING 258
SWIDTH 448 0
DWIDTH 14 0
BBX 14 30 0 -7
BITMAP
0000
0000
0000
0000
0000
0000
0000
0000
0000
0000
7380
77C0
7DE0
78E0
70E0
70E0
70E0
70E0
70E0
70E0
70E0
70E0
70E0
00E0
00E0
00EC
007C
0038
0000
0000
ENDCHAR
STARTCHAR LtSmlNLhookL
ENCODING 259
SWIDTH 448 0
DWIDTH 14 0
BBX 14 30 0 -7
BITMAP
0000
0000
0000
0000
0000
0000
0000
0000
0000
0000
1CE0
1DF0
1F78
1E38
1C38
1C38
1C38
1C38
1C38
1C38
1C38
1C38
1C38
1C00
1C00
DC00
F800
7000
0000
0000
ENDCHAR
STARTCHAR LtSmlQHooktail
ENCODING 260
SWIDTH 448 0
DWIDTH 14 0
BBX 14 30 0 -7
BITMAP
0000
0000
0000
0000
0000
0000
0000
0000
0000
0000
0EE0
3FE0
39E0
70E0
70E0
70E0
70E0
70E0
70E0
70E0
39E0
3FE0
0EE0
00E0
00E0
00EC
007C
0038
0000
0000
ENDCHAR
STARTCHAR LtSmlRLhook
ENCODING 261
SWIDTH 448 0
DWIDTH 14 0
BBX 14 30 0 -7
BITMAP
0000
0000
0000
0000
0000
0000
0000
0000
0000
0000
3CF0
3DF8
1FB8
1F18
1E00
1C00
1C00
1C00
1C00
1C00
1C00
1C00
1C00
1C00
1C00
1DC0
0FC0
0780
0000
0000
ENDCHAR
STARTCHAR LtSmlSLhook
ENCODING 262
SWIDTH 448 0
DWIDTH 14 0
BBX 14 30 0 -7
BITMAP
0000
0000
0000
0000
0000
0000
0000
0000
0000
0000
0FF0
1FF8
3838
3800
3C00
1F80
0FE0
03F0
0078
0038
3838
3FF0
3FE0
3800
3800
3B80
1F80
0F00
0000
0000
ENDCHAR
STARTCHAR LtSmlTLhook
ENCODING 263
SWIDTH 448 0
DWIDTH 14 0
BBX 14 30 0 -7
BITMAP
0000
0000
0000
0000
0000
0000
0100
0300
0700
0700
3FF0
3FF0
0700
0700
0700
0700
0700
0700
0700
0700
0700
0700
0700
0700
0700
0738
03F8
01F0
0000
0000
ENDCHAR
STARTCHAR LtSmlTLhookL
ENCODING 264
SWIDTH 448 0
DWIDTH 14 0
BBX 14 30 0 -7
BITMAP
0000
0000
0000
0000
0000
0000
0100
0300
0700
0700
3FF0
3FF0
0700
0700
0700
0700
0700
0700
0700
0700
0738
03F8
01F8
0038
0038
03B8
03F0
01E0
0000
0000
ENDCHAR
STARTCHAR LtSmlZLhook
ENCODING 265
SWIDTH 448 0
DWIDTH 14 0
BBX 14 30 0 -7
BITMAP
0000
0000
0000
0000
0000
0000
0000
0000
0000
0000
3FF8
3FF8
0070
00E0
01E0
03C0
0380
0780
0F00
0E00
1C00
3FF8
3FF8
00E0
00E0
00EC
007C
0038
0000
0000
ENDCHAR
STARTCHAR LtSmlZLhookL
ENCODING 266
SWIDTH 448 0
DWIDTH 14 0
BBX 14 30 0 -7
BITMAP
0000
0000
0000
0000
0000
0000
0000
0000
0000
0000
3FF8
3FF8
0070
00E0
01E0
03C0
0380
0780
0F00
0E00
1C00
3FF8
3FFC
000C
001C
001C
0018
0000
0000
0000
ENDCHAR
STARTCHAR LtSmlEzhTail
ENCODING 267
SWIDTH 448 0
DWIDTH 14 0
BBX 14 30 0 -7
BITMAP
0000
0000
0000
0000
0000
0000
0000
0000
0000
0000
3FF8
3FF8
0070
00E0
01C0
07E0
07F0
0078
0038
0038
0078
0FF0
1FE0
3C00
3800
3818
1FF8
0FF0
0000
0000
ENDCHAR
STARTCHAR LtSmlRTrndLhook
ENCODING 268
SWIDTH 448 0
DWIDTH 14 0
BBX 14 30 0 -7
BITMAP
0000
0000
0000
0000
0000
0000
0000
0000
0000
0000
00E0
00E0
00E0
00E0
00E0
00E0
00E0
00E0
01E0
63E0
77E0
7EE0
3CE0
00E0
00E0
00EC
007C
0038
0000
0000
ENDCHAR
STARTCHAR LtSmlHHookLhook
ENCODING 269
SWIDTH 448 0
DWIDTH 14 0
BBX 14 30 0 -7
BITMAP
0000
0000
0000
0000
0000
0F00
1F80
3B80
3800
3800
39E0
3BF0
3E78
3C38
3838
3838
3838
3838
3838
3838
3838
3838
3838
0038
0038
0638
07F0
03E0
0000
0000
ENDCHAR
STARTCHAR LtSmlHTrndHookLhook
ENCODING 270
SWIDTH 448 0
DWIDTH 14 0
BBX 14 30 0 -7
BITMAP
0000
0000
0000
0000
0000
0000
0000
0000
0000
0000
70E0
F8E0
DCE0
1CE0
1CE0
1CE0
1CE0
1CE0
1CE0
1CE0
1DE0
0FE0
06E0
00E0
00E0
00EC
007C
0038
0000
0000
ENDCHAR
STARTCHAR LtCapNLongleg
ENCODING 271
SWIDTH 448 0
DWIDTH 14 0
BBX 14 30 0 -7
BITMAP
0000
0000
0000
0000
0000
0000
39E0
3BF0
3E78
3C38
3838
3838
3838
3838
3838
3838
3838
3838
3838
3838
3838
3838
3838
0038
0038
0038
0038
0038
0000
0000
ENDCHAR
STARTCHAR LtSmlNLongleg
ENCODING 272
SWIDTH 448 0
DWIDTH 14 0
BBX 14 30 0 -7
BITMAP
0000
0000
0000
0000
0000
0000
0000
0000
0000
0000
39E0
3BF0
3E78
3C38
3838
3838
3838
3838
3838
3838
3838
3838
3838
0038
0038
0038
0038
0038
0000
0000
ENDCHAR
STARTCHAR LtSmlRLongleg
ENCODING 273
SWIDTH 448 0
DWIDTH 14 0
BBX 14 30 0 -7
BITMAP
0000
0000
0000
0000
0000
0000
0000
0000
0000
0000
3CF0
3DF8
1FB8
1F18
1E00
1C00
1C00
1C00
1C00
1C00
1C00
1C00
1C00
1C00
1C00
1C00
1C00
1C00
0000
0000
ENDCHAR
STARTCHAR LtSmlMTrndLongleg
ENCODING 274
SWIDTH 448 0
DWIDTH 14 0
BBX 14 30 0 -7
BITMAP
0000
0000
0000
0000
0000
0000
0000
0000
0000
0000
739C
739C
739C
739C
739C
739C
739C
739C
739C
77BC
7FFC
3DFC
18DC
001C
001C
001C
001C
001C
0000
0000
ENDCHAR
STARTCHAR LtSmlRTrndLongleg
ENCODING 275
SWIDTH 448 0
DWIDTH 14 0
BBX 14 30 0 -7
BITMAP
0000
0000
0000
0000
0000
0070
0070
0070
0070
0070
0070
0070
0070
0070
0070
0070
0070
0070
00F0
31F0
3BF0
3F78
1E78
0000
0000
0000
0000
0000
0000
0000
ENDCHAR
STARTCHAR LtSmlSSwash
ENCODING 276
SWIDTH 448 0
DWIDTH 14 0
BBX 14 30 0 -7
BITMAP
0000
0000
0000
0000
0000
0000
0000
0000
0000
0000
0FF0
1FF8
3838
3800
3C00
1F80
0FE0
03F0
0078
0038
3838
3FF0
1FE0
0700
0380
01DC
00FC
0078
0000
0000
ENDCHAR
STARTCHAR LtSmlZSwash
ENCODING 277
SWIDTH 448 0
DWIDTH 14 0
BBX 14 30 0 -7
BITMAP
0000
0000
0000
0000
0000
0000
0000
0000
0000
0000
3FF8
3FF8
0070
00E0
01E0
03C0
0380
0780
0F00
0E00
1C00
3E00
3F00
0780
03C0
01DC
00FC
0078
0000
0000
ENDCHAR
STARTCHAR LtCapJCurl
ENCODING 278
SWIDTH 448 0
DWIDTH 14 0
BBX 14 30 0 -7
BITMAP
0000
0000
0000
0000
0000
0000
00F8
00F8
0070
0070
0070
0070
0070
0070
0070
0070
0E70
1F70
39F0
39E0
39F0
1FB8
0F18
0000
0000
0000
0000
0000
0000
0000
ENDCHAR
STARTCHAR LtSmlCCurl
ENCODING 279
SWIDTH 448 0
DWIDTH 14 0
BBX 14 30 0 -7
BITMAP
0000
0000
0000
0000
0000
0000
0000
0000
0000
0000
07F0
0FF8
1E38
1C18
3800
3800
3800
3800
3870
1CF8
1ED8
0FF8
07F0
01C0
0000
0000
0000
0000
0000
0000
ENDCHAR
STARTCHAR LtSmlDCurl
ENCODING 280
SWIDTH 448 0
DWIDTH 14 0
BBX 14 30 0 -7
BITMAP
0000
0000
0000
0000
0000
00E0
00E0
00E0
00E0
00E0
0EE0
3FE0
39E0
70E0
70E0
70E0
70E0
70E0
70F8
70FC
39E4
3FFC
0E78
00C0
0000
0000
0000
0000
0000
0000
ENDCHAR
STARTCHAR LtSmlJCurl
ENCODING 281
SWIDTH 448 0
DWIDTH 14 0
BBX 14 30 0 -7
BITMAP
0000
0000
0000
0000
0000
01C0
01C0
01C0
0000
0000
0FC0
0FC0
01C0
01C0
01C0
01C0
01C0
01C0
01C0
01C0
01C0
1FF0
3FF0
79C0
71C0
7BC0
3F80
1F00
0000
0000
ENDCHAR
STARTCHAR LtSmlLCurl
ENCODING 282
SWIDTH 448 0
DWIDTH 14 0
BBX 14 30 0 -7
BITMAP
0000
0000
0000
0000
0000
3E00
3E00
0E00
0E00
0E00
0E00
0E00
0E00
0E00
0E00
0E00
0E00
0E00
0E78
0EFC
0FCC
3FFC
3FF8
0180
0000
0000
0000
0000
0000
0000
ENDCHAR
STARTCHAR LtSmlNCurl
ENCODING 283
SWIDTH 448 0
DWIDTH 14 0
BBX 14 30 0 -7
BITMAP
0000
0000
0000
0000
0000
0000
0000
0000
0000
0000
7300
7780
7DC0
79C0
71C0
71C0
71C0
71C0
71D8
71FC
71E4
71FC
70F8
0060
0000
0000
0000
0000
0000
0000
ENDCHAR
STARTCHAR LtSmlTCurl
ENCODING 284
SWIDTH 448 0
DWIDTH 14 0
BBX 14 30 0 -7
BITMAP
0000
0000
0000
0000
0000
0000
0200
0600
0E00
0E00
7FE0
7FE0
0E00
0E00
0E00
0E00
0E00
0E00
0E78
0EFC
0FCC
07FC
03F8
0180
0000
0000
0000
0000
0000
0000
ENDCHAR
STARTCHAR LtSmlZCurl
ENCODING 285
SWIDTH 448 0
DWIDTH 14 0
BBX 14 30 0 -7
BITMAP
0000
0000
0000
0000
0000
0000
0000
0000
0000
0000
3FF8
3FF8
0070
00E0
01E0
03C0
0380
0780
0E70
0EF8
1CC8
3FF8
3FF0
0180
0000
0000
0000
0000
0000
0000
ENDCHAR
STARTCHAR LtSmlEshCurl
ENCODING 286
SWIDTH 448 0
DWIDTH 14 0
BBX 14 30 0 -7
BITMAP
0000
0000
0000
0000
0000
00F8
01FC
038C
0380
0380
0380
0380
0380
0380
0380
0380
0380
0380
0380
0380
0380
0380
1FF0
3FF8
73B8
7398
7F00
3E00
0000
0000
ENDCHAR
STARTCHAR LtSmlEzhCurl
ENCODING 287
SWIDTH 448 0
DWIDTH 14 0
BBX 14 30 0 -7
BITMAP
0000
0000
0000
0000
0000
0000
0000
0000
0000
0000
3FF8
3FF8
0070
00E0
01E0
01C0
0380
07C0
07F0
0070
0038
0038
0F38
1FB8
39F0
39F0
1FBC
0F1C
0000
0000
ENDCHAR
STARTCHAR LtSmlDZCurl
ENCODING 288
SWIDTH 448 0
DWIDTH 14 0
BBX 14 30 0 -7
BITMAP
0000
0000
0000
0000
0000
0700
0700
0700
0700
0700
1FFC
3FFC
771C
7738
7738
7730
7770
7760
776C
77DC
77D4
3FFC
1FF8
0030
0030
0000
0000
0000
0000
0000
ENDCHAR
STARTCHAR LtSmlTCCurl
ENCODING 289
SWIDTH 448 0
DWIDTH 14 0
BBX 14 30 0 -7
BITMAP
0000
0000
0000
0000
0000
0000
0800
1800
3800
3800
7E78
7EFC
39DC
39C0
39C0
39C0
39C0
39C0
39D8
39DC
39EC
1EFC
0E78
0060
0060
0000
0000
0000
0000
0000
ENDCHAR
STARTCHAR LtSmlEshRevLoop
ENCODING 290
SWIDTH 448 0
DWIDTH 14 0
BBX 14 30 0 -7
BITMAP
0000
0000
0000
0000
0000
1F00
3F80
3B80
3B80
3F80
1F80
0380
0380
0380
0380
0380
0380
0380
0380
0380
0380
0380
0380
0380
0380
039C
01FC
00F8
0000
0000
ENDCHAR
STARTCHAR LtCapAStroke
ENCODING 291
SWIDTH 448 0
DWIDTH 14 0
BBX 14 30 0 -7
BITMAP
0000
0000
0000
0000
0000
0030
03B0
03B0
07E0
07E0
06E0
0EE0
0EE0
0CE0
1DF0
1DF0
1FF0
3FF8
3B38
3B38
761C
761C
761C
0C00
0000
0000
0000
0000
0000
0000
ENDCHAR
STARTCHAR LtCapBStroke
ENCODING 292
SWIDTH 448 0
DWIDTH 14 0
BBX 14 30 0 -7
BITMAP
0000
0000
0000
0000
0000
0000
3FC0
3FF0
3870
3838
3838
3838
3870
3FE0
3FE0
3870
3838
7F38
7F38
3838
3870
3FF0
3FC0
0000
0000
0000
0000
0000
0000
0000
ENDCHAR
STARTCHAR LtCapBStrokeAlt
ENCODING 293
SWIDTH 448 0
DWIDTH 14 0
BBX 14 30 0 -7
BITMAP
0000
0000
0000
0000
0000
0000
3FC0
3FF0
3870
3838
3838
3838
3870
3FE0
3FE0
3870
3838
7FFC
7FFC
3818
3838
3FF0
3FE0
0000
0000
0000
0000
0000
0000
0000
ENDCHAR
STARTCHAR LtCapCStroke
ENCODING 294
SWIDTH 448 0
DWIDTH 14 0
BBX 14 30 0 -7
BITMAP
0000
0000
0000
0000
0000
0030
03F0
0FF8
1E78
1C78
3860
38C0
38C0
38C0
3980
3980
3980
3B00
3B00
1F18
1E38
0FF8
0FF0
0C00
0000
0000
0000
0000
0000
0000
ENDCHAR
STARTCHAR LtCapDStroke
ENCODING 295
SWIDTH 448 0
DWIDTH 14 0
BBX 14 30 0 -7
BITMAP
0000
0000
0000
0000
0000
0000
3F80
3FE0
38F0
3870
3838
3838
3838
7F38
7F38
3838
3838
3838
3838
3870
38F0
3FE0
3F80
0000
0000
0000
0000
0000
0000
0000
ENDCHAR
STARTCHAR LtCapDStrokeAlt
ENCODING 296
SWIDTH 448 0
DWIDTH 14 0
BBX 14 30 0 -7
BITMAP
0000
0000
0000
0000
0000
0000
3F80
3FE0
38F0
3870
3838
3838
3838
7FFC
7FFC
3838
3838
3838
3838
3870
38F0
3FE0
3F80
0000
0000
0000
0000
0000
0000
0000
ENDCHAR
STARTCHAR LtCapEStroke
ENCODING 297
SWIDTH 448 0
DWIDTH 14 0
BBX 14 30 0 -7
BITMAP
0000
0000
0000
0000
0000
0030
3FF8
3FF8
3860
3860
3860
38C0
38C0
3FE0
3FE0
3980
3980
3B00
3B00
3B00
3E00
3FF8
3FF8
0C00
0000
0000
0000
0000
0000
0000
ENDCHAR
STARTCHAR LtCapGStroke
ENCODING 298
SWIDTH 448 0
DWIDTH 14 0
BBX 14 30 0 -7
BITMAP
0000
0000
0000
0000
0000
0000
03F0
0FF8
1E38
1C18
3800
3800
3800
3800
39F8
39F8
3838
39FC
39FC
1C38
1E38
0FF8
03F8
0000
0000
0000
0000
0000
0000
0000
ENDCHAR
STARTCHAR LtCapGStrokeAlt
ENCODING 299
SWIDTH 448 0
DWIDTH 14 0
BBX 14 30 0 -7
BITMAP
0000
0000
0000
0000
0000
0000
03F0
0FF8
1E38
1C18
3800
3800
3800
3800
39F8
39F8
3838
7FFC
7FFC
1C38
1E38
0FF8
03F8
0000
0000
0000
0000
0000
0000
0000
ENDCHAR
STARTCHAR LtCapHStroke
ENCODING 300
SWIDTH 448 0
DWIDTH 14 0
BBX 14 30 0 -7
BITMAP
0000
0000
0000
0000
0000
0000
3838
3838
3838
7FFC
7FFC
3838
3838
3FF8
3FF8
3838
3838
3838
3838
3838
3838
3838
3838
0000
0000
0000
0000
0000
0000
0000
ENDCHAR
STARTCHAR LtCapIStroke
ENCODING 301
SWIDTH 448 0
DWIDTH 14 0
BBX 14 30 0 -7
BITMAP
0000
0000
0000
0000
0000
0000
1FF0
1FF0
0380
0380
0380
0380
0380
0FE0
0FE0
0380
0380
0380
0380
0380
0380
1FF0
1FF0
0000
0000
0000
0000
0000
0000
0000
ENDCHAR
STARTCHAR LtCapJStroke
ENCODING 302
SWIDTH 448 0
DWIDTH 14 0
BBX 14 30 0 -7
BITMAP
0000
0000
0000
0000
0000
0000
00F8
00F8
0070
0070
0070
0070
0070
03FC
03FC
0070
0070
3870
3870
3870
1CE0
1FE0
0780
0000
0000
0000
0000
0000
0000
0000
ENDCHAR
STARTCHAR LtCapLStroke
ENCODING 303
SWIDTH 448 0
DWIDTH 14 0
BBX 14 30 0 -7
BITMAP
0000
0000
0000
0000
0000
0000
1C00
1C00
1C00
1C00
1C00
1C00
1D80
1F80
3F00
7C00
7C00
1C00
1C00
1C00
1C00
1FF8
1FF8
0000
0000
0000
0000
0000
0000
0000
ENDCHAR
STARTCHAR LtCapLStrokeH
ENCODING 304
SWIDTH 448 0
DWIDTH 14 0
BBX 14 30 0 -7
BITMAP
0000
0000
0000
0000
0000
0000
3800
3800
3800
3800
3800
3800
3800
7F80
7F80
3800
3800
3800
3800
3800
3800
3FF8
3FF8
0000
0000
0000
0000
0000
0000
0000
ENDCHAR
STARTCHAR LtCapLStrokeH2
ENCODING 305
SWIDTH 448 0
DWIDTH 14 0
BBX 14 30 0 -7
BITMAP
0000
0000
0000
0000
0000
0000
3800
3800
3800
3800
3800
7F00
7F00
3800
3800
7F00
7F00
3800
3800
3800
3800
3FF8
3FF8
0000
0000
0000
0000
0000
0000
0000
ENDCHAR
STARTCHAR LtCapOStroke
ENCODING 306
SWIDTH 448 0
DWIDTH 14 0
BBX 14 30 0 -7
BITMAP
0000
0000
0000
0000
0000
0018
0798
1FF0
3CF0
3870
70F8
70F8
71B8
73B8
7338
7738
7638
7C38
7C38
3870
3CF0
3FE0
6780
6000
0000
0000
0000
0000
0000
0000
ENDCHAR
STARTCHAR LtCapOStrokeH
ENCODING 307
SWIDTH 448 0
DWIDTH 14 0
BBX 14 30 0 -7
BITMAP
0000
0000
0000
0000
0000
0000
0780
1FE0
3CF0
3870
7038
7038
7038
7FF8
7FF8
7038
7038
7038
7038
3870
3CF0
1FE0
0780
0000
0000
0000
0000
0000
0000
0000
ENDCHAR
STARTCHAR LtCapPStroke
ENCODING 308
SWIDTH 448 0
DWIDTH 14 0
BBX 14 30 0 -7
BITMAP
0000
0000
0000
0000
0000
0000
3F80
3FE0
38E0
3870
7FFC
7FFC
3870
38E0
3FE0
3F80
3800
3800
3800
3800
3800
3800
3800
0000
0000
0000
0000
0000
0000
0000
ENDCHAR
STARTCHAR LtCapRStroke
ENCODING 309
SWIDTH 448 0
DWIDTH 14 0
BBX 14 30 0 -7
BITMAP
0000
0000
0000
0000
0000
0000
3FC0
3FF0
3870
3838
3838
3838
3870
7FFC
7FFC
3980
39C0
38E0
38E0
3870
3838
3838
381C
0000
0000
0000
0000
0000
0000
0000
ENDCHAR
STARTCHAR LtCapSStrokeD
ENCODING 310
SWIDTH 448 0
DWIDTH 14 0
BBX 14 30 0 -7
BITMAP
0000
0000
0000
0000
0000
0030
0FF0
1FF8
3C78
3878
38C0
3CC0
1F80
0F80
07C0
03E0
03F0
0678
0638
3C38
3C78
3FF0
1FE0
1800
0000
0000
0000
0000
0000
0000
ENDCHAR
STARTCHAR LtCapTStroke
ENCODING 311
SWIDTH 448 0
DWIDTH 14 0
BBX 14 30 0 -7
BITMAP
0000
0000
0000
0000
0000
0000
7FFC
7FFC
0380
0380
0380
0380
0380
0380
0FE0
0FE0
0380
0380
0380
0380
0380
0380
0380
0000
0000
0000
0000
0000
0000
0000
ENDCHAR
STARTCHAR LtCapTStrokeD
ENCODING 312
SWIDTH 448 0
DWIDTH 14 0
BBX 14 30 0 -7
BITMAP
0000
0000
0000
0000
0000
0004
7FFC
7FFC
03B8
03B0
03E0
03C0
03C0
0380
0380
0380
0780
0F80
0F80
1B80
3380
7380
6380
4000
0000
0000
0000
0000
0000
0000
ENDCHAR
STARTCHAR LtCapUStroke
ENCODING 313
SWIDTH 448 0
DWIDTH 14 0
BBX 14 30 0 -7
BITMAP
0000
0000
0000
0000
0000
0000
3838
3838
3838
3838
3838
3838
7FFC
7FFC
3838
3838
3838
3838
3838
3838
1C70
1FF0
07C0
0000
0000
0000
0000
0000
0000
0000
ENDCHAR
STARTCHAR LtCapUStrokeD
ENCODING 314
SWIDTH 448 0
DWIDTH 14 0
BBX 14 30 0 -7
BITMAP
0000
0000
0000
0000
0000
0000
3838
3838
3878
3878
38F8
38F8
39B8
39B8
39B8
3B38
3B38
3E38
3E38
3E38
1C70
1FF0
37C0
3000
0000
0000
0000
0000
0000
0000
ENDCHAR
STARTCHAR LtCapYStroke
ENCODING 315
SWIDTH 448 0
DWIDTH 14 0
BBX 14 30 0 -7
BITMAP
0000
0000
0000
0000
0000
0000
701C
3838
3838
1C70
7FFC
7FFC
0EE0
07C0
07C0
0380
0380
0380
0380
0380
0380
0380
0380
0000
0000
0000
0000
0000
0000
0000
ENDCHAR
STARTCHAR LtCapZStroke
ENCODING 316
SWIDTH 448 0
DWIDTH 14 0
BBX 14 30 0 -7
BITMAP
0000
0000
0000
0000
0000
0000
3FF8
3FF8
0078
0070
00F0
00E0
01C0
1FF0
1FF0
0700
0700
0E00
1E00
1C00
3C00
3FF8
3FF8
0000
0000
0000
0000
0000
0000
0000
ENDCHAR
STARTCHAR LtCapLamStroke
ENCODING 317
SWIDTH 448 0
DWIDTH 14 0
BBX 14 30 0 -7
BITMAP
0000
0000
0000
0000
0000
0000
0380
0380
0380
03B0
03F0
0FE0
1F80
1B80
07C0
07C0
0EE0
0EE0
1C70
1C70
3838
3838
701C
0000
0000
0000
0000
0000
0000
0000
ENDCHAR
STARTCHAR LtSmlAStroke
ENCODING 318
SWIDTH 448 0
DWIDTH 14 0
BBX 14 30 0 -7
BITMAP
0000
0000
0000
0000
0000
0000
0000
0000
0000
0060
0FE0
1FF0
1CF8
00F8
01B8
07F8
1FF8
3F38
3B38
3E38
3E78
1FF8
0FB8
0C00
0000
0000
0000
0000
0000
0000
ENDCHAR
STARTCHAR LtSmlBStroke
ENCODING 319
SWIDTH 448 0
DWIDTH 14 0
BBX 14 30 0 -7
BITMAP
0000
0000
0000
0000
0000
3800
3800
7F00
7F00
3800
3BC0
3FF0
3C70
3838
3838
3838
3838
3838
3838
3838
3C70
3FF0
3BC0
0000
0000
0000
0000
0000
0000
0000
ENDCHAR
STARTCHAR LtSmlBStrokeAlt
ENCODING 320
SWIDTH 448 0
DWIDTH 14 0
BBX 14 30 0 -7
BITMAP
0000
0000
0000
0000
0000
3800
3800
3800
3800
3800
3BC0
3FF0
3C70
3838
3838
7FFC
7FFC
3838
3838
3838
3C70
3FF0
3BC0
0000
0000
0000
0000
0000
0000
0000
ENDCHAR
STARTCHAR LtSmlCStroke
ENCODING 321
SWIDTH 448 0
DWIDTH 14 0
BBX 14 30 0 -7
BITMAP
0000
0000
0000
0000
0000
0000
0000
0000
0000
0030
07F0
0FF8
1E78
1CD8
38C0
38C0
3980
3980
3B00
1B18
1E38
0FF8
0FF0
0C00
0000
0000
0000
0000
0000
0000
ENDCHAR
STARTCHAR LtSmlDStroke
ENCODING 322
SWIDTH 448 0
DWIDTH 14 0
BBX 14 30 0 -7
BITMAP
0000
0000
0000
0000
0000
0038
0038
01FC
01FC
0038
07B8
1FF8
1C78
3838
3838
3838
3838
3838
3838
3838
1C78
1FF8
07B8
0000
0000
0000
0000
0000
0000
0000
ENDCHAR
STARTCHAR LtSmlDStrokeAlt
ENCODING 323
SWIDTH 448 0
DWIDTH 14 0
BBX 14 30 0 -7
BITMAP
0000
0000
0000
0000
0000
0038
0038
0038
0038
0038
07B8
1FF8
1C78
3838
3838
7FFC
7FFC
3838
3838
3838
1C78
1FF8
07B8
0000
0000
0000
0000
0000
0000
0000
ENDCHAR
STARTCHAR LtSmlEStroke
ENCODING 324
SWIDTH 448 0
DWIDTH 14 0
BBX 14 30 0 -7
BITMAP
0000
0000
0000
0000
0000
0000
0000
0000
0000
0060
07E0
1FF0
1CF0
38F8
39B8
3FF8
3FF8
3980
3B00
3B00
1F38
1FF0
07E0
0C00
0000
0000
0000
0000
0000
0000
ENDCHAR
STARTCHAR LtSmlGStroke
ENCODING 325
SWIDTH 448 0
DWIDTH 14 0
BBX 14 30 0 -7
BITMAP
0000
0000
0000
0000
0000
0000
0000
0000
0000
0000
0FCC
1FFC
3878
3870
3870
3870
1FE0
0FC0
1C00
1C00
1FE0
0FF0
1C38
39FC
39FC
3838
1FF0
0FE0
0000
0000
ENDCHAR
STARTCHAR LtSmlGStrokeAlt
ENCODING 326
SWIDTH 448 0
DWIDTH 14 0
BBX 14 30 0 -7
BITMAP
0000
0000
0000
0000
0000
0000
0000
0000
0000
0000
0FCC
1FFC
1860
7FF8
7FF8
1860
1FE0
0FC0
1C00
1C00
1FF0
0FF8
1FFC
381C
381C
381C
1FF8
0FF0
0000
0000
ENDCHAR
STARTCHAR LtSmlHStroke
ENCODING 327
SWIDTH 448 0
DWIDTH 14 0
BBX 14 30 0 -7
BITMAP
0000
0000
0000
0000
0000
3800
3800
7F00
7F00
3800
39E0
3BF0
3E78
3C38
3838
3838
3838
3838
3838
3838
3838
3838
3838
0000
0000
0000
0000
0000
0000
0000
ENDCHAR
STARTCHAR LtSmlIStroke
ENCODING 328
SWIDTH 448 0
DWIDTH 14 0
BBX 14 30 0 -7
BITMAP
0000
0000
0000
0000
0000
0380
0380
0380
0000
0000
1F80
1F80
0380
0380
0380
1FF0
1FF0
0380
0380
0380
0380
3FF8
3FF8
0000
0000
0000
0000
0000
0000
0000
ENDCHAR
STARTCHAR LtSmlJStroke
ENCODING 329
SWIDTH 448 0
DWIDTH 14 0
BBX 14 30 0 -7
BITMAP
0000
0000
0000
0000
0000
01C0
01C0
01C0
0000
0000
0FC0
0FC0
01C0
01C0
01C0
0FF0
0FF0
01C0
01C0
01C0
01C0
01C0
01C0
01C0
01C0
63C0
7F80
3F00
0000
0000
ENDCHAR
STARTCHAR LtSmlLStroke
ENCODING 330
SWIDTH 448 0
DWIDTH 14 0
BBX 14 30 0 -7
BITMAP
0000
0000
0000
0000
0000
1F80
1F80
0380
0380
0380
03A0
03E0
03E0
03C0
0780
0F80
0F80
0B80
0380
0380
0380
3FF8
3FF8
0000
0000
0000
0000
0000
0000
0000
ENDCHAR
STARTCHAR LtSmlLStrokeH
ENCODING 331
SWIDTH 448 0
DWIDTH 14 0
BBX 14 30 0 -7
BITMAP
0000
0000
0000
0000
0000
1F80
1F80
0380
0380
0380
0380
0380
1FF0
1FF0
0380
0380
0380
0380
0380
0380
0380
3FF8
3FF8
0000
0000
0000
0000
0000
0000
0000
ENDCHAR
STARTCHAR LtSmlLStrokeH2
ENCODING 332
SWIDTH 448 0
DWIDTH 14 0
BBX 14 30 0 -7
BITMAP
0000
0000
0000
0000
0000
1F80
1F80
0380
0380
0380
0380
0FE0
0FE0
0380
0380
0FE0
0FE0
0380
0380
0380
0380
3FF8
3FF8
0000
0000
0000
0000
0000
0000
0000
ENDCHAR
STARTCHAR LtSmlOStroke
ENCODING 333
SWIDTH 448 0
DWIDTH 14 0
BBX 14 30 0 -7
BITMAP
0000
0000
0000
0000
0000
0000
0000
0000
0000
0030
07F0
1FF0
1CF0
38F8
39B8
39B8
3BB8
3B38
3B38
3E38
1E70
1FF0
1FC0
1800
0000
0000
0000
0000
0000
0000
ENDCHAR
STARTCHAR LtSmlOStrokeH
ENCODING 334
SWIDTH 448 0
DWIDTH 14 0
BBX 14 30 0 -7
BITMAP
0000
0000
0000
0000
0000
0000
0000
0000
0000
0000
07C0
1FF0
1C70
3838
3838
3FF8
3FF8
3838
3838
3838
1C70
1FF0
07C0
0000
0000
0000
0000
0000
0000
0000
ENDCHAR
STARTCHAR LtSmlPStroke
ENCODING 335
SWIDTH 448 0
DWIDTH 14 0
BBX 14 30 0 -7
BITMAP
0000
0000
0000
0000
0000
0000
0000
0000
0000
0000
3BC0
3FF0
3C70
3838
3838
7FFC
7FFC
3838
3838
3838
3C70
3FF0
3BC0
3800
3800
3800
3800
3800
0000
0000
ENDCHAR
STARTCHAR LtSmlRStroke
ENCODING 336
SWIDTH 448 0
DWIDTH 14 0
BBX 14 30 0 -7
BITMAP
0000
0000
0000
0000
0000
0000
0000
0000
0000
0000
3CF0
3DF8
1FB8
1F18
1E00
1C00
3F80
3F80
1C00
1C00
1C00
1C00
1C00
0000
0000
0000
0000
0000
0000
0000
ENDCHAR
STARTCHAR LtSmlSStrokeD
ENCODING 337
SWIDTH 448 0
DWIDTH 14 0
BBX 14 30 0 -7
BITMAP
0000
0000
0000
0000
0000
0000
0000
0000
0000
0030
0FF0
1FF8
3878
38C0
3CC0
1F80
0FE0
03F0
0678
0638
3C38
3FF0
1FE0
1800
0000
0000
0000
0000
0000
0000
ENDCHAR
STARTCHAR LtSmlTStroke
ENCODING 338
SWIDTH 448 0
DWIDTH 14 0
BBX 14 30 0 -7
BITMAP
0000
0000
0000
0000
0000
0000
0100
0300
0700
0700
3FF0
3FF0
0700
0700
3FF0
3FF0
0700
0700
0700
0700
0718
03F8
01F0
0000
0000
0000
0000
0000
0000
0000
ENDCHAR
STARTCHAR LtSmlTStrokeD
ENCODING 339
SWIDTH 448 0
DWIDTH 14 0
BBX 14 30 0 -7
BITMAP
0000
0000
0000
0000
0000
0000
0130
0330
0760
0760
3FF0
3FF0
0780
0780
0700
0700
0700
0700
0F00
0F00
1F18
1BF8
31F0
3000
0000
0000
0000
0000
0000
0000
ENDCHAR
STARTCHAR LtSmlUStroke
ENCODING 340
SWIDTH 448 0
DWIDTH 14 0
BBX 14 30 0 -7
BITMAP
0000
0000
0000
0000
0000
0000
0000
0000
0000
0000
3838
3838
3838
3838
7FFC
7FFC
3838
3838
3838
3878
3CF8
1FB8
0F38
0000
0000
0000
0000
0000
0000
0000
ENDCHAR
STARTCHAR LtSmlUStrokeD
ENCODING 341
SWIDTH 448 0
DWIDTH 14 0
BBX 14 30 0 -7
BITMAP
0000
0000
0000
0000
0000
0000
0000
0000
0000
0000
3838
3878
3878
38F8
38F8
39B8
39B8
3B38
3B38
3E78
3CF8
1FB8
3F38
3000
0000
0000
0000
0000
0000
0000
ENDCHAR
STARTCHAR LtSmlYStroke
ENCODING 342
SWIDTH 448 0
DWIDTH 14 0
BBX 14 30 0 -7
BITMAP
0000
0000
0000
0000
0000
0000
0000
0000
0000
0000
3838
3838
3838
1C30
7FFC
7FFC
0E70
0E70
07E0
07E0
03E0
03C0
01C0
01C0
0380
7380
7F00
3E00
0000
0000
ENDCHAR
STARTCHAR LtSmlZStroke
ENCODING 343
SWIDTH 448 0
DWIDTH 14 0
BBX 14 30 0 -7
BITMAP
0000
0000
0000
0000
0000
0000
0000
0000
0000
0000
3FF8
3FF8
0070
00E0
01C0
1FF0
1FF0
0700
0F00
0E00
1C00
3FF8
3FF8
0000
0000
0000
0000
0000
0000
0000
ENDCHAR
STARTCHAR LtSmlLamStroke
ENCODING 344
SWIDTH 448 0
DWIDTH 14 0
BBX 14 30 0 -7
BITMAP
0000
0000
0000
0000
0000
0E00
0E60
07E0
07C0
0F80
1F80
1B80
03C0
07C0
07E0
0EE0
0EE0
0E70
1C70
1C70
3838
3838
3838
0000
0000
0000
0000
0000
0000
0000
ENDCHAR
STARTCHAR LtSmlTwoStroke
ENCODING 345
SWIDTH 448 0
DWIDTH 14 0
BBX 14 30 0 -7
BITMAP
0000
0000
0000
0000
0000
0FE0
1FF0
3C70
3838
3838
0038
0078
0070
00E0
0FF8
0FF8
0780
0F00
1E00
1C00
3800
3FF8
3FF8
0000
0000
0000
0000
0000
0000
0000
ENDCHAR
STARTCHAR LtSmlGlotStroke
ENCODING 346
SWIDTH 448 0
DWIDTH 14 0
BBX 14 30 0 -7
BITMAP
0000
0000
0000
0000
0000
0FE0
1FF0
3C78
3838
3838
0038
0078
00F0
01E0
01C0
0380
1FF0
1FF0
0380
0380
0380
0380
0380
0000
0000
0000
0000
0000
0000
0000
ENDCHAR
STARTCHAR LtSmlAinStroke
ENCODING 347
SWIDTH 448 0
DWIDTH 14 0
BBX 14 30 0 -7
BITMAP
0000
0000
0000
0000
0000
0FE0
1FF0
3C78
3838
3838
3800
3C00
1E00
0F00
0700
0380
1FF0
1FF0
0380
0380
0380
0380
0380
0000
0000
0000
0000
0000
0000
0000
ENDCHAR
STARTCHAR LtSmlPipeStroke2
ENCODING 348
SWIDTH 448 0
DWIDTH 14 0
BBX 14 30 0 -7
BITMAP
0000
0000
0000
0000
0000
0380
0380
0380
0380
0380
0380
0380
1FF0
1FF0
1FF0
0380
0380
1FF0
1FF0
1FF0
0380
0380
0380
0380
0380
0380
0380
0380
0000
0000
ENDCHAR
STARTCHAR LtSmlGlotInvStroke
ENCODING 349
SWIDTH 448 0
DWIDTH 14 0
BBX 14 30 0 -7
BITMAP
0000
0000
0000
0000
0000
0380
0380
0380
0380
0380
0FE0
0FE0
0380
01C0
01E0
00F0
0078
0038
3838
3838
3C78
1FF0
0FE0
0000
0000
0000
0000
0000
0000
0000
ENDCHAR
STARTCHAR LtCapLBelt
ENCODING 350
SWIDTH 448 0
DWIDTH 14 0
BBX 14 30 0 -7
BITMAP
0000
0000
0000
0000
0000
0000
0E00
0E00
0E00
0E00
0E00
0E00
3E00
7E00
6E60
7FE0
3FC0
0E00
0E00
0E00
0E00
0FFC
0FFC
0000
0000
0000
0000
0000
0000
0000
ENDCHAR
STARTCHAR LtSmlLBelt
ENCODING 351
SWIDTH 448 0
DWIDTH 14 0
BBX 14 30 0 -7
BITMAP
0000
0000
0000
0000
0000
1F80
1F80
0380
0380
0380
0380
1F80
3F80
3398
3FF8
1FF0
0380
0380
0380
0380
0380
3FF8
3FF8
0000
0000
0000
0000
0000
0000
0000
ENDCHAR
STARTCHAR LtSmlLLhookBelt
ENCODING 352
SWIDTH 448 0
DWIDTH 14 0
BBX 14 30 0 -7
BITMAP
0000
0000
0000
0000
0000
0F80
0F80
0380
0380
0380
0380
1F80
3F80
3398
3FF8
1FF0
0380
0380
0380
0380
0380
0380
0380
0380
039C
039C
01FC
00F8
0000
0000
ENDCHAR
STARTCHAR LtCapLMtilde
ENCODING 353
SWIDTH 448 0
DWIDTH 14 0
BBX 14 30 0 -7
BITMAP
0000
0000
0000
0000
0000
0000
0E00
0E00
0E00
0E00
0E00
0E00
3E40
7EC0
6FC0
4F80
0E00
0E00
0E00
0E00
0E00
0FFC
0FFC
0000
0000
0000
0000
0000
0000
0000
ENDCHAR
STARTCHAR LtSmlLMtilde
ENCODING 354
SWIDTH 448 0
DWIDTH 14 0
BBX 14 30 0 -7
BITMAP
0000
0000
0000
0000
0000
1F80
1F80
0380
0380
0380
0380
0F90
1FB0
1BF0
13E0
0380
0380
0380
0380
0380
0380
3FF8
3FF8
0000
0000
0000
0000
0000
0000
0000
ENDCHAR
STARTCHAR LtCapOHorn
ENCODING 355
SWIDTH 448 0
DWIDTH 14 0
BBX 14 30 0 -7
BITMAP
0000
0000
0000
0000
001C
001C
078C
1FFC
3CF8
3870
7038
7038
7038
7038
7038
7038
7038
7038
7038
3870
3CF0
1FE0
0780
0000
0000
0000
0000
0000
0000
0000
ENDCHAR
STARTCHAR LtCapUHorn
ENCODING 356
SWIDTH 448 0
DWIDTH 14 0
BBX 14 30 0 -7
BITMAP
0000
0000
0000
0000
001C
001C
70CC
70FC
70FC
70F8
70E0
70E0
70E0
70E0
70E0
70E0
70E0
70E0
70E0
70E0
39C0
3FC0
0F00
0000
0000
0000
0000
0000
0000
0000
ENDCHAR
STARTCHAR LtSmlOHorn
ENCODING 357
SWIDTH 448 0
DWIDTH 14 0
BBX 14 30 0 -7
BITMAP
0000
0000
0000
0000
0000
0000
0000
0000
001C
001C
0F8C
3FDC
38FC
7078
7070
7070
7070
7070
7070
7070
38E0
3FE0
0F80
0000
0000
0000
0000
0000
0000
0000
ENDCHAR
STARTCHAR LtSmlUHorn
ENCODING 358
SWIDTH 448 0
DWIDTH 14 0
BBX 14 30 0 -7
BITMAP
0000
0000
0000
0000
0000
0000
0000
0000
001C
001C
70CC
70FC
70FC
70F8
70E0
70E0
70E0
70E0
70E0
71E0
7BE0
3EE0
1CE0
0000
0000
0000
0000
0000
0000
0000
ENDCHAR
STARTCHAR LtCapADot
ENCODING 359
SWIDTH 448 0
DWIDTH 14 0
BBX 14 30 0 -7
BITMAP
0000
0380
0380
0380
0000
0000
0380
0380
07C0
07C0
06C0
0EE0
0EE0
0C60
1C70
1C70
1FF0
3FF8
3838
3838
701C
701C
701C
0000
0000
0000
0000
0000
0000
0000
ENDCHAR
STARTCHAR LtCapBDot
ENCODING 360
SWIDTH 448 0
DWIDTH 14 0
BBX 14 30 0 -7
BITMAP
0000
0380
0380
0380
0000
0000
3FC0
3FF0
3870
3838
3838
3838
3870
3FE0
3FE0
3870
3838
3838
3838
3838
3870
3FF0
3FC0
0000
0000
0000
0000
0000
0000
0000
ENDCHAR
STARTCHAR LtCapCDot
ENCODING 361
SWIDTH 448 0
DWIDTH 14 0
BBX 14 30 0 -7
BITMAP
0000
01C0
01C0
01C0
0000
0000
03F0
0FF8
1E38
1C18
3800
3800
3800
3800
3800
3800
3800
3800
3800
1C18
1E38
0FF8
03F0
0000
0000
0000
0000
0000
0000
0000
ENDCHAR
STARTCHAR LtCapDDot
ENCODING 362
SWIDTH 448 0
DWIDTH 14 0
BBX 14 30 0 -7
BITMAP
0000
0700
0700
0700
0000
0000
3F80
3FE0
38F0
3870
3838
3838
3838
3838
3838
3838
3838
3838
3838
3870
38F0
3FE0
3F80
0000
0000
0000
0000
0000
0000
0000
ENDCHAR
STARTCHAR LtCapEDot
ENCODING 363
SWIDTH 448 0
DWIDTH 14 0
BBX 14 30 0 -7
BITMAP
0000
0380
0380
0380
0000
0000
3FF8
3FF8
3800
3800
3800
3800
3800
3FE0
3FE0
3800
3800
3800
3800
3800
3800
3FF8
3FF8
0000
0000
0000
0000
0000
0000
0000
ENDCHAR
STARTCHAR LtCapFDot
ENCODING 364
SWIDTH 448 0
DWIDTH 14 0
BBX 14 30 0 -7
BITMAP
0000
01C0
01C0
01C0
0000
0000
1FFC
1FFC
1C00
1C00
1C00
1C00
1C00
1FF0
1FF0
1C00
1C00
1C00
1C00
1C00
1C00
1C00
1C00
0000
0000
0000
0000
0000
0000
0000
ENDCHAR
STARTCHAR LtCapGDot
ENCODING 365
SWIDTH 448 0
DWIDTH 14 0
BBX 14 30 0 -7
BITMAP
0000
01C0
01C0
01C0
0000
0000
03F0
0FF8
1E38
1C18
3800
3800
3800
3800
39F8
39F8
3838
3838
3838
1C38
1E38
0FF8
03F8
0000
0000
0000
0000
0000
0000
0000
ENDCHAR
STARTCHAR LtCapHDot
ENCODING 366
SWIDTH 448 0
DWIDTH 14 0
BBX 14 30 0 -7
BITMAP
0000
0380
0380
0380
0000
0000
3838
3838
3838
3838
3838
3838
3838
3FF8
3FF8
3838
3838
3838
3838
3838
3838
3838
3838
0000
0000
0000
0000
0000
0000
0000
ENDCHAR
STARTCHAR LtCapIDot
ENCODING 367
SWIDTH 448 0
DWIDTH 14 0
BBX 14 30 0 -7
BITMAP
0000
0380
0380
0380
0000
0000
1FF0
1FF0
0380
0380
0380
0380
0380
0380
0380
0380
0380
0380
0380
0380
0380
1FF0
1FF0
0000
0000
0000
0000
0000
0000
0000
ENDCHAR
STARTCHAR LtCapMDot
ENCODING 368
SWIDTH 448 0
DWIDTH 14 0
BBX 14 30 0 -7
BITMAP
0000
0380
0380
0380
0000
0000
701C
701C
783C
7C7C
7C7C
7EFC
77DC
77DC
739C
739C
711C
701C
701C
701C
701C
701C
701C
0000
0000
0000
0000
0000
0000
0000
ENDCHAR
STARTCHAR LtCapNDot
ENCODING 369
SWIDTH 448 0
DWIDTH 14 0
BBX 14 30 0 -7
BITMAP
0000
0380
0380
0380
0000
0000
3838
3838
3C38
3C38
3E38
3E38
3F38
3B38
3BB8
39B8
39F8
38F8
38F8
3878
3878
3838
3838
0000
0000
0000
0000
0000
0000
0000
ENDCHAR
STARTCHAR LtCapODot
ENCODING 370
SWIDTH 448 0
DWIDTH 14 0
BBX 14 30 0 -7
BITMAP
0000
0380
0380
0380
0000
0000
0780
1FE0
3CF0
3870
7038
7038
7038
7038
7038
7038
7038
7038
7038
3870
3CF0
1FE0
0780
0000
0000
0000
0000
0000
0000
0000
ENDCHAR
STARTCHAR LtCapPDot
ENCODING 371
SWIDTH 448 0
DWIDTH 14 0
BBX 14 30 0 -7
BITMAP
0000
0700
0700
0700
0000
0000
3FC0
3FF0
3870
3838
3838
3838
3838
3870
3FF0
3FC0
3800
3800
3800
3800
3800
3800
3800
0000
0000
0000
0000
0000
0000
0000
ENDCHAR
STARTCHAR LtCapQDot
ENCODING 372
SWIDTH 448 0
DWIDTH 14 0
BBX 14 30 0 -7
BITMAP
0000
0380
0380
0380
0000
0000
0780
1FE0
3CF0
3870
7038
7038
7038
7038
7038
7038
7038
7038
77B8
3FF0
3CF0
1FE0
07E0
0070
003C
001C
0000
0000
0000
0000
ENDCHAR
STARTCHAR LtCapRDot
ENCODING 373
SWIDTH 448 0
DWIDTH 14 0
BBX 14 30 0 -7
BITMAP
0000
0700
0700
0700
0000
0000
3FC0
3FF0
3870
3838
3838
3838
3870
3FF0
3FC0
3980
39C0
38E0
38E0
3870
3838
3838
381C
0000
0000
0000
0000
0000
0000
0000
ENDCHAR
STARTCHAR LtCapSDot
ENCODING 374
SWIDTH 448 0
DWIDTH 14 0
BBX 14 30 0 -7
BITMAP
0000
0380
0380
0380
0000
0000
0FF0
1FF8
3C38
3818
3800
3C00
1E00
0F00
07C0
01E0
00F0
0078
0038
3038
3878
3FF0
1FE0
0000
0000
0000
0000
0000
0000
0000
ENDCHAR
STARTCHAR LtCapTDot
ENCODING 375
SWIDTH 448 0
DWIDTH 14 0
BBX 14 30 0 -7
BITMAP
0000
0380
0380
0380
0000
0000
7FFC
7FFC
0380
0380
0380
0380
0380
0380
0380
0380
0380
0380
0380
0380
0380
0380
0380
0000
0000
0000
0000
0000
0000
0000
ENDCHAR
STARTCHAR LtCapWDot
ENCODING 376
SWIDTH 448 0
DWIDTH 14 0
BBX 14 30 0 -7
BITMAP
0000
0380
0380
0380
0000
0000
701C
701C
701C
701C
701C
711C
3938
3BB8
3BB8
3BB8
3BB8
1EF0
1EF0
1EF0
1C70
1C70
1C70
0000
0000
0000
0000
0000
0000
0000
ENDCHAR
STARTCHAR LtCapXDot
ENCODING 377
SWIDTH 448 0
DWIDTH 14 0
BBX 14 30 0 -7
BITMAP
0000
0380
0380
0380
0000
0000
3838
3838
1C70
1C70
0EE0
0EE0
07C0
07C0
0380
07C0
07C0
0EE0
0EE0
1C70
1C70
3838
3838
0000
0000
0000
0000
0000
0000
0000
ENDCHAR
STARTCHAR LtCapYDot
ENCODING 378
SWIDTH 448 0
DWIDTH 14 0
BBX 14 30 0 -7
BITMAP
0000
0380
0380
0380
0000
0000
701C
3838
3838
1C70
1C70
0EE0
0EE0
07C0
07C0
0380
0380
0380
0380
0380
0380
0380
0380
0000
0000
0000
0000
0000
0000
0000
ENDCHAR
STARTCHAR LtCapZDot
ENCODING 379
SWIDTH 448 0
DWIDTH 14 0
BBX 14 30 0 -7
BITMAP
0000
0380
0380
0380
0000
0000
3FF8
3FF8
0078
0070
00F0
00E0
01C0
03C0
0380
0780
0700
0E00
1E00
1C00
3C00
3FF8
3FF8
0000
0000
0000
0000
0000
0000
0000
ENDCHAR
STARTCHAR LtSmlADot
ENCODING 380
SWIDTH 448 0
DWIDTH 14 0
BBX 14 30 0 -7
BITMAP
0000
0000
0000
0000
0000
0380
0380
0380
0000
0000
0FE0
1FF0
1C38
0038
0038
07F8
1FF8
3C38
3838
3838
3878
1FF8
0FB8
0000
0000
0000
0000
0000
0000
0000
ENDCHAR
STARTCHAR LtSmlBDot
ENCODING 381
SWIDTH 448 0
DWIDTH 14 0
BBX 14 30 0 -7
BITMAP
0000
0000
0380
0380
0380
3800
3800
3800
3800
3800
3BC0
3FF0
3C70
3838
3838
3838
3838
3838
3838
3838
3C70
3FF0
3BC0
0000
0000
0000
0000
0000
0000
0000
ENDCHAR
STARTCHAR LtSmlCDot
ENCODING 382
SWIDTH 448 0
DWIDTH 14 0
BBX 14 30 0 -7
BITMAP
0000
0000
0000
0000
0000
0380
0380
0380
0000
0000
07F0
0FF8
1E38
1C18
3800
3800
3800
3800
3800
1C18
1E38
0FF8
07F0
0000
0000
0000
0000
0000
0000
0000
ENDCHAR
STARTCHAR LtSmlDDot
ENCODING 383
SWIDTH 448 0
DWIDTH 14 0
BBX 14 30 0 -7
BITMAP
0000
0000
0380
0380
0380
0038
0038
0038
0038
0038
07B8
1FF8
1C78
3838
3838
3838
3838
3838
3838
3838
1C78
1FF8
07B8
0000
0000
0000
0000
0000
0000
0000
ENDCHAR
STARTCHAR LtSmlEDot
ENCODING 384
SWIDTH 448 0
DWIDTH 14 0
BBX 14 30 0 -7
BITMAP
0000
0000
0000
0000
0000
0380
0380
0380
0000
0000
07C0
1FF0
1C70
3838
3838
3FF8
3FF8
3800
3800
3800
1C38
1FF0
07E0
0000
0000
0000
0000
0000
0000
0000
ENDCHAR
STARTCHAR LtSmlFDot
ENCODING 385
SWIDTH 448 0
DWIDTH 14 0
BBX 14 30 0 -7
BITMAP
0000
00E0
00E0
00E0
0000
01F8
03FC
078C
0700
0700
0700
3FF0
3FF0
0700
0700
0700
0700
0700
0700
0700
0700
0700
0700
0000
0000
0000
0000
0000
0000
0000
ENDCHAR
STARTCHAR LtSmlGDot
ENCODING 386
SWIDTH 448 0
DWIDTH 14 0
BBX 14 30 0 -7
BITMAP
0000
0000
0000
0000
0000
0380
0380
0380
0000
0000
0FCC
1FFC
3878
3870
3870
3870
1FE0
0FC0
1C00
1C00
1FF0
0FF8
1FFC
381C
381C
381C
1FF8
0FF0
0000
0000
ENDCHAR
STARTCHAR LtSmlHDot
ENCODING 387
SWIDTH 448 0
DWIDTH 14 0
BBX 14 30 0 -7
BITMAP
0000
0000
0380
0380
0380
3800
3800
3800
3800
3800
39E0
3BF0
3E78
3C38
3838
3838
3838
3838
3838
3838
3838
3838
3838
0000
0000
0000
0000
0000
0000
0000
ENDCHAR
STARTCHAR LtSmlMDot
ENCODING 388
SWIDTH 448 0
DWIDTH 14 0
BBX 14 30 0 -7
BITMAP
0000
0000
0000
0000
0000
0380
0380
0380
0000
0000
6630
6F78
7FFC
7BDC
739C
739C
739C
739C
739C
739C
739C
739C
739C
0000
0000
0000
0000
0000
0000
0000
ENDCHAR
STARTCHAR LtSmlNDot
ENCODING 389
SWIDTH 448 0
DWIDTH 14 0
BBX 14 30 0 -7
BITMAP
0000
0000
0000
0000
0000
0380
0380
0380
0000
0000
39E0
3BF0
3E78
3C38
3838
3838
3838
3838
3838
3838
3838
3838
3838
0000
0000
0000
0000
0000
0000
0000
ENDCHAR
STARTCHAR LtSmlODot
ENCODING 390
SWIDTH 448 0
DWIDTH 14 0
BBX 14 30 0 -7
BITMAP
0000
0000
0000
0000
0000
0380
0380
0380
0000
0000
07C0
1FF0
1C70
3838
3838
3838
3838
3838
3838
3838
1C70
1FF0
07C0
0000
0000
0000
0000
0000
0000
0000
ENDCHAR
STARTCHAR LtSmlPDot
ENCODING 391
SWIDTH 448 0
DWIDTH 14 0
BBX 14 30 0 -7
BITMAP
0000
0000
0000
0000
0000
0380
0380
0380
0000
0000
3BC0
3FF0
3C70
3838
3838
3838
3838
3838
3838
3838
3C70
3FF0
3BC0
3800
3800
3800
3800
3800
0000
0000
ENDCHAR
STARTCHAR LtSmlQDot
ENCODING 392
SWIDTH 448 0
DWIDTH 14 0
BBX 14 30 0 -7
BITMAP
0000
0000
0000
0000
0000
0380
0380
0380
0000
0000
07B8
1FF8
1C78
3838
3838
3838
3838
3838
3838
3838
1C78
1FF8
07B8
0038
0038
0038
0038
0038
0000
0000
ENDCHAR
STARTCHAR LtSmlRDot
ENCODING 393
SWIDTH 448 0
DWIDTH 14 0
BBX 14 30 0 -7
BITMAP
0000
0000
0000
0000
0000
0380
0380
0380
0000
0000
3CF0
3DF8
1FB8
1F18
1E00
1C00
1C00
1C00
1C00
1C00
1C00
1C00
1C00
0000
0000
0000
0000
0000
0000
0000
ENDCHAR
STARTCHAR LtSmlSDot
ENCODING 394
SWIDTH 448 0
DWIDTH 14 0
BBX 14 30 0 -7
BITMAP
0000
0000
0000
0000
0000
0380
0380
0380
0000
0000
0FF0
1FF8
3838
3800
3C00
1F80
0FE0
03F0
0078
0038
3838
3FF0
1FE0
0000
0000
0000
0000
0000
0000
0000
ENDCHAR
STARTCHAR LtSmlTDot
ENCODING 395
SWIDTH 448 0
DWIDTH 14 0
BBX 14 30 0 -7
BITMAP
0000
0000
0700
0700
0700
0000
0100
0300
0700
0700
3FF0
3FF0
0700
0700
0700
0700
0700
0700
0700
0700
0718
03F8
01F0
0000
0000
0000
0000
0000
0000
0000
ENDCHAR
STARTCHAR LtSmlWDot
ENCODING 396
SWIDTH 448 0
DWIDTH 14 0
BBX 14 30 0 -7
BITMAP
0000
0000
0000
0000
0000
0380
0380
0380
0000
0000
701C
701C
701C
711C
711C
3BB8
3BB8
3BB8
3BB8
1EF0
1EF0
1C70
1C70
0000
0000
0000
0000
0000
0000
0000
ENDCHAR
STARTCHAR LtSmlXDot
ENCODING 397
SWIDTH 448 0
DWIDTH 14 0
BBX 14 30 0 -7
BITMAP
0000
0000
0000
0000
0000
0380
0380
0380
0000
0000
3838
3C78
1C70
0EE0
0EE0
07C0
0380
07C0
0EE0
0EE0
1C70
3C78
3838
0000
0000
0000
0000
0000
0000
0000
ENDCHAR
STARTCHAR LtSmlYDot
ENCODING 398
SWIDTH 448 0
DWIDTH 14 0
BBX 14 30 0 -7
BITMAP
0000
0000
0000
0000
0000
0380
0380
0380
0000
0000
3838
3838
3838
1C38
1C70
0E70
0E70
0E70
07E0
07E0
03E0
03C0
01C0
01C0
0380
7380
7F00
3E00
0000
0000
ENDCHAR
STARTCHAR LtSmlZDot
ENCODING 399
SWIDTH 448 0
DWIDTH 14 0
BBX 14 30 0 -7
BITMAP
0000
0000
0000
0000
0000
0380
0380
0380
0000
0000
3FF8
3FF8
0070
00E0
01E0
03C0
0380
0780
0F00
0E00
1C00
3FF8
3FF8
0000
0000
0000
0000
0000
0000
0000
ENDCHAR
STARTCHAR LtSmlSLongDot
ENCODING 400
SWIDTH 448 0
DWIDTH 14 0
BBX 14 30 0 -7
BITMAP
0000
00E0
00E0
00E0
0000
01F8
03FC
078C
0700
0700
0700
1F00
1F00
0700
0700
0700
0700
0700
0700
0700
0700
0700
0700
0000
0000
0000
0000
0000
0000
0000
ENDCHAR
STARTCHAR LtCapSAcuteDot
ENCODING 401
SWIDTH 448 0
DWIDTH 14 0
BBX 14 30 0 -7
BITMAP
0000
0C00
0DE0
01C0
0380
0300
0000
0FF0
1FF8
3C38
3818
3800
3C00
1F00
0FC0
03E0
00F0
0078
0038
3038
3878
3FF0
1FE0
0000
0000
0000
0000
0000
0000
0000
ENDCHAR
STARTCHAR LtSmlSAcuteDot
ENCODING 402
SWIDTH 448 0
DWIDTH 14 0
BBX 14 30 0 -7
BITMAP
0000
0700
0700
0700
00F0
01E0
01C0
0380
0300
0000
0FF0
1FF8
3838
3800
3C00
1F80
0FE0
03F0
0078
0038
3838
3FF0
1FE0
0000
0000
0000
0000
0000
0000
0000
ENDCHAR
STARTCHAR LtCapSCaronDot
ENCODING 403
SWIDTH 448 0
DWIDTH 14 0
BBX 14 30 0 -7
BITMAP
0000
0180
0180
0E70
07E0
03C0
0000
0FF0
1FF8
3C38
3818
3800
3C00
1F00
0FC0
03E0
00F0
0078
0038
3038
3878
3FF0
1FE0
0000
0000
0000
0000
0000
0000
0000
ENDCHAR
STARTCHAR LtSmlSCaronDot
ENCODING 404
SWIDTH 448 0
DWIDTH 14 0
BBX 14 30 0 -7
BITMAP
0000
0380
0380
0380
0000
0C60
0EE0
07C0
0380
0000
0FF0
1FF8
3838
3800
3C00
1F80
0FE0
03F0
0078
0038
3838
3FF0
1FE0
0000
0000
0000
0000
0000
0000
0000
ENDCHAR
STARTCHAR LtSmlIDotless
ENCODING 405
SWIDTH 448 0
DWIDTH 14 0
BBX 14 30 0 -7
BITMAP
0000
0000
0000
0000
0000
0000
0000
0000
0000
0000
1F80
1F80
0380
0380
0380
0380
0380
0380
0380
0380
0380
3FF8
3FF8
0000
0000
0000
0000
0000
0000
0000
ENDCHAR
STARTCHAR LtSmlJDotless
ENCODING 406
SWIDTH 448 0
DWIDTH 14 0
BBX 14 30 0 -7
BITMAP
0000
0000
0000
0000
0000
0000
0000
0000
0000
0000
0FC0
0FC0
01C0
01C0
01C0
01C0
01C0
01C0
01C0
01C0
01C0
01C0
01C0
01C0
01C0
63C0
7F80
3F00
0000
0000
ENDCHAR
STARTCHAR LtCapADrss
ENCODING 407
SWIDTH 448 0
DWIDTH 14 0
BBX 14 30 0 -7
BITMAP
0000
0EE0
0EE0
0EE0
0000
0000
0380
0380
07C0
07C0
06C0
0EE0
0EE0
0C60
1C70
1C70
1FF0
3FF8
3838
3838
701C
701C
701C
0000
0000
0000
0000
0000
0000
0000
ENDCHAR
STARTCHAR LtCapEDrss
ENCODING 408
SWIDTH 448 0
DWIDTH 14 0
BBX 14 30 0 -7
BITMAP
0000
0EE0
0EE0
0EE0
0000
0000
3FF8
3FF8
3800
3800
3800
3800
3800
3FE0
3FE0
3800
3800
3800
3800
3800
3800
3FF8
3FF8
0000
0000
0000
0000
0000
0000
0000
ENDCHAR
STARTCHAR LtCapHDrss
ENCODING 409
SWIDTH 448 0
DWIDTH 14 0
BBX 14 30 0 -7
BITMAP
0000
0EE0
0EE0
0EE0
0000
0000
3838
3838
3838
3838
3838
3838
3838
3FF8
3FF8
3838
3838
3838
3838
3838
3838
3838
3838
0000
0000
0000
0000
0000
0000
0000
ENDCHAR
STARTCHAR LtCapIDrss
ENCODING 410
SWIDTH 448 0
DWIDTH 14 0
BBX 14 30 0 -7
BITMAP
0000
0EE0
0EE0
0EE0
0000
0000
1FF0
1FF0
0380
0380
0380
0380
0380
0380
0380
0380
0380
0380
0380
0380
0380
1FF0
1FF0
0000
0000
0000
0000
0000
0000
0000
ENDCHAR
STARTCHAR LtCapNDrss
ENCODING 411
SWIDTH 448 0
DWIDTH 14 0
BBX 14 30 0 -7
BITMAP
0000
0EE0
0EE0
0EE0
0000
0000
3838
3838
3C38
3C38
3E38
3E38
3F38
3B38
3BB8
39B8
39F8
38F8
38F8
3878
3878
3838
3838
0000
0000
0000
0000
0000
0000
0000
ENDCHAR
STARTCHAR LtCapODrss
ENCODING 412
SWIDTH 448 0
DWIDTH 14 0
BBX 14 30 0 -7
BITMAP
0000
0EE0
0EE0
0EE0
0000
0000
0780
1FE0
3CF0
3870
7038
7038
7038
7038
7038
7038
7038
7038
7038
3870
3CF0
1FE0
0780
0000
0000
0000
0000
0000
0000
0000
ENDCHAR
STARTCHAR LtCapUDrss
ENCODING 413
SWIDTH 448 0
DWIDTH 14 0
BBX 14 30 0 -7
BITMAP
0000
0EE0
0EE0
0EE0
0000
0000
3838
3838
3838
3838
3838
3838
3838
3838
3838
3838
3838
3838
3838
3838
1C70
1FF0
07C0
0000
0000
0000
0000
0000
0000
0000
ENDCHAR
STARTCHAR LtCapWDrss
ENCODING 414
SWIDTH 448 0
DWIDTH 14 0
BBX 14 30 0 -7
BITMAP
0000
0EE0
0EE0
0EE0
0000
0000
701C
701C
701C
701C
701C
711C
3938
3BB8
3BB8
3BB8
3BB8
1EF0
1EF0
1EF0
1C70
1C70
1C70
0000
0000
0000
0000
0000
0000
0000
ENDCHAR
STARTCHAR LtCapXDrss
ENCODING 415
SWIDTH 448 0
DWIDTH 14 0
BBX 14 30 0 -7
BITMAP
0000
0EE0
0EE0
0EE0
0000
0000
3838
3838
1C70
1C70
0EE0
0EE0
07C0
07C0
0380
07C0
07C0
0EE0
0EE0
1C70
1C70
3838
3838
0000
0000
0000
0000
0000
0000
0000
ENDCHAR
STARTCHAR LtCapYDrss
ENCODING 416
SWIDTH 448 0
DWIDTH 14 0
BBX 14 30 0 -7
BITMAP
0000
0EE0
0EE0
0EE0
0000
0000
701C
3838
3838
1C70
1C70
0EE0
0EE0
07C0
07C0
0380
0380
0380
0380
0380
0380
0380
0380
0000
0000
0000
0000
0000
0000
0000
ENDCHAR
STARTCHAR LtSmlADrss
ENCODING 417
SWIDTH 448 0
DWIDTH 14 0
BBX 14 30 0 -7
BITMAP
0000
0000
0000
0000
0000
0EE0
0EE0
0EE0
0000
0000
0FE0
1FF0
1C38
0038
0038
07F8
1FF8
3C38
3838
3838
3878
1FF8
0FB8
0000
0000
0000
0000
0000
0000
0000
ENDCHAR
STARTCHAR LtSmlEDrss
ENCODING 418
SWIDTH 448 0
DWIDTH 14 0
BBX 14 30 0 -7
BITMAP
0000
0000
0000
0000
0000
0EE0
0EE0
0EE0
0000
0000
07C0
1FF0
1C70
3838
3838
3FF8
3FF8
3800
3800
3800
1C38
1FF0
07E0
0000
0000
0000
0000
0000
0000
0000
ENDCHAR
STARTCHAR LtSmlHDrss
ENCODING 419
SWIDTH 448 0
DWIDTH 14 0
BBX 14 30 0 -7
BITMAP
0000
0EE0
0EE0
0EE0
0000
3800
3800
3800
3800
3800
39E0
3BF0
3E78
3C38
3838
3838
3838
3838
3838
3838
3838
3838
3838
0000
0000
0000
0000
0000
0000
0000
ENDCHAR
STARTCHAR LtSmlIDrss
ENCODING 420
SWIDTH 448 0
DWIDTH 14 0
BBX 14 30 0 -7
BITMAP
0000
0000
0000
0000
0000
0EE0
0EE0
0EE0
0000
0000
1F80
1F80
0380
0380
0380
0380
0380
0380
0380
0380
0380
3FF8
3FF8
0000
0000
0000
0000
0000
0000
0000
ENDCHAR
STARTCHAR LtSmlNDrss
ENCODING 421
SWIDTH 448 0
DWIDTH 14 0
BBX 14 30 0 -7
BITMAP
0000
0000
0000
0000
0000
0EE0
0EE0
0EE0
0000
0000
39E0
3BF0
3E78
3C38
3838
3838
3838
3838
3838
3838
3838
3838
3838
0000
0000
0000
0000
0000
0000
0000
ENDCHAR
STARTCHAR LtSmlODrss
ENCODING 422
SWIDTH 448 0
DWIDTH 14 0
BBX 14 30 0 -7
BITMAP
0000
0000
0000
0000
0000
0EE0
0EE0
0EE0
0000
0000
07C0
1FF0
1C70
3838
3838
3838
3838
3838
3838
3838
1C70
1FF0
07C0
0000
0000
0000
0000
0000
0000
0000
ENDCHAR
STARTCHAR LtSmlTDrss
ENCODING 423
SWIDTH 448 0
DWIDTH 14 0
BBX 14 30 0 -7
BITMAP
0000
0000
1DC0
1DC0
1DC0
0000
0100
0300
0700
0700
3FF0
3FF0
0700
0700
0700
0700
0700
0700
0700
0700
0718
03F8
01F0
0000
0000
0000
0000
0000
0000
0000
ENDCHAR
STARTCHAR LtSmlUDrss
ENCODING 424
SWIDTH 448 0
DWIDTH 14 0
BBX 14 30 0 -7
BITMAP
0000
0000
0000
0000
0000
0EE0
0EE0
0EE0
0000
0000
3838
3838
3838
3838
3838
3838
3838
3838
3838
3878
3CF8
1FB8
0F38
0000
0000
0000
0000
0000
0000
0000
ENDCHAR
STARTCHAR LtSmlWDrss
ENCODING 425
SWIDTH 448 0
DWIDTH 14 0
BBX 14 30 0 -7
BITMAP
0000
0000
0000
0000
0000
0EE0
0EE0
0EE0
0000
0000
701C
701C
701C
711C
711C
3BB8
3BB8
3BB8
3BB8
1EF0
1EF0
1C70
1C70
0000
0000
0000
0000
0000
0000
0000
ENDCHAR
STARTCHAR LtSmlXDrss
ENCODING 426
SWIDTH 448 0
DWIDTH 14 0
BBX 14 30 0 -7
BITMAP
0000
0000
0000
0000
0000
0EE0
0EE0
0EE0
0000
0000
3838
3C78
1C70
0EE0
0EE0
07C0
0380
07C0
0EE0
0EE0
1C70
3C78
3838
0000
0000
0000
0000
0000
0000
0000
ENDCHAR
STARTCHAR LtSmlYDrss
ENCODING 427
SWIDTH 448 0
DWIDTH 14 0
BBX 14 30 0 -7
BITMAP
0000
0000
0000
0000
0000
0EE0
0EE0
0EE0
0000
0000
3838
3838
3838
1C38
1C70
0E70
0E70
0E70
07E0
07E0
03E0
03C0
01C0
01C0
0380
7380
7F00
3E00
0000
0000
ENDCHAR
STARTCHAR LtCapUMacronDrss
ENCODING 428
SWIDTH 448 0
DWIDTH 14 0
BBX 14 30 0 -7
BITMAP
0000
0EE0
0EE0
0000
0FE0
0FE0
0000
3838
3838
3838
3838
3838
3838
3838
3838
3838
3838
3838
3838
3838
1C70
1FF0
07C0
0000
0000
0000
0000
0000
0000
0000
ENDCHAR
STARTCHAR LtSmlUMacronDrss
ENCODING 429
SWIDTH 448 0
DWIDTH 14 0
BBX 14 30 0 -7
BITMAP
0000
0000
0EE0
0EE0
0EE0
0000
0FE0
0FE0
0000
0000
3838
3838
3838
3838
3838
3838
3838
3838
3838
3878
3CF8
1FB8
0F38
0000
0000
0000
0000
0000
0000
0000
ENDCHAR
STARTCHAR LtCapOTildeDrss
ENCODING 430
SWIDTH 448 0
DWIDTH 14 0
BBX 14 30 0 -7
BITMAP
0000
0EE0
0EE0
0000
1F70
3BE0
0000
0780
1FE0
3CF0
3870
7038
7038
7038
7038
7038
7038
7038
7038
3870
3CF0
1FE0
0780
0000
0000
0000
0000
0000
0000
0000
ENDCHAR
STARTCHAR LtSmlOTildeDrss
ENCODING 431
SWIDTH 448 0
DWIDTH 14 0
BBX 14 30 0 -7
BITMAP
0000
0EE0
0EE0
0EE0
0000
0730
0FB0
0DF0
0CE0
0000
07C0
1FF0
1C70
3838
3838
3838
3838
3838
3838
3838
1C70
1FF0
07C0
0000
0000
0000
0000
0000
0000
0000
ENDCHAR
STARTCHAR LtCapARing
ENCODING 432
SWIDTH 448 0
DWIDTH 14 0
BBX 14 30 0 -7
BITMAP
0000
07C0
0EE0
0C60
0EE0
07C0
0000
0380
0380
07C0
07C0
06C0
0EE0
0EE0
0C60
1C70
1FF0
3FF8
3838
3838
701C
701C
701C
0000
0000
0000
0000
0000
0000
0000
ENDCHAR
STARTCHAR LtCapURing
ENCODING 433
SWIDTH 448 0
DWIDTH 14 0
BBX 14 30 0 -7
BITMAP
0000
07C0
0EE0
0C60
0EE0
07C0
0000
3838
3838
3838
3838
3838
3838
3838
3838
3838
3838
3838
3838
3838
1C70
1FF0
07C0
0000
0000
0000
0000
0000
0000
0000
ENDCHAR
STARTCHAR LtSmlARing
ENCODING 434
SWIDTH 448 0
DWIDTH 14 0
BBX 14 30 0 -7
BITMAP
0000
0000
0000
0380
07C0
0EE0
0EE0
07C0
0380
0000
0FE0
1FF0
1C38
0038
0038
07F8
1FF8
3C38
3838
3838
3878
1FF8
0FB8
0000
0000
0000
0000
0000
0000
0000
ENDCHAR
STARTCHAR LtSmlURing
ENCODING 435
SWIDTH 448 0
DWIDTH 14 0
BBX 14 30 0 -7
BITMAP
0000
0000
0000
0380
07C0
0EE0
0EE0
07C0
0380
0000
3838
3838
3838
3838
3838
3838
3838
3838
3838
3878
3CF8
1FB8
0F38
0000
0000
0000
0000
0000
0000
0000
ENDCHAR
STARTCHAR LtSmlWRing
ENCODING 436
SWIDTH 448 0
DWIDTH 14 0
BBX 14 30 0 -7
BITMAP
0000
0000
0000
0380
07C0
0EE0
0EE0
07C0
0380
0000
701C
701C
701C
711C
711C
3BB8
3BB8
3BB8
3BB8
1EF0
1EF0
1C70
1C70
0000
0000
0000
0000
0000
0000
0000
ENDCHAR
STARTCHAR LtSmlYRing
ENCODING 437
SWIDTH 448 0
DWIDTH 14 0
BBX 14 30 0 -7
BITMAP
0000
0000
0000
0380
07C0
0EE0
0EE0
07C0
0380
0000
3838
3838
3838
1C38
1C70
0E70
0E70
0E70
07E0
07E0
03E0
03C0
01C0
01C0
0380
7380
7F00
3E00
0000
0000
ENDCHAR
STARTCHAR LtSmlAHalfringr
ENCODING 438
SWIDTH 448 0
DWIDTH 14 0
BBX 14 30 0 -7
BITMAP
0000
0000
0000
0070
0078
001C
001C
0078
0070
0000
0FE0
1FF0
1C38
0038
0038
07F8
1FF8
3C38
3838
3838
3878
1FF8
0FB8
0000
0000
0000
0000
0000
0000
0000
ENDCHAR
STARTCHAR LtCapAMacron
ENCODING 439
SWIDTH 448 0
DWIDTH 14 0
BBX 14 30 0 -7
BITMAP
0000
0000
0FE0
0FE0
0000
0000
0380
0380
07C0
07C0
06C0
0EE0
0EE0
0C60
1C70
1C70
1FF0
3FF8
3838
3838
701C
701C
701C
0000
0000
0000
0000
0000
0000
0000
ENDCHAR
STARTCHAR LtCapEMacron
ENCODING 440
SWIDTH 448 0
DWIDTH 14 0
BBX 14 30 0 -7
BITMAP
0000
0000
0FE0
0FE0
0000
0000
3FF8
3FF8
3800
3800
3800
3800
3800
3FE0
3FE0
3800
3800
3800
3800
3800
3800
3FF8
3FF8
0000
0000
0000
0000
0000
0000
0000
ENDCHAR
STARTCHAR LtCapGMacron
ENCODING 441
SWIDTH 448 0
DWIDTH 14 0
BBX 14 30 0 -7
BITMAP
0000
0000
07F0
07F0
0000
0000
03F0
0FF8
1E38
1C18
3800
3800
3800
3800
39F8
39F8
3838
3838
3838
1C38
1E38
0FF8
03F8
0000
0000
0000
0000
0000
0000
0000
ENDCHAR
STARTCHAR LtCapIMacron
ENCODING 442
SWIDTH 448 0
DWIDTH 14 0
BBX 14 30 0 -7
BITMAP
0000
0000
0FE0
0FE0
0000
0000
1FF0
1FF0
0380
0380
0380
0380
0380
0380
0380
0380
0380
0380
0380
0380
0380
1FF0
1FF0
0000
0000
0000
0000
0000
0000
0000
ENDCHAR
STARTCHAR LtCapNMacron
ENCODING 443
SWIDTH 448 0
DWIDTH 14 0
BBX 14 30 0 -7
BITMAP
0000
0000
0FE0
0FE0
0000
0000
3838
3838
3C38
3C38
3E38
3E38
3F38
3B38
3BB8
39B8
39F8
38F8
38F8
3878
3878
3838
3838
0000
0000
0000
0000
0000
0000
0000
ENDCHAR
STARTCHAR LtCapOMacron
ENCODING 444
SWIDTH 448 0
DWIDTH 14 0
BBX 14 30 0 -7
BITMAP
0000
0000
1FE0
1FE0
0000
0000
0780
1FE0
3CF0
3870
7038
7038
7038
7038
7038
7038
7038
7038
7038
3870
3CF0
1FE0
0780
0000
0000
0000
0000
0000
0000
0000
ENDCHAR
STARTCHAR LtCapUMacron
ENCODING 445
SWIDTH 448 0
DWIDTH 14 0
BBX 14 30 0 -7
BITMAP
0000
0000
0FE0
0FE0
0000
0000
3838
3838
3838
3838
3838
3838
3838
3838
3838
3838
3838
3838
3838
3838
1C70
1FF0
07C0
0000
0000
0000
0000
0000
0000
0000
ENDCHAR
STARTCHAR LtCapYMacron
ENCODING 446
SWIDTH 448 0
DWIDTH 14 0
BBX 14 30 0 -7
BITMAP
0000
0000
0FE0
0FE0
0000
0000
701C
3838
3838
1C70
1C70
0EE0
0EE0
07C0
07C0
0380
0380
0380
0380
0380
0380
0380
0380
0000
0000
0000
0000
0000
0000
0000
ENDCHAR
STARTCHAR LtSmlAMacron
ENCODING 447
SWIDTH 448 0
DWIDTH 14 0
BBX 14 30 0 -7
BITMAP
0000
0000
0000
0000
0000
0000
0FE0
0FE0
0000
0000
0FE0
1FF0
1C38
0038
0038
07F8
1FF8
3C38
3838
3838
3878
1FF8
0FB8
0000
0000
0000
0000
0000
0000
0000
ENDCHAR
STARTCHAR LtSmlEMacron
ENCODING 448
SWIDTH 448 0
DWIDTH 14 0
BBX 14 30 0 -7
BITMAP
0000
0000
0000
0000
0000
0000
0FE0
0FE0
0000
0000
07C0
1FF0
1C70
3838
3838
3FF8
3FF8
3800
3800
3800
1C38
1FF0
07E0
0000
0000
0000
0000
0000
0000
0000
ENDCHAR
STARTCHAR LtSmlGMacron
ENCODING 449
SWIDTH 448 0
DWIDTH 14 0
BBX 14 30 0 -7
BITMAP
0000
0000
0000
0000
0000
0000
0FE0
0FE0
0000
0000
0FCC
1FFC
3878
3870
3870
3870
1FE0
0FC0
1C00
1C00
1FF0
0FF8
1FFC
381C
381C
381C
1FF8
0FF0
0000
0000
ENDCHAR
STARTCHAR LtSmlIMacron
ENCODING 450
SWIDTH 448 0
DWIDTH 14 0
BBX 14 30 0 -7
BITMAP
0000
0000
0000
0000
0000
0000
0FC0
0FC0
0000
0000
1F80
1F80
0380
0380
0380
0380
0380
0380
0380
0380
0380
3FF8
3FF8
0000
0000
0000
0000
0000
0000
0000
ENDCHAR
STARTCHAR LtSmlNMacron
ENCODING 451
SWIDTH 448 0
DWIDTH 14 0
BBX 14 30 0 -7
BITMAP
0000
0000
0000
0000
0000
0000
0FE0
0FE0
0000
0000
39E0
3BF0
3E78
3C38
3838
3838
3838
3838
3838
3838
3838
3838
3838
0000
0000
0000
0000
0000
0000
0000
ENDCHAR
STARTCHAR LtSmlOMacron
ENCODING 452
SWIDTH 448 0
DWIDTH 14 0
BBX 14 30 0 -7
BITMAP
0000
0000
0000
0000
0000
0000
0FE0
0FE0
0000
0000
07C0
1FF0
1C70
3838
3838
3838
3838
3838
3838
3838
1C70
1FF0
07C0
0000
0000
0000
0000
0000
0000
0000
ENDCHAR
STARTCHAR LtSmlUMacron
ENCODING 453
SWIDTH 448 0
DWIDTH 14 0
BBX 14 30 0 -7
BITMAP
0000
0000
0000
0000
0000
0000
0FE0
0FE0
0000
0000
3838
3838
3838
3838
3838
3838
3838
3838
3838
3878
3CF8
1FB8
0F38
0000
0000
0000
0000
0000
0000
0000
ENDCHAR
STARTCHAR LtSmlYMacron
ENCODING 454
SWIDTH 448 0
DWIDTH 14 0
BBX 14 30 0 -7
BITMAP
0000
0000
0000
0000
0000
0000
0FE0
0FE0
0000
0000
3838
3838
3838
1C38
1C70
0E70
0E70
0E70
07E0
07E0
03E0
03C0
01C0
01C0
0380
7380
7F00
3E00
0000
0000
ENDCHAR
STARTCHAR LtCapAEMacron
ENCODING 455
SWIDTH 448 0
DWIDTH 14 0
BBX 14 30 0 -7
BITMAP
0000
0000
07F0
07F0
0000
0000
03FC
03FC
07C0
07C0
07C0
0FC0
0DC0
0DF8
1DF8
19C0
1FC0
3FC0
39C0
39C0
71C0
71FC
71FC
0000
0000
0000
0000
0000
0000
0000
ENDCHAR
STARTCHAR LtSmlAEMacron
ENCODING 456
SWIDTH 448 0
DWIDTH 14 0
BBX 14 30 0 -7
BITMAP
0000
0000
0000
0000
0000
0000
0FE0
0FE0
0000
0000
3EF8
7FFC
739C
039C
039C
1FFC
3FFC
7380
7380
7380
73CC
7FFC
3E78
0000
0000
0000
0000
0000
0000
0000
ENDCHAR
STARTCHAR LtCapADotMacron
ENCODING 457
SWIDTH 448 0
DWIDTH 14 0
BBX 14 30 0 -7
BITMAP
0000
0FE0
0FE0
0000
0380
0380
0000
0380
0380
07C0
07C0
06C0
0EE0
0EE0
0C60
1C70
1FF0
3FF8
3838
3838
701C
701C
701C
0000
0000
0000
0000
0000
0000
0000
ENDCHAR
STARTCHAR LtCapODotMacron
ENCODING 458
SWIDTH 448 0
DWIDTH 14 0
BBX 14 30 0 -7
BITMAP
0000
0FE0
0FE0
0000
0380
0380
0000
0780
1FE0
3CF0
3870
7038
7038
7038
7038
7038
7038
7038
7038
3870
3CF0
1FE0
0780
0000
0000
0000
0000
0000
0000
0000
ENDCHAR
STARTCHAR LtSmlADotMacron
ENCODING 459
SWIDTH 448 0
DWIDTH 14 0
BBX 14 30 0 -7
BITMAP
0000
0000
0FE0
0FE0
0000
0380
0380
0380
0000
0000
0FE0
1FF0
1C38
0038
0038
07F8
1FF8
3C38
3838
3838
3878
1FF8
0FB8
0000
0000
0000
0000
0000
0000
0000
ENDCHAR
STARTCHAR LtSmlODotMacron
ENCODING 460
SWIDTH 448 0
DWIDTH 14 0
BBX 14 30 0 -7
BITMAP
0000
0000
0FE0
0FE0
0000
0380
0380
0380
0000
0000
07C0
1FF0
1C70
3838
3838
3838
3838
3838
3838
3838
1C70
1FF0
07C0
0000
0000
0000
0000
0000
0000
0000
ENDCHAR
STARTCHAR LtCapADrssMacron
ENCODING 461
SWIDTH 448 0
DWIDTH 14 0
BBX 14 30 0 -7
BITMAP
0000
0FE0
0FE0
0000
0EE0
0EE0
0000
0380
0380
07C0
07C0
06C0
0EE0
0EE0
0C60
1C70
1FF0
3FF8
3838
3838
701C
701C
701C
0000
0000
0000
0000
0000
0000
0000
ENDCHAR
STARTCHAR LtCapODrssMacron
ENCODING 462
SWIDTH 448 0
DWIDTH 14 0
BBX 14 30 0 -7
BITMAP
0000
0FE0
0FE0
0000
0EE0
0EE0
0000
0780
1FE0
3CF0
3870
7038
7038
7038
7038
7038
7038
7038
7038
3870
3CF0
1FE0
0780
0000
0000
0000
0000
0000
0000
0000
ENDCHAR
STARTCHAR LtCapUDrssMacron
ENCODING 463
SWIDTH 448 0
DWIDTH 14 0
BBX 14 30 0 -7
BITMAP
0000
0FE0
0FE0
0000
0EE0
0EE0
0000
3838
3838
3838
3838
3838
3838
3838
3838
3838
3838
3838
3838
3838
1C70
1FF0
07C0
0000
0000
0000
0000
0000
0000
0000
ENDCHAR
STARTCHAR LtSmlADrssMacron
ENCODING 464
SWIDTH 448 0
DWIDTH 14 0
BBX 14 30 0 -7
BITMAP
0000
0000
0FE0
0FE0
0000
0EE0
0EE0
0EE0
0000
0000
0FE0
1FF0
1C38
0038
0038
07F8
1FF8
3C38
3838
3838
3878
1FF8
0FB8
0000
0000
0000
0000
0000
0000
0000
ENDCHAR
STARTCHAR LtSmlODrssMacron
ENCODING 465
SWIDTH 448 0
DWIDTH 14 0
BBX 14 30 0 -7
BITMAP
0000
0000
0FE0
0FE0
0000
0EE0
0EE0
0EE0
0000
0000
07C0
1FF0
1C70
3838
3838
3838
3838
3838
3838
3838
1C70
1FF0
07C0
0000
0000
0000
0000
0000
0000
0000
ENDCHAR
STARTCHAR LtSmlUDrssMacron
ENCODING 466
SWIDTH 448 0
DWIDTH 14 0
BBX 14 30 0 -7
BITMAP
0000
0000
0FE0
0FE0
0000
0EE0
0EE0
0EE0
0000
0000
3838
3838
3838
3838
3838
3838
3838
3838
3838
3878
3CF8
1FB8
0F38
0000
0000
0000
0000
0000
0000
0000
ENDCHAR
STARTCHAR LtCapOTildeMacron
ENCODING 467
SWIDTH 448 0
DWIDTH 14 0
BBX 14 30 0 -7
BITMAP
0000
1FE0
1FE0
0000
1F70
3BE0
0000
0780
1FE0
3CF0
3870
7038
7038
7038
7038
7038
7038
7038
7038
3870
3CF0
1FE0
0780
0000
0000
0000
0000
0000
0000
0000
ENDCHAR
STARTCHAR LtSmlOTildeMacron
ENCODING 468
SWIDTH 448 0
DWIDTH 14 0
BBX 14 30 0 -7
BITMAP
0000
0000
0FE0
0FE0
0000
0730
0FB0
0DF0
0CE0
0000
07C0
1FF0
1C70
3838
3838
3838
3838
3838
3838
3838
1C70
1FF0
07C0
0000
0000
0000
0000
0000
0000
0000
ENDCHAR
STARTCHAR LtCapAAcute
ENCODING 469
SWIDTH 448 0
DWIDTH 14 0
BBX 14 30 0 -7
BITMAP
0000
01E0
01C0
0380
0300
0000
0380
0380
07C0
07C0
06C0
0EE0
0EE0
0C60
1C70
1C70
1FF0
3FF8
3838
3838
701C
701C
701C
0000
0000
0000
0000
0000
0000
0000
ENDCHAR
STARTCHAR LtCapCAcute
ENCODING 470
SWIDTH 448 0
DWIDTH 14 0
BBX 14 30 0 -7
BITMAP
0000
00F0
00E0
01C0
0180
0000
03F0
0FF8
1E38
1C18
3800
3800
3800
3800
3800
3800
3800
3800
3800
1C18
1E38
0FF8
03F0
0000
0000
0000
0000
0000
0000
0000
ENDCHAR
STARTCHAR LtCapEAcute
ENCODING 471
SWIDTH 448 0
DWIDTH 14 0
BBX 14 30 0 -7
BITMAP
0000
03C0
0380
0700
0600
0000
3FF8
3FF8
3800
3800
3800
3800
3800
3FE0
3FE0
3800
3800
3800
3800
3800
3800
3FF8
3FF8
0000
0000
0000
0000
0000
0000
0000
ENDCHAR
STARTCHAR LtCapGAcute
ENCODING 472
SWIDTH 448 0
DWIDTH 14 0
BBX 14 30 0 -7
BITMAP
0000
00F0
00E0
01C0
0180
0000
03F0
0FF8
1E38
1C18
3800
3800
3800
3800
39F8
39F8
3838
3838
3838
1C38
1E38
0FF8
03F8
0000
0000
0000
0000
0000
0000
0000
ENDCHAR
STARTCHAR LtCapIAcute
ENCODING 473
SWIDTH 448 0
DWIDTH 14 0
BBX 14 30 0 -7
BITMAP
0000
01E0
01C0
0380
0300
0000
1FF0
1FF0
0380
0380
0380
0380
0380
0380
0380
0380
0380
0380
0380
0380
0380
1FF0
1FF0
0000
0000
0000
0000
0000
0000
0000
ENDCHAR
STARTCHAR LtCapKAcute
ENCODING 474
SWIDTH 448 0
DWIDTH 14 0
BBX 14 30 0 -7
BITMAP
0000
03C0
0380
0700
0600
0000
3838
3838
3870
38E0
38E0
39C0
3B80
3B80
3F80
3FC0
3DC0
38E0
38E0
3870
3870
3838
3838
0000
0000
0000
0000
0000
0000
0000
ENDCHAR
STARTCHAR LtCapLAcute
ENCODING 475
SWIDTH 448 0
DWIDTH 14 0
BBX 14 30 0 -7
BITMAP
0000
03C0
0380
0700
0600
0000
3800
3800
3800
3800
3800
3800
3800
3800
3800
3800
3800
3800
3800
3800
3800
3FF8
3FF8
0000
0000
0000
0000
0000
0000
0000
ENDCHAR
STARTCHAR LtCapMAcute
ENCODING 476
SWIDTH 448 0
DWIDTH 14 0
BBX 14 30 0 -7
BITMAP
0000
01E0
01C0
0380
0300
0000
701C
701C
783C
7C7C
7C7C
7EFC
77DC
77DC
739C
739C
711C
701C
701C
701C
701C
701C
701C
0000
0000
0000
0000
0000
0000
0000
ENDCHAR
STARTCHAR LtCapNAcute
ENCODING 477
SWIDTH 448 0
DWIDTH 14 0
BBX 14 30 0 -7
BITMAP
0000
01E0
01C0
0380
0300
0000
3838
3838
3C38
3C38
3E38
3E38
3F38
3B38
3BB8
39B8
39F8
38F8
38F8
3878
3878
3838
3838
0000
0000
0000
0000
0000
0000
0000
ENDCHAR
STARTCHAR LtCapOAcute
ENCODING 478
SWIDTH 448 0
DWIDTH 14 0
BBX 14 30 0 -7
BITMAP
0000
01E0
01C0
0380
0300
0000
0780
1FE0
3CF0
3870
7038
7038
7038
7038
7038
7038
7038
7038
7038
3870
3CF0
1FE0
0780
0000
0000
0000
0000
0000
0000
0000
ENDCHAR
STARTCHAR LtCapPAcute
ENCODING 479
SWIDTH 448 0
DWIDTH 14 0
BBX 14 30 0 -7
BITMAP
0000
03C0
0380
0700
0600
0000
3FC0
3FF0
3870
3838
3838
3838
3838
3870
3FF0
3FC0
3800
3800
3800
3800
3800
3800
3800
0000
0000
0000
0000
0000
0000
0000
ENDCHAR
STARTCHAR LtCapRAcute
ENCODING 480
SWIDTH 448 0
DWIDTH 14 0
BBX 14 30 0 -7
BITMAP
0000
03C0
0380
0700
0600
0000
3FC0
3FF0
3870
3838
3838
3838
3870
3FF0
3FC0
3980
39C0
38E0
38E0
3870
3838
3838
381C
0000
0000
0000
0000
0000
0000
0000
ENDCHAR
STARTCHAR LtCapSAcute
ENCODING 481
SWIDTH 448 0
DWIDTH 14 0
BBX 14 30 0 -7
BITMAP
0000
01E0
01C0
0380
0300
0000
0FF0
1FF8
3C38
3818
3800
3C00
1E00
0F00
07C0
01E0
00F0
0078
0038
3038
3878
3FF0
1FE0
0000
0000
0000
0000
0000
0000
0000
ENDCHAR
STARTCHAR LtCapUAcute
ENCODING 482
SWIDTH 448 0
DWIDTH 14 0
BBX 14 30 0 -7
BITMAP
0000
01E0
01C0
0380
0300
0000
3838
3838
3838
3838
3838
3838
3838
3838
3838
3838
3838
3838
3838
3838
1C70
1FF0
07C0
0000
0000
0000
0000
0000
0000
0000
ENDCHAR
STARTCHAR LtCapWAcute
ENCODING 483
SWIDTH 448 0
DWIDTH 14 0
BBX 14 30 0 -7
BITMAP
0000
01E0
01C0
0380
0300
0000
701C
701C
701C
701C
701C
711C
3938
3BB8
3BB8
3BB8
3BB8
1EF0
1EF0
1EF0
1C70
1C70
1C70
0000
0000
0000
0000
0000
0000
0000
ENDCHAR
STARTCHAR LtCapYAcute
ENCODING 484
SWIDTH 448 0
DWIDTH 14 0
BBX 14 30 0 -7
BITMAP
0000
01E0
01C0
0380
0300
0000
701C
3838
3838
1C70
1C70
0EE0
0EE0
07C0
07C0
0380
0380
0380
0380
0380
0380
0380
0380
0000
0000
0000
0000
0000
0000
0000
ENDCHAR
STARTCHAR LtCapZAcute
ENCODING 485
SWIDTH 448 0
DWIDTH 14 0
BBX 14 30 0 -7
BITMAP
0000
01E0
01C0
0380
0300
0000
3FF8
3FF8
0078
0070
00F0
00E0
01C0
03C0
0380
0780
0700
0E00
1E00
1C00
3C00
3FF8
3FF8
0000
0000
0000
0000
0000
0000
0000
ENDCHAR
STARTCHAR LtCapEpsAcute
ENCODING 486
SWIDTH 448 0
DWIDTH 14 0
BBX 14 30 0 -7
BITMAP
0000
01E0
01C0
0380
0300
0000
07F0
1FF8
3C38
3818
3800
3800
1C00
0F80
0F80
1C00
3800
3800
3800
3818
3C38
1FF8
07F0
0000
0000
0000
0000
0000
0000
0000
ENDCHAR
STARTCHAR LtCapERevAcute
ENCODING 487
SWIDTH 448 0
DWIDTH 14 0
BBX 14 30 0 -7
BITMAP
0000
01E0
01C0
0380
0300
0000
3FF8
3FF8
0038
0038
0038
0038
0038
0FF8
0FF8
0038
0038
0038
0038
0038
0038
3FF8
3FF8
0000
0000
0000
0000
0000
0000
0000
ENDCHAR
STARTCHAR LtCapCTrndAcute
ENCODING 488
SWIDTH 448 0
DWIDTH 14 0
BBX 14 30 0 -7
BITMAP
0000
03C0
0380
0700
0600
0000
1F80
3FE0
38F0
3070
0038
0038
0038
0038
0038
0038
0038
0038
0038
3070
38F0
3FE0
1F80
0000
0000
0000
0000
0000
0000
0000
ENDCHAR
STARTCHAR LtSmlAAcute
ENCODING 489
SWIDTH 448 0
DWIDTH 14 0
BBX 14 30 0 -7
BITMAP
0000
0000
0000
0000
00F0
01E0
01C0
0380
0300
0000
0FE0
1FF0
1C38
0038
0038
07F8
1FF8
3C38
3838
3838
3878
1FF8
0FB8
0000
0000
0000
0000
0000
0000
0000
ENDCHAR
STARTCHAR LtSmlCAcute
ENCODING 490
SWIDTH 448 0
DWIDTH 14 0
BBX 14 30 0 -7
BITMAP
0000
0000
0000
0000
00F0
01E0
01C0
0380
0300
0000
07F0
0FF8
1E38
1C18
3800
3800
3800
3800
3800
1C18
1E38
0FF8
07F0
0000
0000
0000
0000
0000
0000
0000
ENDCHAR
STARTCHAR LtSmlEAcute
ENCODING 491
SWIDTH 448 0
DWIDTH 14 0
BBX 14 30 0 -7
BITMAP
0000
0000
0000
0000
00F0
01E0
01C0
0380
0300
0000
07C0
1FF0
1C70
3838
3838
3FF8
3FF8
3800
3800
3800
1C38
1FF0
07E0
0000
0000
0000
0000
0000
0000
0000
ENDCHAR
STARTCHAR LtSmlGAcute
ENCODING 492
SWIDTH 448 0
DWIDTH 14 0
BBX 14 30 0 -7
BITMAP
0000
0000
0000
0000
00F0
01E0
01C0
0380
0300
0000
0FCC
1FFC
3878
3870
3870
3870
1FE0
0FC0
1C00
1C00
1FF0
0FF8
1FFC
381C
381C
381C
1FF8
0FF0
0000
0000
ENDCHAR
STARTCHAR LtSmlIAcute
ENCODING 493
SWIDTH 448 0
DWIDTH 14 0
BBX 14 30 0 -7
BITMAP
0000
0000
0000
0000
00F0
01E0
01C0
0380
0300
0000
1F80
1F80
0380
0380
0380
0380
0380
0380
0380
0380
0380
3FF8
3FF8
0000
0000
0000
0000
0000
0000
0000
ENDCHAR
STARTCHAR LtSmlKAcute
ENCODING 494
SWIDTH 448 0
DWIDTH 14 0
BBX 14 30 0 -7
BITMAP
0000
07E0
0F80
1E00
0000
3800
3800
3800
3800
3800
3838
3878
38F0
39E0
3BC0
3F80
3FC0
3DC0
38E0
38E0
3870
3878
3838
0000
0000
0000
0000
0000
0000
0000
ENDCHAR
STARTCHAR LtSmlLAcute
ENCODING 495
SWIDTH 448 0
DWIDTH 14 0
BBX 14 30 0 -7
BITMAP
0000
01F8
03E0
0780
0000
1F80
1F80
0380
0380
0380
0380
0380
0380
0380
0380
0380
0380
0380
0380
0380
0380
3FF8
3FF8
0000
0000
0000
0000
0000
0000
0000
ENDCHAR
STARTCHAR LtSmlMAcute
ENCODING 496
SWIDTH 448 0
DWIDTH 14 0
BBX 14 30 0 -7
BITMAP
0000
0000
0000
0000
00F0
01E0
01C0
0380
0300
0000
6630
6F78
7FFC
7BDC
739C
739C
739C
739C
739C
739C
739C
739C
739C
0000
0000
0000
0000
0000
0000
0000
ENDCHAR
STARTCHAR LtSmlNAcute
ENCODING 497
SWIDTH 448 0
DWIDTH 14 0
BBX 14 30 0 -7
BITMAP
0000
0000
0000
0000
00F0
01E0
01C0
0380
0300
0000
39E0
3BF0
3E78
3C38
3838
3838
3838
3838
3838
3838
3838
3838
3838
0000
0000
0000
0000
0000
0000
0000
ENDCHAR
STARTCHAR LtSmlOAcute
ENCODING 498
SWIDTH 448 0
DWIDTH 14 0
BBX 14 30 0 -7
BITMAP
0000
0000
0000
0000
00F0
01E0
01C0
0380
0300
0000
07C0
1FF0
1C70
3838
3838
3838
3838
3838
3838
3838
1C70
1FF0
07C0
0000
0000
0000
0000
0000
0000
0000
ENDCHAR
STARTCHAR LtSmlPAcute
ENCODING 499
SWIDTH 448 0
DWIDTH 14 0
BBX 14 30 0 -7
BITMAP
0000
0000
0000
0000
00F0
01E0
01C0
0380
0300
0000
3BC0
3FF0
3C70
3838
3838
3838
3838
3838
3838
3838
3C70
3FF0
3BC0
3800
3800
3800
3800
3800
0000
0000
ENDCHAR
STARTCHAR LtSmlRAcute
ENCODING 500
SWIDTH 448 0
DWIDTH 14 0
BBX 14 30 0 -7
BITMAP
0000
0000
0000
0000
00F0
01E0
01C0
0380
0300
0000
3CF0
3DF8
1FB8
1F18
1E00
1C00
1C00
1C00
1C00
1C00
1C00
1C00
1C00
0000
0000
0000
0000
0000
0000
0000
ENDCHAR
STARTCHAR LtSmlSAcute
ENCODING 501
SWIDTH 448 0
DWIDTH 14 0
BBX 14 30 0 -7
BITMAP
0000
0000
0000
0000
00F0
01E0
01C0
0380
0300
0000
0FF0
1FF8
3838
3800
3C00
1F80
0FE0
03F0
0078
0038
3838
3FF0
1FE0
0000
0000
0000
0000
0000
0000
0000
ENDCHAR
STARTCHAR LtSmlUAcute
ENCODING 502
SWIDTH 448 0
DWIDTH 14 0
BBX 14 30 0 -7
BITMAP
0000
0000
0000
0000
00F0
01E0
01C0
0380
0300
0000
3838
3838
3838
3838
3838
3838
3838
3838
3838
3878
3CF8
1FB8
0F38
0000
0000
0000
0000
0000
0000
0000
ENDCHAR
STARTCHAR LtSmlWAcute
ENCODING 503
SWIDTH 448 0
DWIDTH 14 0
BBX 14 30 0 -7
BITMAP
0000
0000
0000
0000
00F0
01E0
01C0
0380
0300
0000
701C
701C
701C
711C
711C
3BB8
3BB8
3BB8
3BB8
1EF0
1EF0
1C70
1C70
0000
0000
0000
0000
0000
0000
0000
ENDCHAR
STARTCHAR LtSmlYAcute
ENCODING 504
SWIDTH 448 0
DWIDTH 14 0
BBX 14 30 0 -7
BITMAP
0000
0000
0000
0000
00F0
01E0
01C0
0380
0300
0000
3838
3838
3838
1C38
1C70
0E70
0E70
0E70
07E0
07E0
03E0
03C0
01C0
01C0
0380
7380
7F00
3E00
0000
0000
ENDCHAR
STARTCHAR LtSmlZAcute
ENCODING 505
SWIDTH 448 0
DWIDTH 14 0
BBX 14 30 0 -7
BITMAP
0000
0000
0000
0000
00F0
01E0
01C0
0380
0300
0000
3FF8
3FF8
0070
00E0
01E0
03C0
0380
0780
0F00
0E00
1C00
3FF8
3FF8
0000
0000
0000
0000
0000
0000
0000
ENDCHAR
STARTCHAR LtSmlEpsAcute
ENCODING 506
SWIDTH 448 0
DWIDTH 14 0
BBX 14 30 0 -7
BITMAP
0000
0000
0000
0000
00F0
01E0
01C0
0380
0300
0000
0FF0
1FF8
3C38
3818
3800
1F80
0F80
1C00
3800
3818
3C38
1FF8
0FF0
0000
0000
0000
0000
0000
0000
0000
ENDCHAR
STARTCHAR LtSmlSchwaAcute
ENCODING 507
SWIDTH 448 0
DWIDTH 14 0
BBX 14 30 0 -7
BITMAP
0000
0000
0000
0000
01E0
03C0
0380
0700
0600
0000
0FC0
1FF0
3870
0038
0038
0038
3FF8
3FF8
3838
3838
1C70
1FF0
07C0
0000
0000
0000
0000
0000
0000
0000
ENDCHAR
STARTCHAR LtSmlCTrndAcute
ENCODING 508
SWIDTH 448 0
DWIDTH 14 0
BBX 14 30 0 -7
BITMAP
0000
0000
0000
0000
01E0
03C0
0380
0700
0600
0000
1FC0
3FE0
38F0
3070
0038
0038
0038
0038
0038
3070
38F0
3FE0
1FC0
0000
0000
0000
0000
0000
0000
0000
ENDCHAR
STARTCHAR LtCapAEAcute
ENCODING 509
SWIDTH 448 0
DWIDTH 14 0
BBX 14 30 0 -7
BITMAP
0000
00F0
00E0
01C0
0180
0000
03FC
03FC
07C0
07C0
07C0
0FC0
0DC0
0DF8
1DF8
19C0
1FC0
3FC0
39C0
39C0
71C0
71FC
71FC
0000
0000
0000
0000
0000
0000
0000
ENDCHAR
STARTCHAR LtSmlAEAcute
ENCODING 510
SWIDTH 448 0
DWIDTH 14 0
BBX 14 30 0 -7
BITMAP
0000
0000
0000
0000
00F0
01E0
01C0
0380
0300
0000
3EF8
7FFC
739C
039C
039C
1FFC
3FFC
7380
7380
7380
73CC
7FFC
3E78
0000
0000
0000
0000
0000
0000
0000
ENDCHAR
STARTCHAR LtCapOStrokeAcute
ENCODING 511
SWIDTH 448 0
DWIDTH 14 0
BBX 14 30 0 -7
BITMAP
0000
01E0
01C0
0380
0300
0018
0798
1FF0
3CF0
3870
70F8
70F8
71B8
73B8
7338
7738
7638
7C38
7C38
3870
3CF0
3FE0
6780
6000
0000
0000
0000
0000
0000
0000
ENDCHAR
STARTCHAR LtSmlOStrokeAcute
ENCODING 512
SWIDTH 448 0
DWIDTH 14 0
BBX 14 30 0 -7
BITMAP
0000
0000
0000
0000
00F0
01E0
01C0
0380
0300
0030
07F0
1FF0
1CF0
38F8
39B8
39B8
3BB8
3B38
3B38
3E38
1E70
1FF0
1FC0
1800
0000
0000
0000
0000
0000
0000
ENDCHAR
STARTCHAR LtCapOHornAcute
ENCODING 513
SWIDTH 448 0
DWIDTH 14 0
BBX 14 30 0 -7
BITMAP
0000
03C0
0380
0700
061C
001C
078C
1FFC
3CF8
3870
7038
7038
7038
7038
7038
7038
7038
7038
7038
3870
3CF0
1FE0
0780
0000
0000
0000
0000
0000
0000
0000
ENDCHAR
STARTCHAR LtCapUHornAcute
ENCODING 514
SWIDTH 448 0
DWIDTH 14 0
BBX 14 30 0 -7
BITMAP
0000
03C0
0380
0700
061C
001C
70CC
70FC
70FC
70F8
70E0
70E0
70E0
70E0
70E0
70E0
70E0
70E0
70E0
70E0
39C0
3FC0
0F00
0000
0000
0000
0000
0000
0000
0000
ENDCHAR
STARTCHAR LtSmlOHornAcute
ENCODING 515
SWIDTH 448 0
DWIDTH 14 0
BBX 14 30 0 -7
BITMAP
0000
0000
0000
0000
01E0
03C0
0380
0700
061C
001C
0F8C
3FDC
38FC
7078
7070
7070
7070
7070
7070
7070
38E0
3FE0
0F80
0000
0000
0000
0000
0000
0000
0000
ENDCHAR
STARTCHAR LtSmlUHornAcute
ENCODING 516
SWIDTH 448 0
DWIDTH 14 0
BBX 14 30 0 -7
BITMAP
0000
0000
0000
0000
01E0
03C0
0380
0700
061C
001C
70CC
70FC
70FC
70F8
70E0
70E0
70E0
70E0
70E0
71E0
7BE0
3EE0
1CE0
0000
0000
0000
0000
0000
0000
0000
ENDCHAR
STARTCHAR LtCapIDrssAcute
ENCODING 517
SWIDTH 448 0
DWIDTH 14 0
BBX 14 30 0 -7
BITMAP
0000
01E0
01C0
1BB0
1B30
1830
0000
1FF0
1FF0
0380
0380
0380
0380
0380
0380
0380
0380
0380
0380
0380
0380
1FF0
1FF0
0000
0000
0000
0000
0000
0000
0000
ENDCHAR
STARTCHAR LtCapUDrssAcute
ENCODING 518
SWIDTH 448 0
DWIDTH 14 0
BBX 14 30 0 -7
BITMAP
0000
01E0
01C0
1BB0
1B30
1830
0000
3838
3838
3838
3838
3838
3838
3838
3838
3838
3838
3838
3838
3838
1C70
1FF0
07C0
0000
0000
0000
0000
0000
0000
0000
ENDCHAR
STARTCHAR LtSmlIDrssAcute
ENCODING 519
SWIDTH 448 0
DWIDTH 14 0
BBX 14 30 0 -7
BITMAP
0000
01E0
01C0
0380
0300
0000
0EE0
0EE0
0EE0
0000
1F80
1F80
0380
0380
0380
0380
0380
0380
0380
0380
0380
3FF8
3FF8
0000
0000
0000
0000
0000
0000
0000
ENDCHAR
STARTCHAR LtSmlUDrssAcute
ENCODING 520
SWIDTH 448 0
DWIDTH 14 0
BBX 14 30 0 -7
BITMAP
0000
01E0
01C0
0380
0300
0000
0EE0
0EE0
0EE0
0000
3838
3838
3838
3838
3838
3838
3838
3838
3838
3878
3CF8
1FB8
0F38
0000
0000
0000
0000
0000
0000
0000
ENDCHAR
STARTCHAR LtCapARingAcute
ENCODING 521
SWIDTH 448 0
DWIDTH 14 0
BBX 14 30 0 -7
BITMAP
0000
01F8
03E0
0780
0000
07C0
0EE0
0EE0
07C0
0380
07C0
07C0
0EE0
0EE0
1C70
1C70
1FF0
3FF8
3838
3838
701C
701C
701C
0000
0000
0000
0000
0000
0000
0000
ENDCHAR
STARTCHAR LtSmlARingAcute
ENCODING 522
SWIDTH 448 0
DWIDTH 14 0
BBX 14 30 0 -7
BITMAP
0000
01F8
03E0
0780
0000
07C0
0EE0
0EE0
07C0
0000
0FE0
1FF0
1C38
0038
0038
07F8
1FF8
3C38
3838
3838
3878
1FF8
0FB8
0000
0000
0000
0000
0000
0000
0000
ENDCHAR
STARTCHAR LtCapEMacronAcute
ENCODING 523
SWIDTH 448 0
DWIDTH 14 0
BBX 14 30 0 -7
BITMAP
0000
01F8
03E0
0780
0000
0FE0
0FE0
0000
3FF8
3FF8
3800
3800
3800
3800
3FE0
3FE0
3800
3800
3800
3800
3800
3FF8
3FF8
0000
0000
0000
0000
0000
0000
0000
ENDCHAR
STARTCHAR LtCapOMacronAcute
ENCODING 524
SWIDTH 448 0
DWIDTH 14 0
BBX 14 30 0 -7
BITMAP
0000
01F8
03E0
0780
0000
1FE0
1FE0
0000
0780
1FE0
3CF0
3870
7038
7038
7038
7038
7038
7038
7038
3870
3CF0
1FE0
0780
0000
0000
0000
0000
0000
0000
0000
ENDCHAR
STARTCHAR LtSmlAMacronAcute
ENCODING 525
SWIDTH 448 0
DWIDTH 14 0
BBX 14 30 0 -7
BITMAP
0000
01E0
01C0
0380
0300
0000
0FE0
0FE0
0000
0000
0FE0
1FF0
1C38
0038
0038
07F8
1FF8
3C38
3838
3838
3878
1FF8
0FB8
0000
0000
0000
0000
0000
0000
0000
ENDCHAR
STARTCHAR LtSmlEMacronAcute
ENCODING 526
SWIDTH 448 0
DWIDTH 14 0
BBX 14 30 0 -7
BITMAP
0000
01E0
01C0
0380
0300
0000
0FE0
0FE0
0000
0000
07C0
1FF0
1C70
3838
3838
3FF8
3FF8
3800
3800
3800
1C38
1FF0
07E0
0000
0000
0000
0000
0000
0000
0000
ENDCHAR
STARTCHAR LtSmlIMacronAcute
ENCODING 527
SWIDTH 448 0
DWIDTH 14 0
BBX 14 30 0 -7
BITMAP
0000
01E0
01C0
0380
0300
0000
0FE0
0FE0
0000
0000
1F80
1F80
0380
0380
0380
0380
0380
0380
0380
0380
0380
3FF8
3FF8
0000
0000
0000
0000
0000
0000
0000
ENDCHAR
STARTCHAR LtSmlOMacronAcute
ENCODING 528
SWIDTH 448 0
DWIDTH 14 0
BBX 14 30 0 -7
BITMAP
0000
01E0
01C0
0380
0300
0000
0FE0
0FE0
0000
0000
07C0
1FF0
1C70
3838
3838
3838
3838
3838
3838
3838
1C70
1FF0
07C0
0000
0000
0000
0000
0000
0000
0000
ENDCHAR
STARTCHAR LtSmlUMacronAcute
ENCODING 529
SWIDTH 448 0
DWIDTH 14 0
BBX 14 30 0 -7
BITMAP
0000
01E0
01C0
0380
0300
0000
0FE0
0FE0
0000
0000
3838
3838
3838
3838
3838
3838
3838
3838
3838
3878
3CF8
1FB8
0F38
0000
0000
0000
0000
0000
0000
0000
ENDCHAR
STARTCHAR LtCapACircumAcute
ENCODING 530
SWIDTH 448 0
DWIDTH 14 0
BBX 14 30 0 -7
BITMAP
0000
000C
039C
07D8
0ED0
0000
0380
0380
07C0
07C0
06C0
0EE0
0EE0
0C60
1C70
1C70
1FF0
3FF8
3838
3838
701C
701C
701C
0000
0000
0000
0000
0000
0000
0000
ENDCHAR
STARTCHAR LtCapECircumAcute
ENCODING 531
SWIDTH 448 0
DWIDTH 14 0
BBX 14 30 0 -7
BITMAP
0000
000C
039C
07D8
0ED0
0000
3FF8
3FF8
3800
3800
3800
3800
3800
3FE0
3FE0
3800
3800
3800
3800
3800
3800
3FF8
3FF8
0000
0000
0000
0000
0000
0000
0000
ENDCHAR
STARTCHAR LtCapOCircumAcute
ENCODING 532
SWIDTH 448 0
DWIDTH 14 0
BBX 14 30 0 -7
BITMAP
0000
0018
0738
0FB0
1DA0
0000
0780
1FE0
3CF0
3870
7038
7038
7038
7038
7038
7038
7038
7038
7038
3870
3CF0
1FE0
0780
0000
0000
0000
0000
0000
0000
0000
ENDCHAR
STARTCHAR LtSmlACircumAcute
ENCODING 533
SWIDTH 448 0
DWIDTH 14 0
BBX 14 30 0 -7
BITMAP
0000
000C
000C
001C
0398
07D0
0EE0
0C60
0000
0000
0FE0
1FF0
1C38
0038
0038
07F8
1FF8
3C38
3838
3838
3878
1FF8
0FB8
0000
0000
0000
0000
0000
0000
0000
ENDCHAR
STARTCHAR LtSmlECircumAcute
ENCODING 534
SWIDTH 448 0
DWIDTH 14 0
BBX 14 30 0 -7
BITMAP
0000
000C
000C
001C
0398
07D0
0EE0
0C60
0000
0000
07C0
1FF0
1C70
3838
3838
3FF8
3FF8
3800
3800
3800
1C38
1FF0
07E0
0000
0000
0000
0000
0000
0000
0000
ENDCHAR
STARTCHAR LtSmlOCircumAcute
ENCODING 535
SWIDTH 448 0
DWIDTH 14 0
BBX 14 30 0 -7
BITMAP
0000
000C
000C
001C
0398
07D0
0EE0
0C60
0000
0000
07C0
1FF0
1C70
3838
3838
3838
3838
3838
3838
3838
1C70
1FF0
07C0
0000
0000
0000
0000
0000
0000
0000
ENDCHAR
STARTCHAR LtCapABreveAcute
ENCODING 536
SWIDTH 448 0
DWIDTH 14 0
BBX 14 30 0 -7
BITMAP
0000
01C0
0180
1B30
1C70
0FE0
07C0
0000
0380
0380
07C0
07C0
0EE0
0EE0
1C70
1C70
1FF0
3FF8
3838
3838
701C
701C
701C
0000
0000
0000
0000
0000
0000
0000
ENDCHAR
STARTCHAR LtSmlABreveAcute
ENCODING 537
SWIDTH 448 0
DWIDTH 14 0
BBX 14 30 0 -7
BITMAP
0000
00F0
01E0
01C0
0380
1B30
1C70
0FE0
07C0
0000
0FE0
1FF0
1C38
0038
0038
07F8
1FF8
3C38
3838
3838
3878
1FF8
0FB8
0000
0000
0000
0000
0000
0000
0000
ENDCHAR
STARTCHAR LtCapOTildeAcute
ENCODING 538
SWIDTH 448 0
DWIDTH 14 0
BBX 14 30 0 -7
BITMAP
0000
01C0
0180
0300
0000
1F70
3BE0
0000
0780
1FE0
3CF0
3870
7038
7038
7038
7038
7038
7038
7038
3870
3CF0
1FE0
0780
0000
0000
0000
0000
0000
0000
0000
ENDCHAR
STARTCHAR LtCapUTildeAcute
ENCODING 539
SWIDTH 448 0
DWIDTH 14 0
BBX 14 30 0 -7
BITMAP
0000
01C0
0180
0300
0000
1F70
3BE0
0000
3838
3838
3838
3838
3838
3838
3838
3838
3838
3838
3838
3838
1C70
1FF0
07C0
0000
0000
0000
0000
0000
0000
0000
ENDCHAR
STARTCHAR LtSmlOTildeAcute
ENCODING 540
SWIDTH 448 0
DWIDTH 14 0
BBX 14 30 0 -7
BITMAP
0000
01F8
03E0
0780
0000
0730
0FB0
0DF0
0CE0
0000
07C0
1FF0
1C70
3838
3838
3838
3838
3838
3838
3838
1C70
1FF0
07C0
0000
0000
0000
0000
0000
0000
0000
ENDCHAR
STARTCHAR LtSmlUTildeAcute
ENCODING 541
SWIDTH 448 0
DWIDTH 14 0
BBX 14 30 0 -7
BITMAP
0000
01F8
03E0
0780
0000
0730
0FB0
0DF0
0CE0
0000
3838
3838
3838
3838
3838
3838
3838
3838
3838
3878
3CF8
1FB8
0F38
0000
0000
0000
0000
0000
0000
0000
ENDCHAR
STARTCHAR LtCapOAcute2
ENCODING 542
SWIDTH 448 0
DWIDTH 14 0
BBX 14 30 0 -7
BITMAP
0000
03B8
0770
0EE0
0CC0
0000
0780
1FE0
3CF0
3870
7038
7038
7038
7038
7038
7038
7038
7038
7038
3870
3CF0
1FE0
0780
0000
0000
0000
0000
0000
0000
0000
ENDCHAR
STARTCHAR LtCapUAcute2
ENCODING 543
SWIDTH 448 0
DWIDTH 14 0
BBX 14 30 0 -7
BITMAP
0000
03B8
0770
0EE0
0CC0
0000
3838
3838
3838
3838
3838
3838
3838
3838
3838
3838
3838
3838
3838
3838
1C70
1FF0
07C0
0000
0000
0000
0000
0000
0000
0000
ENDCHAR
STARTCHAR LtSmlOAcute2
ENCODING 544
SWIDTH 448 0
DWIDTH 14 0
BBX 14 30 0 -7
BITMAP
0000
0000
0000
0000
03B8
0770
0EE0
0CC0
0000
0000
07C0
1FF0
1C70
3838
3838
3838
3838
3838
3838
3838
1C70
1FF0
07C0
0000
0000
0000
0000
0000
0000
0000
ENDCHAR
STARTCHAR LtSmlUAcute2
ENCODING 545
SWIDTH 448 0
DWIDTH 14 0
BBX 14 30 0 -7
BITMAP
0000
0000
0000
0000
03B8
0770
0EE0
0CC0
0000
0000
3838
3838
3838
3838
3838
3838
3838
3838
3838
3878
3CF8
1FB8
0F38
0000
0000
0000
0000
0000
0000
0000
ENDCHAR
STARTCHAR LtCapAGrave
ENCODING 546
SWIDTH 448 0
DWIDTH 14 0
BBX 14 30 0 -7
BITMAP
0000
0F00
0700
0380
0180
0000
0380
0380
07C0
07C0
06C0
0EE0
0EE0
0C60
1C70
1C70
1FF0
3FF8
3838
3838
701C
701C
701C
0000
0000
0000
0000
0000
0000
0000
ENDCHAR
STARTCHAR LtCapEGrave
ENCODING 547
SWIDTH 448 0
DWIDTH 14 0
BBX 14 30 0 -7
BITMAP
0000
0F00
0700
0380
0180
0000
3FF8
3FF8
3800
3800
3800
3800
3800
3FE0
3FE0
3800
3800
3800
3800
3800
3800
3FF8
3FF8
0000
0000
0000
0000
0000
0000
0000
ENDCHAR
STARTCHAR LtCapIGrave
ENCODING 548
SWIDTH 448 0
DWIDTH 14 0
BBX 14 30 0 -7
BITMAP
0000
0F00
0700
0380
0180
0000
1FF0
1FF0
0380
0380
0380
0380
0380
0380
0380
0380
0380
0380
0380
0380
0380
1FF0
1FF0
0000
0000
0000
0000
0000
0000
0000
ENDCHAR
STARTCHAR LtCapNGrave
ENCODING 549
SWIDTH 448 0
DWIDTH 14 0
BBX 14 30 0 -7
BITMAP
0000
0F00
0700
0380
0180
0000
3838
3838
3C38
3C38
3E38
3E38
3F38
3B38
3BB8
39B8
39F8
38F8
38F8
3878
3878
3838
3838
0000
0000
0000
0000
0000
0000
0000
ENDCHAR
STARTCHAR LtCapOGrave
ENCODING 550
SWIDTH 448 0
DWIDTH 14 0
BBX 14 30 0 -7
BITMAP
0000
1E00
0E00
0700
0300
0000
0780
1FE0
3CF0
3870
7038
7038
7038
7038
7038
7038
7038
7038
7038
3870
3CF0
1FE0
0780
0000
0000
0000
0000
0000
0000
0000
ENDCHAR
STARTCHAR LtCapUGrave
ENCODING 551
SWIDTH 448 0
DWIDTH 14 0
BBX 14 30 0 -7
BITMAP
0000
0F00
0700
0380
0180
0000
3838
3838
3838
3838
3838
3838
3838
3838
3838
3838
3838
3838
3838
3838
1C70
1FF0
07C0
0000
0000
0000
0000
0000
0000
0000
ENDCHAR
STARTCHAR LtCapWGrave
ENCODING 552
SWIDTH 448 0
DWIDTH 14 0
BBX 14 30 0 -7
BITMAP
0000
0F00
0700
0380
0180
0000
701C
701C
701C
701C
701C
711C
3938
3BB8
3BB8
3BB8
3BB8
1EF0
1EF0
1EF0
1C70
1C70
1C70
0000
0000
0000
0000
0000
0000
0000
ENDCHAR
STARTCHAR LtCapYGrave
ENCODING 553
SWIDTH 448 0
DWIDTH 14 0
BBX 14 30 0 -7
BITMAP
0000
0F00
0700
0380
0180
0000
701C
3838
3838
1C70
1C70
0EE0
0EE0
07C0
07C0
0380
0380
0380
0380
0380
0380
0380
0380
0000
0000
0000
0000
0000
0000
0000
ENDCHAR
STARTCHAR LtCapEpsGrave
ENCODING 554
SWIDTH 448 0
DWIDTH 14 0
BBX 14 30 0 -7
BITMAP
0000
0F00
0700
0380
0180
0000
07F0
1FF8
3C38
3818
3800
3800
1C00
0F80
0F80
1C00
3800
3800
3800
3818
3C38
1FF8
07F0
0000
0000
0000
0000
0000
0000
0000
ENDCHAR
STARTCHAR LtCapCTrndGrave
ENCODING 555
SWIDTH 448 0
DWIDTH 14 0
BBX 14 30 0 -7
BITMAP
0000
0F00
0700
0380
0180
0000
1F80
3FE0
38F0
3070
0038
0038
0038
0038
0038
0038
0038
0038
0038
3070
38F0
3FE0
1F80
0000
0000
0000
0000
0000
0000
0000
ENDCHAR
STARTCHAR LtSmlAGrave
ENCODING 556
SWIDTH 448 0
DWIDTH 14 0
BBX 14 30 0 -7
BITMAP
0000
0000
0000
0000
0F00
0780
0380
01C0
00C0
0000
0FE0
1FF0
1C38
0038
0038
07F8
1FF8
3C38
3838
3838
3878
1FF8
0FB8
0000
0000
0000
0000
0000
0000
0000
ENDCHAR
STARTCHAR LtSmlEGrave
ENCODING 557
SWIDTH 448 0
DWIDTH 14 0
BBX 14 30 0 -7
BITMAP
0000
0000
0000
0000
0F00
0780
0380
01C0
00C0
0000
07C0
1FF0
1C70
3838
3838
3FF8
3FF8
3800
3800
3800
1C38
1FF0
07E0
0000
0000
0000
0000
0000
0000
0000
ENDCHAR
STARTCHAR LtSmlIGrave
ENCODING 558
SWIDTH 448 0
DWIDTH 14 0
BBX 14 30 0 -7
BITMAP
0000
0000
0000
0000
1E00
0F00
0700
0380
0180
0000
1F80
1F80
0380
0380
0380
0380
0380
0380
0380
0380
0380
3FF8
3FF8
0000
0000
0000
0000
0000
0000
0000
ENDCHAR
STARTCHAR LtSmlNGrave
ENCODING 559
SWIDTH 448 0
DWIDTH 14 0
BBX 14 30 0 -7
BITMAP
0000
0000
0000
0000
1E00
0F00
0700
0380
0180
0000
39E0
3BF0
3E78
3C38
3838
3838
3838
3838
3838
3838
3838
3838
3838
0000
0000
0000
0000
0000
0000
0000
ENDCHAR
STARTCHAR LtSmlOGrave
ENCODING 560
SWIDTH 448 0
DWIDTH 14 0
BBX 14 30 0 -7
BITMAP
0000
0000
0000
0000
1E00
0F00
0700
0380
0180
0000
07C0
1FF0
1C70
3838
3838
3838
3838
3838
3838
3838
1C70
1FF0
07C0
0000
0000
0000
0000
0000
0000
0000
ENDCHAR
STARTCHAR LtSmlUGrave
ENCODING 561
SWIDTH 448 0
DWIDTH 14 0
BBX 14 30 0 -7
BITMAP
0000
0000
0000
0000
1E00
0F00
0700
0380
0180
0000
3838
3838
3838
3838
3838
3838
3838
3838
3838
3878
3CF8
1FB8
0F38
0000
0000
0000
0000
0000
0000
0000
ENDCHAR
STARTCHAR LtSmlWGrave
ENCODING 562
SWIDTH 448 0
DWIDTH 14 0
BBX 14 30 0 -7
BITMAP
0000
0000
0000
0000
1E00
0F00
0700
0380
0180
0000
701C
701C
701C
711C
711C
3BB8
3BB8
3BB8
3BB8
1EF0
1EF0
1C70
1C70
0000
0000
0000
0000
0000
0000
0000
ENDCHAR
STARTCHAR LtSmlYGrave
ENCODING 563
SWIDTH 448 0
DWIDTH 14 0
BBX 14 30 0 -7
BITMAP
0000
0000
0000
0000
1E00
0F00
0700
0380
0180
0000
3838
3838
3838
1C38
1C70
0E70
0E70
0E70
07E0
07E0
03E0
03C0
01C0
01C0
0380
7380
7F00
3E00
0000
0000
ENDCHAR
STARTCHAR LtSmlEpsGrave
ENCODING 564
SWIDTH 448 0
DWIDTH 14 0
BBX 14 30 0 -7
BITMAP
0000
0000
0000
0000
0F00
0780
0380
01C0
00C0
0000
0FF0
1FF8
3C38
3818
3800
1F80
0F80
1C00
3800
3818
3C38
1FF8
0FF0
0000
0000
0000
0000
0000
0000
0000
ENDCHAR
STARTCHAR LtSmlCTrndGrave
ENCODING 565
SWIDTH 448 0
DWIDTH 14 0
BBX 14 30 0 -7
BITMAP
0000
0000
0000
0000
1E00
0F00
0700
0380
0180
0000
1FC0
3FE0
38F0
3070
0038
0038
0038
0038
0038
3070
38F0
3FE0
1FC0
0000
0000
0000
0000
0000
0000
0000
ENDCHAR
STARTCHAR LtCapOHornGrave
ENCODING 566
SWIDTH 448 0
DWIDTH 14 0
BBX 14 30 0 -7
BITMAP
0000
1E00
0E00
0700
031C
001C
078C
1FFC
3CF8
3870
7038
7038
7038
7038
7038
7038
7038
7038
7038
3870
3CF0
1FE0
0780
0000
0000
0000
0000
0000
0000
0000
ENDCHAR
STARTCHAR LtCapUHornGrave
ENCODING 567
SWIDTH 448 0
DWIDTH 14 0
BBX 14 30 0 -7
BITMAP
0000
1E00
0E00
0700
031C
001C
70CC
70FC
70FC
70F8
70E0
70E0
70E0
70E0
70E0
70E0
70E0
70E0
70E0
70E0
39C0
3FC0
0F00
0000
0000
0000
0000
0000
0000
0000
ENDCHAR
STARTCHAR LtSmlOHornGrave
ENCODING 568
SWIDTH 448 0
DWIDTH 14 0
BBX 14 30 0 -7
BITMAP
0000
0000
0000
0000
3C00
1E00
0E00
0700
031C
001C
0F8C
3FDC
38FC
7078
7070
7070
7070
7070
7070
7070
38E0
3FE0
0F80
0000
0000
0000
0000
0000
0000
0000
ENDCHAR
STARTCHAR LtSmlUHornGrave
ENCODING 569
SWIDTH 448 0
DWIDTH 14 0
BBX 14 30 0 -7
BITMAP
0000
0000
0000
0000
3C00
1E00
0E00
0700
031C
001C
70CC
70FC
70FC
70F8
70E0
70E0
70E0
70E0
70E0
71E0
7BE0
3EE0
1CE0
0000
0000
0000
0000
0000
0000
0000
ENDCHAR
STARTCHAR LtCapUDrssGrave
ENCODING 570
SWIDTH 448 0
DWIDTH 14 0
BBX 14 30 0 -7
BITMAP
0000
0F00
0700
1BB0
19B0
1830
0000
3838
3838
3838
3838
3838
3838
3838
3838
3838
3838
3838
3838
3838
1C70
1FF0
07C0
0000
0000
0000
0000
0000
0000
0000
ENDCHAR
STARTCHAR LtSmlUDrssGrave
ENCODING 571
SWIDTH 448 0
DWIDTH 14 0
BBX 14 30 0 -7
BITMAP
0000
0F00
0700
0380
0180
0000
0EE0
0EE0
0EE0
0000
3838
3838
3838
3838
3838
3838
3838
3838
3838
3878
3CF8
1FB8
0F38
0000
0000
0000
0000
0000
0000
0000
ENDCHAR
STARTCHAR LtCapEMacronGrave
ENCODING 572
SWIDTH 448 0
DWIDTH 14 0
BBX 14 30 0 -7
BITMAP
0000
3F00
0F80
03C0
0000
0FE0
0FE0
0000
3FF8
3FF8
3800
3800
3800
3800
3FE0
3FE0
3800
3800
3800
3800
3800
3FF8
3FF8
0000
0000
0000
0000
0000
0000
0000
ENDCHAR
STARTCHAR LtCapOMacronGrave
ENCODING 573
SWIDTH 448 0
DWIDTH 14 0
BBX 14 30 0 -7
BITMAP
0000
3F00
0F80
03C0
0000
1FE0
1FE0
0000
0780
1FE0
3CF0
3870
7038
7038
7038
7038
7038
7038
7038
3870
3CF0
1FE0
0780
0000
0000
0000
0000
0000
0000
0000
ENDCHAR
STARTCHAR LtSmlAMacronGrave
ENCODING 574
SWIDTH 448 0
DWIDTH 14 0
BBX 14 30 0 -7
BITMAP
0000
0F00
0700
0380
0180
0000
0FE0
0FE0
0000
0000
0FE0
1FF0
1C38
0038
0038
07F8
1FF8
3C38
3838
3838
3878
1FF8
0FB8
0000
0000
0000
0000
0000
0000
0000
ENDCHAR
STARTCHAR LtSmlEMacronGrave
ENCODING 575
SWIDTH 448 0
DWIDTH 14 0
BBX 14 30 0 -7
BITMAP
0000
0F00
0700
0380
0180
0000
0FE0
0FE0
0000
0000
07C0
1FF0
1C70
3838
3838
3FF8
3FF8
3800
3800
3800
1C38
1FF0
07E0
0000
0000
0000
0000
0000
0000
0000
ENDCHAR
STARTCHAR LtSmlIMacronGrave
ENCODING 576
SWIDTH 448 0
DWIDTH 14 0
BBX 14 30 0 -7
BITMAP
0000
0F00
0700
0380
0180
0000
0FE0
0FE0
0000
0000
1F80
1F80
0380
0380
0380
0380
0380
0380
0380
0380
0380
3FF8
3FF8
0000
0000
0000
0000
0000
0000
0000
ENDCHAR
STARTCHAR LtSmlOMacronGrave
ENCODING 577
SWIDTH 448 0
DWIDTH 14 0
BBX 14 30 0 -7
BITMAP
0000
0F00
0700
0380
0180
0000
0FE0
0FE0
0000
0000
07C0
1FF0
1C70
3838
3838
3838
3838
3838
3838
3838
1C70
1FF0
07C0
0000
0000
0000
0000
0000
0000
0000
ENDCHAR
STARTCHAR LtSmlUMacronGrave
ENCODING 578
SWIDTH 448 0
DWIDTH 14 0
BBX 14 30 0 -7
BITMAP
0000
0F00
0700
0380
0180
0000
0FE0
0FE0
0000
0000
3838
3838
3838
3838
3838
3838
3838
3838
3838
3878
3CF8
1FB8
0F38
0000
0000
0000
0000
0000
0000
0000
ENDCHAR
STARTCHAR LtCapACircumGrave
ENCODING 579
SWIDTH 448 0
DWIDTH 14 0
BBX 14 30 0 -7
BITMAP
0000
6000
7380
37C0
16E0
0000
0380
0380
07C0
07C0
06C0
0EE0
0EE0
0C60
1C70
1C70
1FF0
3FF8
3838
3838
701C
701C
701C
0000
0000
0000
0000
0000
0000
0000
ENDCHAR
STARTCHAR LtCapECircumGrave
ENCODING 580
SWIDTH 448 0
DWIDTH 14 0
BBX 14 30 0 -7
BITMAP
0000
6000
7380
37C0
16E0
0000
3FF8
3FF8
3800
3800
3800
3800
3800
3FE0
3FE0
3800
3800
3800
3800
3800
3800
3FF8
3FF8
0000
0000
0000
0000
0000
0000
0000
ENDCHAR
STARTCHAR LtCapOCircumGrave
ENCODING 581
SWIDTH 448 0
DWIDTH 14 0
BBX 14 30 0 -7
BITMAP
0000
6000
7380
37C0
16E0
0000
0780
1FE0
3CF0
3870
7038
7038
7038
7038
7038
7038
7038
7038
7038
3870
3CF0
1FE0
0780
0000
0000
0000
0000
0000
0000
0000
ENDCHAR
STARTCHAR LtSmlACircumGrave
ENCODING 582
SWIDTH 448 0
DWIDTH 14 0
BBX 14 30 0 -7
BITMAP
0000
6000
6000
7000
3380
17C0
0EE0
0C60
0000
0000
0FE0
1FF0
1C38
0038
0038
07F8
1FF8
3C38
3838
3838
3878
1FF8
0FB8
0000
0000
0000
0000
0000
0000
0000
ENDCHAR
STARTCHAR LtSmlECircumGrave
ENCODING 583
SWIDTH 448 0
DWIDTH 14 0
BBX 14 30 0 -7
BITMAP
0000
6000
6000
7000
3380
17C0
0EE0
0C60
0000
0000
07C0
1FF0
1C70
3838
3838
3FF8
3FF8
3800
3800
3800
1C38
1FF0
07E0
0000
0000
0000
0000
0000
0000
0000
ENDCHAR
STARTCHAR LtSmlOCircumGrave
ENCODING 584
SWIDTH 448 0
DWIDTH 14 0
BBX 14 30 0 -7
BITMAP
0000
6000
6000
7000
3380
17C0
0EE0
0C60
0000
0000
07C0
1FF0
1C70
3838
3838
3838
3838
3838
3838
3838
1C70
1FF0
07C0
0000
0000
0000
0000
0000
0000
0000
ENDCHAR
STARTCHAR LtCapABreveGrave
ENCODING 585
SWIDTH 448 0
DWIDTH 14 0
BBX 14 30 0 -7
BITMAP
0000
0700
0300
19B0
1C70
0FE0
07C0
0000
0380
0380
07C0
07C0
0EE0
0EE0
1C70
1C70
1FF0
3FF8
3838
3838
701C
701C
701C
0000
0000
0000
0000
0000
0000
0000
ENDCHAR
STARTCHAR LtSmlABreveGrave
ENCODING 586
SWIDTH 448 0
DWIDTH 14 0
BBX 14 30 0 -7
BITMAP
0000
1E00
0F00
0700
0380
19B0
1C70
0FE0
07C0
0000
0FE0
1FF0
1C38
0038
0038
07F8
1FF8
3C38
3838
3838
3878
1FF8
0FB8
0000
0000
0000
0000
0000
0000
0000
ENDCHAR
STARTCHAR LtCapAGrave2
ENCODING 587
SWIDTH 448 0
DWIDTH 14 0
BBX 14 30 0 -7
BITMAP
0000
3B80
1DC0
0EE0
0660
0000
0380
0380
07C0
07C0
06C0
0EE0
0EE0
0C60
1C70
1C70
1FF0
3FF8
3838
3838
701C
701C
701C
0000
0000
0000
0000
0000
0000
0000
ENDCHAR
STARTCHAR LtCapEGrave2
ENCODING 588
SWIDTH 448 0
DWIDTH 14 0
BBX 14 30 0 -7
BITMAP
0000
3B80
1DC0
0EE0
0660
0000
3FF8
3FF8
3800
3800
3800
3800
3800
3FE0
3FE0
3800
3800
3800
3800
3800
3800
3FF8
3FF8
0000
0000
0000
0000
0000
0000
0000
ENDCHAR
STARTCHAR LtCapIGrave2
ENCODING 589
SWIDTH 448 0
DWIDTH 14 0
BBX 14 30 0 -7
BITMAP
0000
3B80
1DC0
0EE0
0660
0000
1FF0
1FF0
0380
0380
0380
0380
0380
0380
0380
0380
0380
0380
0380
0380
0380
1FF0
1FF0
0000
0000
0000
0000
0000
0000
0000
ENDCHAR
STARTCHAR LtCapOGrave2
ENCODING 590
SWIDTH 448 0
DWIDTH 14 0
BBX 14 30 0 -7
BITMAP
0000
7700
3B80
1DC0
0CC0
0000
0780
1FE0
3CF0
3870
7038
7038
7038
7038
7038
7038
7038
7038
7038
3870
3CF0
1FE0
0780
0000
0000
0000
0000
0000
0000
0000
ENDCHAR
STARTCHAR LtCapRGrave2
ENCODING 591
SWIDTH 448 0
DWIDTH 14 0
BBX 14 30 0 -7
BITMAP
0000
3B80
1DC0
0EE0
0660
0000
3FC0
3FF0
3870
3838
3838
3838
3870
3FF0
3FC0
3980
39C0
38E0
38E0
3870
3838
3838
381C
0000
0000
0000
0000
0000
0000
0000
ENDCHAR
STARTCHAR LtCapUGrave2
ENCODING 592
SWIDTH 448 0
DWIDTH 14 0
BBX 14 30 0 -7
BITMAP
0000
3B80
1DC0
0EE0
0660
0000
3838
3838
3838
3838
3838
3838
3838
3838
3838
3838
3838
3838
3838
3838
1C70
1FF0
07C0
0000
0000
0000
0000
0000
0000
0000
ENDCHAR
STARTCHAR LtSmlAGrave2
ENCODING 593
SWIDTH 448 0
DWIDTH 14 0
BBX 14 30 0 -7
BITMAP
0000
0000
0000
0000
1DC0
0EE0
0770
0330
0000
0000
0FE0
1FF0
1C38
0038
0038
07F8
1FF8
3C38
3838
3838
3878
1FF8
0FB8
0000
0000
0000
0000
0000
0000
0000
ENDCHAR
STARTCHAR LtSmlEGrave2
ENCODING 594
SWIDTH 448 0
DWIDTH 14 0
BBX 14 30 0 -7
BITMAP
0000
0000
0000
0000
1DC0
0EE0
0770
0330
0000
0000
07C0
1FF0
1C70
3838
3838
3FF8
3FF8
3800
3800
3800
1C38
1FF0
07E0
0000
0000
0000
0000
0000
0000
0000
ENDCHAR
STARTCHAR LtSmlIGrave2
ENCODING 595
SWIDTH 448 0
DWIDTH 14 0
BBX 14 30 0 -7
BITMAP
0000
0000
0000
0000
3B80
1DC0
0EE0
0660
0000
0000
1F80
1F80
0380
0380
0380
0380
0380
0380
0380
0380
0380
3FF8
3FF8
0000
0000
0000
0000
0000
0000
0000
ENDCHAR
STARTCHAR LtSmlOGrave2
ENCODING 596
SWIDTH 448 0
DWIDTH 14 0
BBX 14 30 0 -7
BITMAP
0000
0000
0000
0000
3B80
1DC0
0EE0
0660
0000
0000
07C0
1FF0
1C70
3838
3838
3838
3838
3838
3838
3838
1C70
1FF0
07C0
0000
0000
0000
0000
0000
0000
0000
ENDCHAR
STARTCHAR LtSmlRGrave2
ENCODING 597
SWIDTH 448 0
DWIDTH 14 0
BBX 14 30 0 -7
BITMAP
0000
0000
0000
0000
3B80
1DC0
0EE0
0660
0000
0000
3CF0
3DF8
1FB8
1F18
1E00
1C00
1C00
1C00
1C00
1C00
1C00
1C00
1C00
0000
0000
0000
0000
0000
0000
0000
ENDCHAR
STARTCHAR LtSmlUGrave2
ENCODING 598
SWIDTH 448 0
DWIDTH 14 0
BBX 14 30 0 -7
BITMAP
0000
0000
0000
0000
3B80
1DC0
0EE0
0660
0000
0000
3838
3838
3838
3838
3838
3838
3838
3838
3838
3878
3CF8
1FB8
0F38
0000
0000
0000
0000
0000
0000
0000
ENDCHAR
STARTCHAR LtCapACircum
ENCODING 599
SWIDTH 448 0
DWIDTH 14 0
BBX 14 30 0 -7
BITMAP
0000
0380
07C0
0EE0
0C60
0000
0380
0380
07C0
07C0
06C0
0EE0
0EE0
0C60
1C70
1C70
1FF0
3FF8
3838
3838
701C
701C
701C
0000
0000
0000
0000
0000
0000
0000
ENDCHAR
STARTCHAR LtCapCCircum
ENCODING 600
SWIDTH 448 0
DWIDTH 14 0
BBX 14 30 0 -7
BITMAP
0000
01C0
03E0
0770
0630
0000
03F0
0FF8
1E38
1C18
3800
3800
3800
3800
3800
3800
3800
3800
3800
1C18
1E38
0FF8
03F0
0000
0000
0000
0000
0000
0000
0000
ENDCHAR
STARTCHAR LtCapECircum
ENCODING 601
SWIDTH 448 0
DWIDTH 14 0
BBX 14 30 0 -7
BITMAP
0000
0380
07C0
0EE0
0C60
0000
3FF8
3FF8
3800
3800
3800
3800
3800
3FE0
3FE0
3800
3800
3800
3800
3800
3800
3FF8
3FF8
0000
0000
0000
0000
0000
0000
0000
ENDCHAR
STARTCHAR LtCapGCircum
ENCODING 602
SWIDTH 448 0
DWIDTH 14 0
BBX 14 30 0 -7
BITMAP
0000
01C0
03E0
0770
0630
0000
03F0
0FF8
1E38
1C18
3800
3800
3800
3800
39F8
39F8
3838
3838
3838
1C38
1E38
0FF8
03F8
0000
0000
0000
0000
0000
0000
0000
ENDCHAR
STARTCHAR LtCapHCircum
ENCODING 603
SWIDTH 448 0
DWIDTH 14 0
BBX 14 30 0 -7
BITMAP
0000
0380
07C0
0EE0
0C60
0000
3838
3838
3838
3838
3838
3838
3838
3FF8
3FF8
3838
3838
3838
3838
3838
3838
3838
3838
0000
0000
0000
0000
0000
0000
0000
ENDCHAR
STARTCHAR LtCapICircum
ENCODING 604
SWIDTH 448 0
DWIDTH 14 0
BBX 14 30 0 -7
BITMAP
0000
0380
07C0
0EE0
0C60
0000
1FF0
1FF0
0380
0380
0380
0380
0380
0380
0380
0380
0380
0380
0380
0380
0380
1FF0
1FF0
0000
0000
0000
0000
0000
0000
0000
ENDCHAR
STARTCHAR LtCapJCircum
ENCODING 605
SWIDTH 448 0
DWIDTH 14 0
BBX 14 30 0 -7
BITMAP
0000
00E0
01F0
03B8
0318
0000
00F8
00F8
0070
0070
0070
0070
0070
0070
0070
0070
0070
3870
3870
3870
1CE0
1FE0
0780
0000
0000
0000
0000
0000
0000
0000
ENDCHAR
STARTCHAR LtCapNCircum
ENCODING 606
SWIDTH 448 0
DWIDTH 14 0
BBX 14 30 0 -7
BITMAP
0000
0380
07C0
0EE0
0C60
0000
3838
3838
3C38
3C38
3E38
3E38
3F38
3B38
3BB8
39B8
39F8
38F8
38F8
3878
3878
3838
3838
0000
0000
0000
0000
0000
0000
0000
ENDCHAR
STARTCHAR LtCapOCircum
ENCODING 607
SWIDTH 448 0
DWIDTH 14 0
BBX 14 30 0 -7
BITMAP
0000
0380
07C0
0EE0
0C60
0000
0780
1FE0
3CF0
3870
7038
7038
7038
7038
7038
7038
7038
7038
7038
3870
3CF0
1FE0
0780
0000
0000
0000
0000
0000
0000
0000
ENDCHAR
STARTCHAR LtCapSCircum
ENCODING 608
SWIDTH 448 0
DWIDTH 14 0
BBX 14 30 0 -7
BITMAP
0000
0380
07C0
0EE0
0C60
0000
0FF0
1FF8
3C38
3818
3800
3C00
1E00
0F00
07C0
01E0
00F0
0078
0038
3038
3878
3FF0
1FE0
0000
0000
0000
0000
0000
0000
0000
ENDCHAR
STARTCHAR LtCapUCircum
ENCODING 609
SWIDTH 448 0
DWIDTH 14 0
BBX 14 30 0 -7
BITMAP
0000
0380
07C0
0EE0
0C60
0000
3838
3838
3838
3838
3838
3838
3838
3838
3838
3838
3838
3838
3838
3838
1C70
1FF0
07C0
0000
0000
0000
0000
0000
0000
0000
ENDCHAR
STARTCHAR LtCapWCircum
ENCODING 610
SWIDTH 448 0
DWIDTH 14 0
BBX 14 30 0 -7
BITMAP
0000
0380
07C0
0EE0
0C60
0000
701C
701C
701C
701C
701C
711C
3938
3BB8
3BB8
3BB8
3BB8
1EF0
1EF0
1EF0
1C70
1C70
1C70
0000
0000
0000
0000
0000
0000
0000
ENDCHAR
STARTCHAR LtCapYCircum
ENCODING 611
SWIDTH 448 0
DWIDTH 14 0
BBX 14 30 0 -7
BITMAP
0000
0380
07C0
0EE0
0C60
0000
701C
3838
3838
1C70
1C70
0EE0
0EE0
07C0
07C0
0380
0380
0380
0380
0380
0380
0380
0380
0000
0000
0000
0000
0000
0000
0000
ENDCHAR
STARTCHAR LtCapZCircum
ENCODING 612
SWIDTH 448 0
DWIDTH 14 0
BBX 14 30 0 -7
BITMAP
0000
0380
07C0
0EE0
0C60
0000
3FF8
3FF8
0078
0070
00F0
00E0
01C0
03C0
0380
0780
0700
0E00
1E00
1C00
3C00
3FF8
3FF8
0000
0000
0000
0000
0000
0000
0000
ENDCHAR
STARTCHAR LtCapEpsCircum
ENCODING 613
SWIDTH 448 0
DWIDTH 14 0
BBX 14 30 0 -7
BITMAP
0000
0380
07C0
0EE0
0C60
0000
07F0
1FF8
3C38
3818
3800
3800
1C00
0F80
0F80
1C00
3800
3800
3800
3818
3C38
1FF8
07F0
0000
0000
0000
0000
0000
0000
0000
ENDCHAR
STARTCHAR LtCapCTrndCircum
ENCODING 614
SWIDTH 448 0
DWIDTH 14 0
BBX 14 30 0 -7
BITMAP
0000
0700
0F80
1DC0
18C0
0000
1F80
3FE0
38F0
3070
0038
0038
0038
0038
0038
0038
0038
0038
0038
3070
38F0
3FE0
1F80
0000
0000
0000
0000
0000
0000
0000
ENDCHAR
STARTCHAR LtSmlACircum
ENCODING 615
SWIDTH 448 0
DWIDTH 14 0
BBX 14 30 0 -7
BITMAP
0000
0000
0000
0000
0380
07C0
0EE0
0C60
0000
0000
0FE0
1FF0
1C38
0038
0038
07F8
1FF8
3C38
3838
3838
3878
1FF8
0FB8
0000
0000
0000
0000
0000
0000
0000
ENDCHAR
STARTCHAR LtSmlCCircum
ENCODING 616
SWIDTH 448 0
DWIDTH 14 0
BBX 14 30 0 -7
BITMAP
0000
0000
0000
0000
01C0
03E0
0770
0630
0000
0000
07F0
0FF8
1E38
1C18
3800
3800
3800
3800
3800
1C18
1E38
0FF8
07F0
0000
0000
0000
0000
0000
0000
0000
ENDCHAR
STARTCHAR LtSmlECircum
ENCODING 617
SWIDTH 448 0
DWIDTH 14 0
BBX 14 30 0 -7
BITMAP
0000
0000
0000
0000
0380
07C0
0EE0
0C60
0000
0000
07C0
1FF0
1C70
3838
3838
3FF8
3FF8
3800
3800
3800
1C38
1FF0
07E0
0000
0000
0000
0000
0000
0000
0000
ENDCHAR
STARTCHAR LtSmlGCircum
ENCODING 618
SWIDTH 448 0
DWIDTH 14 0
BBX 14 30 0 -7
BITMAP
0000
0000
0000
0000
0380
07C0
0EE0
0C60
0000
0000
0FCC
1FFC
3878
3870
3870
3870
1FE0
0FC0
1C00
1C00
1FF0
0FF8
1FFC
381C
381C
381C
1FF8
0FF0
0000
0000
ENDCHAR
STARTCHAR LtSmlHCircum
ENCODING 619
SWIDTH 448 0
DWIDTH 14 0
BBX 14 30 0 -7
BITMAP
0000
0380
07C0
0EE0
0C60
3000
3800
3800
3800
3800
39E0
3BF0
3E78
3C38
3838
3838
3838
3838
3838
3838
3838
3838
3838
0000
0000
0000
0000
0000
0000
0000
ENDCHAR
STARTCHAR LtSmlICircum
ENCODING 620
SWIDTH 448 0
DWIDTH 14 0
BBX 14 30 0 -7
BITMAP
0000
0000
0000
0000
0700
0F80
1DC0
18C0
0000
0000
1F80
1F80
0380
0380
0380
0380
0380
0380
0380
0380
0380
3FF8
3FF8
0000
0000
0000
0000
0000
0000
0000
ENDCHAR
STARTCHAR LtSmlJCircum
ENCODING 621
SWIDTH 448 0
DWIDTH 14 0
BBX 14 30 0 -7
BITMAP
0000
0000
0000
0000
0380
07C0
0EE0
0C60
0000
0000
0FC0
0FC0
01C0
01C0
01C0
01C0
01C0
01C0
01C0
01C0
01C0
01C0
01C0
01C0
01C0
63C0
7F80
3F00
0000
0000
ENDCHAR
STARTCHAR LtSmlNCircum
ENCODING 622
SWIDTH 448 0
DWIDTH 14 0
BBX 14 30 0 -7
BITMAP
0000
0000
0000
0000
0380
07C0
0EE0
0C60
0000
0000
39E0
3BF0
3E78
3C38
3838
3838
3838
3838
3838
3838
3838
3838
3838
0000
0000
0000
0000
0000
0000
0000
ENDCHAR
STARTCHAR LtSmlOCircum
ENCODING 623
SWIDTH 448 0
DWIDTH 14 0
BBX 14 30 0 -7
BITMAP
0000
0000
0000
0000
0380
07C0
0EE0
0C60
0000
0000
07C0
1FF0
1C70
3838
3838
3838
3838
3838
3838
3838
1C70
1FF0
07C0
0000
0000
0000
0000
0000
0000
0000
ENDCHAR
STARTCHAR LtSmlSCircum
ENCODING 624
SWIDTH 448 0
DWIDTH 14 0
BBX 14 30 0 -7
BITMAP
0000
0000
0000
0000
0380
07C0
0EE0
0C60
0000
0000
0FF0
1FF8
3838
3800
3C00
1F80
0FE0
03F0
0078
0038
3838
3FF0
1FE0
0000
0000
0000
0000
0000
0000
0000
ENDCHAR
STARTCHAR LtSmlUCircum
ENCODING 625
SWIDTH 448 0
DWIDTH 14 0
BBX 14 30 0 -7
BITMAP
0000
0000
0000
0000
0380
07C0
0EE0
0C60
0000
0000
3838
3838
3838
3838
3838
3838
3838
3838
3838
3878
3CF8
1FB8
0F38
0000
0000
0000
0000
0000
0000
0000
ENDCHAR
STARTCHAR LtSmlWCircum
ENCODING 626
SWIDTH 448 0
DWIDTH 14 0
BBX 14 30 0 -7
BITMAP
0000
0000
0000
0000
0380
07C0
0EE0
0C60
0000
0000
701C
701C
701C
711C
711C
3BB8
3BB8
3BB8
3BB8
1EF0
1EF0
1C70
1C70
0000
0000
0000
0000
0000
0000
0000
ENDCHAR
STARTCHAR LtSmlYCircum
ENCODING 627
SWIDTH 448 0
DWIDTH 14 0
BBX 14 30 0 -7
BITMAP
0000
0000
0000
0000
0380
07C0
0EE0
0C60
0000
0000
3838
3838
3838
1C38
1C70
0E70
0E70
0E70
07E0
07E0
03E0
03C0
01C0
01C0
0380
7380
7F00
3E00
0000
0000
ENDCHAR
STARTCHAR LtSmlZCircum
ENCODING 628
SWIDTH 448 0
DWIDTH 14 0
BBX 14 30 0 -7
BITMAP
0000
0000
0000
0000
0380
07C0
0EE0
0C60
0000
0000
3FF8
3FF8
0070
00E0
01E0
03C0
0380
0780
0F00
0E00
1C00
3FF8
3FF8
0000
0000
0000
0000
0000
0000
0000
ENDCHAR
STARTCHAR LtSmlEpsCircum
ENCODING 629
SWIDTH 448 0
DWIDTH 14 0
BBX 14 30 0 -7
BITMAP
0000
0000
0000
0000
0380
07C0
0EE0
0C60
0000
0000
0FF0
1FF8
3C38
3818
3800
1F80
0F80
1C00
3800
3818
3C38
1FF8
0FF0
0000
0000
0000
0000
0000
0000
0000
ENDCHAR
STARTCHAR LtSmlCTrndCircum
ENCODING 630
SWIDTH 448 0
DWIDTH 14 0
BBX 14 30 0 -7
BITMAP
0000
0000
0000
0000
0700
0F80
1DC0
18C0
0000
0000
1FC0
3FE0
38F0
3070
0038
0038
0038
0038
0038
3070
38F0
3FE0
1FC0
0000
0000
0000
0000
0000
0000
0000
ENDCHAR
STARTCHAR LtCapACaron
ENCODING 631
SWIDTH 448 0
DWIDTH 14 0
BBX 14 30 0 -7
BITMAP
0000
0C60
0EE0
07C0
0380
0000
0380
0380
07C0
07C0
06C0
0EE0
0EE0
0C60
1C70
1C70
1FF0
3FF8
3838
3838
701C
701C
701C
0000
0000
0000
0000
0000
0000
0000
ENDCHAR
STARTCHAR LtCapCCaron
ENCODING 632
SWIDTH 448 0
DWIDTH 14 0
BBX 14 30 0 -7
BITMAP
0000
0630
0770
03E0
01C0
0000
03F0
0FF8
1E38
1C18
3800
3800
3800
3800
3800
3800
3800
3800
3800
1C18
1E38
0FF8
03F0
0000
0000
0000
0000
0000
0000
0000
ENDCHAR
STARTCHAR LtCapDCaron
ENCODING 633
SWIDTH 448 0
DWIDTH 14 0
BBX 14 30 0 -7
BITMAP
0000
18C0
1DC0
0F80
0700
0000
3F80
3FE0
38F0
3870
3838
3838
3838
3838
3838
3838
3838
3838
3838
3870
38F0
3FE0
3F80
0000
0000
0000
0000
0000
0000
0000
ENDCHAR
STARTCHAR LtCapECaron
ENCODING 634
SWIDTH 448 0
DWIDTH 14 0
BBX 14 30 0 -7
BITMAP
0000
0C60
0EE0
07C0
0380
0000
3FF8
3FF8
3800
3800
3800
3800
3800
3FE0
3FE0
3800
3800
3800
3800
3800
3800
3FF8
3FF8
0000
0000
0000
0000
0000
0000
0000
ENDCHAR
STARTCHAR LtCapGCaron
ENCODING 635
SWIDTH 448 0
DWIDTH 14 0
BBX 14 30 0 -7
BITMAP
0000
0630
0770
03E0
01C0
0000
03F0
0FF8
1E38
1C18
3800
3800
3800
3800
39F8
39F8
3838
3838
3838
1C38
1E38
0FF8
03F8
0000
0000
0000
0000
0000
0000
0000
ENDCHAR
STARTCHAR LtCapHCaron
ENCODING 636
SWIDTH 448 0
DWIDTH 14 0
BBX 14 30 0 -7
BITMAP
0000
0C60
0EE0
07C0
0380
0000
3838
3838
3838
3838
3838
3838
3838
3FF8
3FF8
3838
3838
3838
3838
3838
3838
3838
3838
0000
0000
0000
0000
0000
0000
0000
ENDCHAR
STARTCHAR LtCapICaron
ENCODING 637
SWIDTH 448 0
DWIDTH 14 0
BBX 14 30 0 -7
BITMAP
0000
0C60
0EE0
07C0
0380
0000
1FF0
1FF0
0380
0380
0380
0380
0380
0380
0380
0380
0380
0380
0380
0380
0380
1FF0
1FF0
0000
0000
0000
0000
0000
0000
0000
ENDCHAR
STARTCHAR LtCapJCaron
ENCODING 638
SWIDTH 448 0
DWIDTH 14 0
BBX 14 30 0 -7
BITMAP
0000
0318
03B8
01F0
00E0
0000
00F8
00F8
0070
0070
0070
0070
0070
0070
0070
0070
0070
3870
3870
3870
1CE0
1FE0
0780
0000
0000
0000
0000
0000
0000
0000
ENDCHAR
STARTCHAR LtCapKCaron
ENCODING 639
SWIDTH 448 0
DWIDTH 14 0
BBX 14 30 0 -7
BITMAP
0000
0C60
0EE0
07C0
0380
0000
3838
3838
3870
38E0
38E0
39C0
3B80
3B80
3F80
3FC0
3DC0
38E0
38E0
3870
3870
3838
3838
0000
0000
0000
0000
0000
0000
0000
ENDCHAR
STARTCHAR LtCapLCaron
ENCODING 640
SWIDTH 448 0
DWIDTH 14 0
BBX 14 30 0 -7
BITMAP
0000
0000
0000
0000
0030
0078
3878
3818
3838
3870
3860
3800
3800
3800
3800
3800
3800
3800
3800
3800
3800
3FF8
3FF8
0000
0000
0000
0000
0000
0000
0000
ENDCHAR
STARTCHAR LtCapLCaronAlt
ENCODING 641
SWIDTH 448 0
DWIDTH 14 0
BBX 14 30 0 -7
BITMAP
0000
18C0
1DC0
0F80
0700
0000
3800
3800
3800
3800
3800
3800
3800
3800
3800
3800
3800
3800
3800
3800
3800
3FF8
3FF8
0000
0000
0000
0000
0000
0000
0000
ENDCHAR
STARTCHAR LtCapNCaron
ENCODING 642
SWIDTH 448 0
DWIDTH 14 0
BBX 14 30 0 -7
BITMAP
0000
0C60
0EE0
07C0
0380
0000
3838
3838
3C38
3C38
3E38
3E38
3F38
3B38
3BB8
39B8
39F8
38F8
38F8
3878
3878
3838
3838
0000
0000
0000
0000
0000
0000
0000
ENDCHAR
STARTCHAR LtCapOCaron
ENCODING 643
SWIDTH 448 0
DWIDTH 14 0
BBX 14 30 0 -7
BITMAP
0000
0C60
0EE0
07C0
0380
0000
0780
1FE0
3CF0
3870
7038
7038
7038
7038
7038
7038
7038
7038
7038
3870
3CF0
1FE0
0780
0000
0000
0000
0000
0000
0000
0000
ENDCHAR
STARTCHAR LtCapRCaron
ENCODING 644
SWIDTH 448 0
DWIDTH 14 0
BBX 14 30 0 -7
BITMAP
0000
18C0
1DC0
0F80
0700
0000
3FC0
3FF0
3870
3838
3838
3838
3870
3FF0
3FC0
3980
39C0
38E0
38E0
3870
3838
3838
381C
0000
0000
0000
0000
0000
0000
0000
ENDCHAR
STARTCHAR LtCapSCaron
ENCODING 645
SWIDTH 448 0
DWIDTH 14 0
BBX 14 30 0 -7
BITMAP
0000
0C60
0EE0
07C0
0380
0000
0FF0
1FF8
3C38
3818
3800
3C00
1E00
0F00
07C0
01E0
00F0
0078
0038
3038
3878
3FF0
1FE0
0000
0000
0000
0000
0000
0000
0000
ENDCHAR
STARTCHAR LtCapTCaron
ENCODING 646
SWIDTH 448 0
DWIDTH 14 0
BBX 14 30 0 -7
BITMAP
0000
0C60
0EE0
07C0
0380
0000
7FFC
7FFC
0380
0380
0380
0380
0380
0380
0380
0380
0380
0380
0380
0380
0380
0380
0380
0000
0000
0000
0000
0000
0000
0000
ENDCHAR
STARTCHAR LtCapUCaron
ENCODING 647
SWIDTH 448 0
DWIDTH 14 0
BBX 14 30 0 -7
BITMAP
0000
0C60
0EE0
07C0
0380
0000
3838
3838
3838
3838
3838
3838
3838
3838
3838
3838
3838
3838
3838
3838
1C70
1FF0
07C0
0000
0000
0000
0000
0000
0000
0000
ENDCHAR
STARTCHAR LtCapZCaron
ENCODING 648
SWIDTH 448 0
DWIDTH 14 0
BBX 14 30 0 -7
BITMAP
0000
0C60
0EE0
07C0
0380
0000
3FF8
3FF8
0078
0070
00F0
00E0
01C0
03C0
0380
0780
0700
0E00
1E00
1C00
3C00
3FF8
3FF8
0000
0000
0000
0000
0000
0000
0000
ENDCHAR
STARTCHAR LtCapEpsCaron
ENCODING 649
SWIDTH 448 0
DWIDTH 14 0
BBX 14 30 0 -7
BITMAP
0000
0630
0770
03E0
01C0
0000
07F0
1FF8
3C38
3818
3800
3800
1C00
0F80
0F80
1C00
3800
3800
3800
3818
3C38
1FF8
07F0
0000
0000
0000
0000
0000
0000
0000
ENDCHAR
STARTCHAR LtCapEzhCaron
ENCODING 650
SWIDTH 448 0
DWIDTH 14 0
BBX 14 30 0 -7
BITMAP
0000
0C60
0EE0
07C0
0380
0000
3FF8
3FF8
0070
00E0
01E0
01C0
0380
07C0
07F0
0070
0038
0038
0038
3038
3870
3FF0
1FC0
0000
0000
0000
0000
0000
0000
0000
ENDCHAR
STARTCHAR LtCapCTrndCaron
ENCODING 651
SWIDTH 448 0
DWIDTH 14 0
BBX 14 30 0 -7
BITMAP
0000
18C0
1DC0
0F80
0700
0000
1F80
3FE0
38F0
3070
0038
0038
0038
0038
0038
0038
0038
0038
0038
3070
38F0
3FE0
1F80
0000
0000
0000
0000
0000
0000
0000
ENDCHAR
STARTCHAR LtSmlACaron
ENCODING 652
SWIDTH 448 0
DWIDTH 14 0
BBX 14 30 0 -7
BITMAP
0000
0000
0000
0000
0C60
0EE0
07C0
0380
0000
0000
0FE0
1FF0
1C38
0038
0038
07F8
1FF8
3C38
3838
3838
3878
1FF8
0FB8
0000
0000
0000
0000
0000
0000
0000
ENDCHAR
STARTCHAR LtSmlCCaron
ENCODING 653
SWIDTH 448 0
DWIDTH 14 0
BBX 14 30 0 -7
BITMAP
0000
0000
0000
0000
0630
0770
03E0
01C0
0000
0000
07F0
0FF8
1E38
1C18
3800
3800
3800
3800
3800
1C18
1E38
0FF8
07F0
0000
0000
0000
0000
0000
0000
0000
ENDCHAR
STARTCHAR LtSmlDCaron
ENCODING 654
SWIDTH 448 0
DWIDTH 14 0
BBX 14 30 0 -7
BITMAP
0000
0000
0000
0018
003C
01DC
01CC
01DC
01D8
01F0
0DC0
3FC0
3BC0
71C0
71C0
71C0
71C0
71C0
71C0
71C0
3BC0
3FC0
0DC0
0000
0000
0000
0000
0000
0000
0000
ENDCHAR
STARTCHAR LtSmlDCaronAlt
ENCODING 655
SWIDTH 448 0
DWIDTH 14 0
BBX 14 30 0 -7
BITMAP
0000
0C60
0EE0
07C0
0380
0038
0038
0038
0038
0038
07B8
1FF8
1C78
3838
3838
3838
3838
3838
3838
3838
1C78
1FF8
07B8
0000
0000
0000
0000
0000
0000
0000
ENDCHAR
STARTCHAR LtSmlECaron
ENCODING 656
SWIDTH 448 0
DWIDTH 14 0
BBX 14 30 0 -7
BITMAP
0000
0000
0000
0000
0C60
0EE0
07C0
0380
0000
0000
07C0
1FF0
1C70
3838
3838
3FF8
3FF8
3800
3800
3800
1C38
1FF0
07E0
0000
0000
0000
0000
0000
0000
0000
ENDCHAR
STARTCHAR LtSmlGCaron
ENCODING 657
SWIDTH 448 0
DWIDTH 14 0
BBX 14 30 0 -7
BITMAP
0000
0000
0000
0000
0C60
0EE0
07C0
0380
0000
0000
0FCC
1FFC
3878
3870
3870
3870
1FE0
0FC0
1C00
1C00
1FF0
0FF8
1FFC
381C
381C
381C
1FF8
0FF0
0000
0000
ENDCHAR
STARTCHAR LtSmlHCaron
ENCODING 658
SWIDTH 448 0
DWIDTH 14 0
BBX 14 30 0 -7
BITMAP
0000
0630
0770
03E0
01C0
3800
3800
3800
3800
3800
39E0
3BF0
3E78
3C38
3838
3838
3838
3838
3838
3838
3838
3838
3838
0000
0000
0000
0000
0000
0000
0000
ENDCHAR
STARTCHAR LtSmlICaron
ENCODING 659
SWIDTH 448 0
DWIDTH 14 0
BBX 14 30 0 -7
BITMAP
0000
0000
0000
0000
18C0
1DC0
0F80
0700
0000
0000
1F80
1F80
0380
0380
0380
0380
0380
0380
0380
0380
0380
3FF8
3FF8
0000
0000
0000
0000
0000
0000
0000
ENDCHAR
STARTCHAR LtSmlJCaron
ENCODING 660
SWIDTH 448 0
DWIDTH 14 0
BBX 14 30 0 -7
BITMAP
0000
0000
0000
0000
0C60
0EE0
07C0
0380
0000
0000
0FC0
0FC0
01C0
01C0
01C0
01C0
01C0
01C0
01C0
01C0
01C0
01C0
01C0
01C0
01C0
63C0
7F80
3F00
0000
0000
ENDCHAR
STARTCHAR LtSmlKCaron
ENCODING 661
SWIDTH 448 0
DWIDTH 14 0
BBX 14 30 0 -7
BITMAP
0000
0630
0770
03E0
01C0
3800
3800
3800
3800
3800
3838
3878
38F0
39E0
3BC0
3F80
3FC0
3DC0
38E0
38E0
3870
3878
3838
0000
0000
0000
0000
0000
0000
0000
ENDCHAR
STARTCHAR LtSmlLCaron
ENCODING 662
SWIDTH 448 0
DWIDTH 14 0
BBX 14 30 0 -7
BITMAP
0000
0000
0000
0018
003C
3F3C
3F0C
071C
0738
0730
0700
0700
0700
0700
0700
0700
0700
0700
0700
0700
0700
7FF0
7FF0
0000
0000
0000
0000
0000
0000
0000
ENDCHAR
STARTCHAR LtSmlLCaronAlt
ENCODING 663
SWIDTH 448 0
DWIDTH 14 0
BBX 14 30 0 -7
BITMAP
0000
0C60
0EE0
07C0
0380
0000
1F80
1F80
0380
0380
0380
0380
0380
0380
0380
0380
0380
0380
0380
0380
0380
3FF8
3FF8
0000
0000
0000
0000
0000
0000
0000
ENDCHAR
STARTCHAR LtSmlNCaron
ENCODING 664
SWIDTH 448 0
DWIDTH 14 0
BBX 14 30 0 -7
BITMAP
0000
0000
0000
0000
0C60
0EE0
07C0
0380
0000
0000
39E0
3BF0
3E78
3C38
3838
3838
3838
3838
3838
3838
3838
3838
3838
0000
0000
0000
0000
0000
0000
0000
ENDCHAR
STARTCHAR LtSmlOCaron
ENCODING 665
SWIDTH 448 0
DWIDTH 14 0
BBX 14 30 0 -7
BITMAP
0000
0000
0000
0000
0C60
0EE0
07C0
0380
0000
0000
07C0
1FF0
1C70
3838
3838
3838
3838
3838
3838
3838
1C70
1FF0
07C0
0000
0000
0000
0000
0000
0000
0000
ENDCHAR
STARTCHAR LtSmlRCaron
ENCODING 666
SWIDTH 448 0
DWIDTH 14 0
BBX 14 30 0 -7
BITMAP
0000
0000
0000
0000
0C60
0EE0
07C0
0380
0000
0000
3CF0
3DF8
1FB8
1F18
1E00
1C00
1C00
1C00
1C00
1C00
1C00
1C00
1C00
0000
0000
0000
0000
0000
0000
0000
ENDCHAR
STARTCHAR LtSmlSCaron
ENCODING 667
SWIDTH 448 0
DWIDTH 14 0
BBX 14 30 0 -7
BITMAP
0000
0000
0000
0000
0C60
0EE0
07C0
0380
0000
0000
0FF0
1FF8
3838
3800
3C00
1F80
0FE0
03F0
0078
0038
3838
3FF0
1FE0
0000
0000
0000
0000
0000
0000
0000
ENDCHAR
STARTCHAR LtSmlTCaron
ENCODING 668
SWIDTH 448 0
DWIDTH 14 0
BBX 14 30 0 -7
BITMAP
0000
0000
0000
0018
003C
003C
020C
061C
0E38
0E30
7F80
7FC0
0E00
0E00
0E00
0E00
0E00
0E00
0E00
0E00
0E30
07F0
03E0
0000
0000
0000
0000
0000
0000
0000
ENDCHAR
STARTCHAR LtSmlTCaronAlt
ENCODING 669
SWIDTH 448 0
DWIDTH 14 0
BBX 14 30 0 -7
BITMAP
0000
0C60
0EE0
07C0
0380
0000
0100
0300
0700
0700
3FF0
3FF0
0700
0700
0700
0700
0700
0700
0700
0700
0718
03F8
01F0
0000
0000
0000
0000
0000
0000
0000
ENDCHAR
STARTCHAR LtSmlUCaron
ENCODING 670
SWIDTH 448 0
DWIDTH 14 0
BBX 14 30 0 -7
BITMAP
0000
0000
0000
0000
0C60
0EE0
07C0
0380
0000
0000
3838
3838
3838
3838
3838
3838
3838
3838
3838
3878
3CF8
1FB8
0F38
0000
0000
0000
0000
0000
0000
0000
ENDCHAR
STARTCHAR LtSmlZCaron
ENCODING 671
SWIDTH 448 0
DWIDTH 14 0
BBX 14 30 0 -7
BITMAP
0000
0000
0000
0000
0C60
0EE0
07C0
0380
0000
0000
3FF8
3FF8
0070
00E0
01E0
03C0
0380
0780
0F00
0E00
1C00
3FF8
3FF8
0000
0000
0000
0000
0000
0000
0000
ENDCHAR
STARTCHAR LtSmlEpsCaron
ENCODING 672
SWIDTH 448 0
DWIDTH 14 0
BBX 14 30 0 -7
BITMAP
0000
0000
0000
0000
0C60
0EE0
07C0
0380
0000
0000
0FF0
1FF8
3C38
3818
3800
1F80
0F80
1C00
3800
3818
3C38
1FF8
0FF0
0000
0000
0000
0000
0000
0000
0000
ENDCHAR
STARTCHAR LtSmlEzhCaron
ENCODING 673
SWIDTH 448 0
DWIDTH 14 0
BBX 14 30 0 -7
BITMAP
0000
0000
0000
0000
0C60
0EE0
07C0
0380
0000
0000
3FF8
3FF8
0070
00E0
01E0
01C0
0380
07C0
07F0
0070
0038
0038
0038
0038
3038
3870
3FF0
1FC0
0000
0000
ENDCHAR
STARTCHAR LtSmlCTrndCaron
ENCODING 674
SWIDTH 448 0
DWIDTH 14 0
BBX 14 30 0 -7
BITMAP
0000
0000
0000
0000
18C0
1DC0
0F80
0700
0000
0000
1FC0
3FE0
38F0
3070
0038
0038
0038
0038
0038
3070
38F0
3FE0
1FC0
0000
0000
0000
0000
0000
0000
0000
ENDCHAR
STARTCHAR LtCapDZCaron
ENCODING 675
SWIDTH 448 0
DWIDTH 14 0
BBX 14 30 0 -7
BITMAP
0000
00CC
00FC
0078
0030
0000
78FC
7CFC
7E1C
771C
771C
7738
7738
7738
7738
7770
7770
7770
7770
77E0
7EE0
7CFC
78FC
0000
0000
0000
0000
0000
0000
0000
ENDCHAR
STARTCHAR LtMixDZCaron
ENCODING 676
SWIDTH 448 0
DWIDTH 14 0
BBX 14 30 0 -7
BITMAP
0000
0000
0000
0000
00CC
00FC
7878
7C30
7E00
7700
77FC
77FC
771C
7738
7738
7770
7770
7770
77E0
76E0
7FC0
7DFC
79FC
0000
0000
0000
0000
0000
0000
0000
ENDCHAR
STARTCHAR LtSmlDZCaron
ENCODING 677
SWIDTH 448 0
DWIDTH 14 0
BBX 14 30 0 -7
BITMAP
0000
0000
0000
0000
00CC
07FC
0778
0730
0700
0700
1FFC
3FFC
771C
7738
7738
7738
7730
7770
7770
7770
77E0
3FFC
1FFC
0000
0000
0000
0000
0000
0000
0000
ENDCHAR
STARTCHAR LtCapUDrssCaron
ENCODING 678
SWIDTH 448 0
DWIDTH 14 0
BBX 14 30 0 -7
BITMAP
0000
06C0
07C0
1BB0
1930
1830
0000
3838
3838
3838
3838
3838
3838
3838
3838
3838
3838
3838
3838
3838
1C70
1FF0
07C0
0000
0000
0000
0000
0000
0000
0000
ENDCHAR
STARTCHAR LtSmlUDrssCaron
ENCODING 679
SWIDTH 448 0
DWIDTH 14 0
BBX 14 30 0 -7
BITMAP
0000
0C60
0EE0
07C0
0380
0000
0EE0
0EE0
0EE0
0000
3838
3838
3838
3838
3838
3838
3838
3838
3838
3878
3CF8
1FB8
0F38
0000
0000
0000
0000
0000
0000
0000
ENDCHAR
STARTCHAR LtCapABreve
ENCODING 680
SWIDTH 448 0
DWIDTH 14 0
BBX 14 30 0 -7
BITMAP
0000
0C30
0E70
07E0
03C0
0000
0380
0380
07C0
07C0
06C0
0EE0
0EE0
0C60
1C70
1C70
1FF0
3FF8
3838
3838
701C
701C
701C
0000
0000
0000
0000
0000
0000
0000
ENDCHAR
STARTCHAR LtCapEBreve
ENCODING 681
SWIDTH 448 0
DWIDTH 14 0
BBX 14 30 0 -7
BITMAP
0000
1860
1CE0
0FC0
0780
0000
3FF8
3FF8
3800
3800
3800
3800
3800
3FE0
3FE0
3800
3800
3800
3800
3800
3800
3FF8
3FF8
0000
0000
0000
0000
0000
0000
0000
ENDCHAR
STARTCHAR LtCapGBreve
ENCODING 682
SWIDTH 448 0
DWIDTH 14 0
BBX 14 30 0 -7
BITMAP
0000
0C30
0E70
07E0
03C0
0000
03F0
0FF8
1E38
1C18
3800
3800
3800
3800
39F8
39F8
3838
3838
3838
1C38
1E38
0FF8
03F8
0000
0000
0000
0000
0000
0000
0000
ENDCHAR
STARTCHAR LtCapIBreve
ENCODING 683
SWIDTH 448 0
DWIDTH 14 0
BBX 14 30 0 -7
BITMAP
0000
0C30
0E70
07E0
03C0
0000
1FF0
1FF0
0380
0380
0380
0380
0380
0380
0380
0380
0380
0380
0380
0380
0380
1FF0
1FF0
0000
0000
0000
0000
0000
0000
0000
ENDCHAR
STARTCHAR LtCapOBreve
ENCODING 684
SWIDTH 448 0
DWIDTH 14 0
BBX 14 30 0 -7
BITMAP
0000
1860
1CE0
0FC0
0780
0000
0780
1FE0
3CF0
3870
7038
7038
7038
7038
7038
7038
7038
7038
7038
3870
3CF0
1FE0
0780
0000
0000
0000
0000
0000
0000
0000
ENDCHAR
STARTCHAR LtCapUBreve
ENCODING 685
SWIDTH 448 0
DWIDTH 14 0
BBX 14 30 0 -7
BITMAP
0000
0C30
0E70
07E0
03C0
0000
3838
3838
3838
3838
3838
3838
3838
3838
3838
3838
3838
3838
3838
3838
1C70
1FF0
07C0
0000
0000
0000
0000
0000
0000
0000
ENDCHAR
STARTCHAR LtCapYBreve
ENCODING 686
SWIDTH 448 0
DWIDTH 14 0
BBX 14 30 0 -7
BITMAP
0000
0C30
0E70
07E0
03C0
0000
701C
3838
3838
1C70
1C70
0EE0
0EE0
07C0
07C0
0380
0380
0380
0380
0380
0380
0380
0380
0000
0000
0000
0000
0000
0000
0000
ENDCHAR
STARTCHAR LtSmlABreve
ENCODING 687
SWIDTH 448 0
DWIDTH 14 0
BBX 14 30 0 -7
BITMAP
0000
0000
0000
0000
0C30
0E70
07E0
03C0
0000
0000
0FE0
1FF0
1C38
0038
0038
07F8
1FF8
3C38
3838
3838
3878
1FF8
0FB8
0000
0000
0000
0000
0000
0000
0000
ENDCHAR
STARTCHAR LtSmlEBreve
ENCODING 688
SWIDTH 448 0
DWIDTH 14 0
BBX 14 30 0 -7
BITMAP
0000
0000
0000
0000
0C30
0E70
07E0
03C0
0000
0000
07C0
1FF0
1C70
3838
3838
3FF8
3FF8
3800
3800
3800
1C38
1FF0
07E0
0000
0000
0000
0000
0000
0000
0000
ENDCHAR
STARTCHAR LtSmlGBreve
ENCODING 689
SWIDTH 448 0
DWIDTH 14 0
BBX 14 30 0 -7
BITMAP
0000
0000
0000
0000
1860
1CE0
0FC0
0780
0000
0000
0FCC
1FFC
3878
3870
3870
3870
1FE0
0FC0
1C00
1C00
1FF0
0FF8
1FFC
381C
381C
381C
1FF8
0FF0
0000
0000
ENDCHAR
STARTCHAR LtSmlIBreve
ENCODING 690
SWIDTH 448 0
DWIDTH 14 0
BBX 14 30 0 -7
BITMAP
0000
0000
0000
0000
1860
1CE0
0FC0
0780
0000
0000
1F80
1F80
0380
0380
0380
0380
0380
0380
0380
0380
0380
3FF8
3FF8
0000
0000
0000
0000
0000
0000
0000
ENDCHAR
STARTCHAR LtSmlMBreve
ENCODING 691
SWIDTH 448 0
DWIDTH 14 0
BBX 14 30 0 -7
BITMAP
0000
0000
0000
0000
0C30
0E70
07E0
03C0
0000
0000
6630
6F78
7FFC
7BDC
739C
739C
739C
739C
739C
739C
739C
739C
739C
0000
0000
0000
0000
0000
0000
0000
ENDCHAR
STARTCHAR LtSmlNBreve
ENCODING 692
SWIDTH 448 0
DWIDTH 14 0
BBX 14 30 0 -7
BITMAP
0000
0000
0000
0000
0C30
0E70
07E0
03C0
0000
0000
39E0
3BF0
3E78
3C38
3838
3838
3838
3838
3838
3838
3838
3838
3838
0000
0000
0000
0000
0000
0000
0000
ENDCHAR
STARTCHAR LtSmlOBreve
ENCODING 693
SWIDTH 448 0
DWIDTH 14 0
BBX 14 30 0 -7
BITMAP
0000
0000
0000
0000
0C30
0E70
07E0
03C0
0000
0000
07C0
1FF0
1C70
3838
3838
3838
3838
3838
3838
3838
1C70
1FF0
07C0
0000
0000
0000
0000
0000
0000
0000
ENDCHAR
STARTCHAR LtSmlRBreve
ENCODING 694
SWIDTH 448 0
DWIDTH 14 0
BBX 14 30 0 -7
BITMAP
0000
0000
0000
0000
1860
1CE0
0FC0
0780
0000
0000
3CF0
3DF8
1FB8
1F18
1E00
1C00
1C00
1C00
1C00
1C00
1C00
1C00
1C00
0000
0000
0000
0000
0000
0000
0000
ENDCHAR
STARTCHAR LtSmlUBreve
ENCODING 695
SWIDTH 448 0
DWIDTH 14 0
BBX 14 30 0 -7
BITMAP
0000
0000
0000
0000
0C30
0E70
07E0
03C0
0000
0000
3838
3838
3838
3838
3838
3838
3838
3838
3838
3878
3CF8
1FB8
0F38
0000
0000
0000
0000
0000
0000
0000
ENDCHAR
STARTCHAR LtSmlYBreve
ENCODING 696
SWIDTH 448 0
DWIDTH 14 0
BBX 14 30 0 -7
BITMAP
0000
0000
0000
0000
0C30
0E70
07E0
03C0
0000
0000
3838
3838
3838
1C38
1C70
0E70
0E70
0E70
07E0
07E0
03E0
03C0
01C0
01C0
0380
7380
7F00
3E00
0000
0000
ENDCHAR
STARTCHAR LtSmlAMacronBreve
ENCODING 697
SWIDTH 448 0
DWIDTH 14 0
BBX 14 30 0 -7
BITMAP
0000
0C30
0E70
07E0
03C0
0000
0FE0
0FE0
0000
0000
0FE0
1FF0
1C38
0038
0038
07F8
1FF8
3C38
3838
3838
3878
1FF8
0FB8
0000
0000
0000
0000
0000
0000
0000
ENDCHAR
STARTCHAR LtSmlIMacronBreve
ENCODING 698
SWIDTH 448 0
DWIDTH 14 0
BBX 14 30 0 -7
BITMAP
0000
0C30
0E70
07E0
03C0
0000
0FE0
0FE0
0000
0000
1F80
1F80
0380
0380
0380
0380
0380
0380
0380
0380
0380
3FF8
3FF8
0000
0000
0000
0000
0000
0000
0000
ENDCHAR
STARTCHAR LtSmlUMacronBreve
ENCODING 699
SWIDTH 448 0
DWIDTH 14 0
BBX 14 30 0 -7
BITMAP
0000
0C30
0E70
07E0
03C0
0000
0FE0
0FE0
0000
0000
3838
3838
3838
3838
3838
3838
3838
3838
3838
3878
3CF8
1FB8
0F38
0000
0000
0000
0000
0000
0000
0000
ENDCHAR
STARTCHAR LtCapAInvbreve
ENCODING 700
SWIDTH 448 0
DWIDTH 14 0
BBX 14 30 0 -7
BITMAP
0000
03C0
07E0
0E70
0C30
0000
0380
0380
07C0
07C0
06C0
0EE0
0EE0
0C60
1C70
1C70
1FF0
3FF8
3838
3838
701C
701C
701C
0000
0000
0000
0000
0000
0000
0000
ENDCHAR
STARTCHAR LtCapEInvbreve
ENCODING 701
SWIDTH 448 0
DWIDTH 14 0
BBX 14 30 0 -7
BITMAP
0000
0780
0FC0
1CE0
1860
0000
3FF8
3FF8
3800
3800
3800
3800
3800
3FE0
3FE0
3800
3800
3800
3800
3800
3800
3FF8
3FF8
0000
0000
0000
0000
0000
0000
0000
ENDCHAR
STARTCHAR LtCapIInvbreve
ENCODING 702
SWIDTH 448 0
DWIDTH 14 0
BBX 14 30 0 -7
BITMAP
0000
03C0
07E0
0E70
0C30
0000
1FF0
1FF0
0380
0380
0380
0380
0380
0380
0380
0380
0380
0380
0380
0380
0380
1FF0
1FF0
0000
0000
0000
0000
0000
0000
0000
ENDCHAR
STARTCHAR LtCapOInvbreve
ENCODING 703
SWIDTH 448 0
DWIDTH 14 0
BBX 14 30 0 -7
BITMAP
0000
0780
0FC0
1CE0
1860
0000
0780
1FE0
3CF0
3870
7038
7038
7038
7038
7038
7038
7038
7038
7038
3870
3CF0
1FE0
0780
0000
0000
0000
0000
0000
0000
0000
ENDCHAR
STARTCHAR LtCapRInvbreve
ENCODING 704
SWIDTH 448 0
DWIDTH 14 0
BBX 14 30 0 -7
BITMAP
0000
0780
0FC0
1CE0
1860
0000
3FC0
3FF0
3870
3838
3838
3838
3870
3FF0
3FC0
3980
39C0
38E0
38E0
3870
3838
3838
381C
0000
0000
0000
0000
0000
0000
0000
ENDCHAR
STARTCHAR LtCapUInvbreve
ENCODING 705
SWIDTH 448 0
DWIDTH 14 0
BBX 14 30 0 -7
BITMAP
0000
03C0
07E0
0E70
0C30
0000
3838
3838
3838
3838
3838
3838
3838
3838
3838
3838
3838
3838
3838
3838
1C70
1FF0
07C0
0000
0000
0000
0000
0000
0000
0000
ENDCHAR
STARTCHAR LtSmlAInvbreve
ENCODING 706
SWIDTH 448 0
DWIDTH 14 0
BBX 14 30 0 -7
BITMAP
0000
0000
0000
0000
03C0
07E0
0E70
0C30
0000
0000
0FE0
1FF0
1C38
0038
0038
07F8
1FF8
3C38
3838
3838
3878
1FF8
0FB8
0000
0000
0000
0000
0000
0000
0000
ENDCHAR
STARTCHAR LtSmlEInvbreve
ENCODING 707
SWIDTH 448 0
DWIDTH 14 0
BBX 14 30 0 -7
BITMAP
0000
0000
0000
0000
03C0
07E0
0E70
0C30
0000
0000
07C0
1FF0
1C70
3838
3838
3FF8
3FF8
3800
3800
3800
1C38
1FF0
07E0
0000
0000
0000
0000
0000
0000
0000
ENDCHAR
STARTCHAR LtSmlIInvbreve
ENCODING 708
SWIDTH 448 0
DWIDTH 14 0
BBX 14 30 0 -7
BITMAP
0000
0000
0000
0000
0780
0FC0
1CE0
1860
0000
0000
1F80
1F80
0380
0380
0380
0380
0380
0380
0380
0380
0380
3FF8
3FF8
0000
0000
0000
0000
0000
0000
0000
ENDCHAR
STARTCHAR LtSmlOInvbreve
ENCODING 709
SWIDTH 448 0
DWIDTH 14 0
BBX 14 30 0 -7
BITMAP
0000
0000
0000
0000
03C0
07E0
0E70
0C30
0000
0000
07C0
1FF0
1C70
3838
3838
3838
3838
3838
3838
3838
1C70
1FF0
07C0
0000
0000
0000
0000
0000
0000
0000
ENDCHAR
STARTCHAR LtSmlRInvbreve
ENCODING 710
SWIDTH 448 0
DWIDTH 14 0
BBX 14 30 0 -7
BITMAP
0000
0000
0000
0000
0780
0FC0
1CE0
1860
0000
0000
3CF0
3DF8
1FB8
1F18
1E00
1C00
1C00
1C00
1C00
1C00
1C00
1C00
1C00
0000
0000
0000
0000
0000
0000
0000
ENDCHAR
STARTCHAR LtSmlUInvbreve
ENCODING 711
SWIDTH 448 0
DWIDTH 14 0
BBX 14 30 0 -7
BITMAP
0000
0000
0000
0000
03C0
07E0
0E70
0C30
0000
0000
3838
3838
3838
3838
3838
3838
3838
3838
3838
3878
3CF8
1FB8
0F38
0000
0000
0000
0000
0000
0000
0000
ENDCHAR
STARTCHAR LtSmlMCandra
ENCODING 712
SWIDTH 448 0
DWIDTH 14 0
BBX 14 30 0 -7
BITMAP
0000
0380
0380
0380
1830
1C70
0FE0
07C0
0000
0000
6630
6F78
7FFC
7BDC
739C
739C
739C
739C
739C
739C
739C
739C
739C
0000
0000
0000
0000
0000
0000
0000
ENDCHAR
STARTCHAR LtCapATilde
ENCODING 713
SWIDTH 448 0
DWIDTH 14 0
BBX 14 30 0 -7
BITMAP
0000
0730
0FB0
0DF0
0CE0
0000
0380
0380
07C0
07C0
06C0
0EE0
0EE0
0C60
1C70
1C70
1FF0
3FF8
3838
3838
701C
701C
701C
0000
0000
0000
0000
0000
0000
0000
ENDCHAR
STARTCHAR LtCapETilde
ENCODING 714
SWIDTH 448 0
DWIDTH 14 0
BBX 14 30 0 -7
BITMAP
0000
0730
0FB0
0DF0
0CE0
0000
3FF8
3FF8
3800
3800
3800
3800
3800
3FE0
3FE0
3800
3800
3800
3800
3800
3800
3FF8
3FF8
0000
0000
0000
0000
0000
0000
0000
ENDCHAR
STARTCHAR LtCapGTilde
ENCODING 715
SWIDTH 448 0
DWIDTH 14 0
BBX 14 30 0 -7
BITMAP
0000
0730
0FB0
0DF0
0CE0
0000
03F0
0FF8
1E38
1C18
3800
3800
3800
3800
39F8
39F8
3838
3838
3838
1C38
1E38
0FF8
03F8
0000
0000
0000
0000
0000
0000
0000
ENDCHAR
STARTCHAR LtCapITilde
ENCODING 716
SWIDTH 448 0
DWIDTH 14 0
BBX 14 30 0 -7
BITMAP
0000
0730
0FB0
0DF0
0CE0
0000
1FF0
1FF0
0380
0380
0380
0380
0380
0380
0380
0380
0380
0380
0380
0380
0380
1FF0
1FF0
0000
0000
0000
0000
0000
0000
0000
ENDCHAR
STARTCHAR LtCapLTilde
ENCODING 717
SWIDTH 448 0
DWIDTH 14 0
BBX 14 30 0 -7
BITMAP
0000
0E60
1F60
1BE0
19C0
0000
3800
3800
3800
3800
3800
3800
3800
3800
3800
3800
3800
3800
3800
3800
3800
3FF8
3FF8
0000
0000
0000
0000
0000
0000
0000
ENDCHAR
STARTCHAR LtCapNTilde
ENCODING 718
SWIDTH 448 0
DWIDTH 14 0
BBX 14 30 0 -7
BITMAP
0000
0E60
1F60
1BE0
19C0
0000
3838
3838
3C38
3C38
3E38
3E38
3F38
3B38
3BB8
39B8
39F8
38F8
38F8
3878
3878
3838
3838
0000
0000
0000
0000
0000
0000
0000
ENDCHAR
STARTCHAR LtCapOTilde
ENCODING 719
SWIDTH 448 0
DWIDTH 14 0
BBX 14 30 0 -7
BITMAP
0000
0E60
1F60
1BE0
19C0
0000
0780
1FE0
3CF0
3870
7038
7038
7038
7038
7038
7038
7038
7038
7038
3870
3CF0
1FE0
0780
0000
0000
0000
0000
0000
0000
0000
ENDCHAR
STARTCHAR LtCapUTilde
ENCODING 720
SWIDTH 448 0
DWIDTH 14 0
BBX 14 30 0 -7
BITMAP
0000
0E60
1F60
1BE0
19C0
0000
3838
3838
3838
3838
3838
3838
3838
3838
3838
3838
3838
3838
3838
3838
1C70
1FF0
07C0
0000
0000
0000
0000
0000
0000
0000
ENDCHAR
STARTCHAR LtCapVTilde
ENCODING 721
SWIDTH 448 0
DWIDTH 14 0
BBX 14 30 0 -7
BITMAP
0000
0E60
1F60
1BE0
19C0
0000
701C
701C
701C
3838
3838
3838
1C70
1C70
1C70
0C60
0EE0
0EE0
06C0
07C0
07C0
0380
0380
0000
0000
0000
0000
0000
0000
0000
ENDCHAR
STARTCHAR LtCapYTilde
ENCODING 722
SWIDTH 448 0
DWIDTH 14 0
BBX 14 30 0 -7
BITMAP
0000
0E60
1F60
1BE0
19C0
0000
701C
3838
3838
1C70
1C70
0EE0
0EE0
07C0
07C0
0380
0380
0380
0380
0380
0380
0380
0380
0000
0000
0000
0000
0000
0000
0000
ENDCHAR
STARTCHAR LtCapEpsTilde
ENCODING 723
SWIDTH 448 0
DWIDTH 14 0
BBX 14 30 0 -7
BITMAP
0000
0730
0FB0
0DF0
0CE0
0000
07F0
1FF8
3C38
3818
3800
3800
1C00
0F80
0F80
1C00
3800
3800
3800
3818
3C38
1FF8
07F0
0000
0000
0000
0000
0000
0000
0000
ENDCHAR
STARTCHAR LtCapCTrndTilde
ENCODING 724
SWIDTH 448 0
DWIDTH 14 0
BBX 14 30 0 -7
BITMAP
0000
0E60
1F60
1BE0
19C0
0000
1F80
3FE0
38F0
3070
0038
0038
0038
0038
0038
0038
0038
0038
0038
3070
38F0
3FE0
1F80
0000
0000
0000
0000
0000
0000
0000
ENDCHAR
STARTCHAR LtSmlATilde
ENCODING 725
SWIDTH 448 0
DWIDTH 14 0
BBX 14 30 0 -7
BITMAP
0000
0000
0000
0000
0730
0FB0
0DF0
0CE0
0000
0000
0FE0
1FF0
1C38
0038
0038
07F8
1FF8
3C38
3838
3838
3878
1FF8
0FB8
0000
0000
0000
0000
0000
0000
0000
ENDCHAR
STARTCHAR LtSmlETilde
ENCODING 726
SWIDTH 448 0
DWIDTH 14 0
BBX 14 30 0 -7
BITMAP
0000
0000
0000
0000
0730
0FB0
0DF0
0CE0
0000
0000
07C0
1FF0
1C70
3838
3838
3FF8
3FF8
3800
3800
3800
1C38
1FF0
07E0
0000
0000
0000
0000
0000
0000
0000
ENDCHAR
STARTCHAR LtSmlGTilde
ENCODING 727
SWIDTH 448 0
DWIDTH 14 0
BBX 14 30 0 -7
BITMAP
0000
0000
0000
0000
0730
0FB0
0DF0
0CE0
0000
0000
0FCC
1FFC
3878
3870
3870
3870
1FE0
0FC0
1C00
1C00
1FF0
0FF8
1FFC
381C
381C
381C
1FF8
0FF0
0000
0000
ENDCHAR
STARTCHAR LtSmlITilde
ENCODING 728
SWIDTH 448 0
DWIDTH 14 0
BBX 14 30 0 -7
BITMAP
0000
0000
0000
0000
0E60
1F60
1BE0
19C0
0000
0000
1F80
1F80
0380
0380
0380
0380
0380
0380
0380
0380
0380
3FF8
3FF8
0000
0000
0000
0000
0000
0000
0000
ENDCHAR
STARTCHAR LtSmlLTilde
ENCODING 729
SWIDTH 448 0
DWIDTH 14 0
BBX 14 30 0 -7
BITMAP
0000
0F30
1FF0
19E0
0000
1F80
1F80
0380
0380
0380
0380
0380
0380
0380
0380
0380
0380
0380
0380
0380
0380
3FF8
3FF8
0000
0000
0000
0000
0000
0000
0000
ENDCHAR
STARTCHAR LtSmlNTilde
ENCODING 730
SWIDTH 448 0
DWIDTH 14 0
BBX 14 30 0 -7
BITMAP
0000
0000
0000
0000
0E60
1F60
1BE0
19C0
0000
0000
39E0
3BF0
3E78
3C38
3838
3838
3838
3838
3838
3838
3838
3838
3838
0000
0000
0000
0000
0000
0000
0000
ENDCHAR
STARTCHAR LtSmlOTilde
ENCODING 731
SWIDTH 448 0
DWIDTH 14 0
BBX 14 30 0 -7
BITMAP
0000
0000
0000
0000
0730
0FB0
0DF0
0CE0
0000
0000
07C0
1FF0
1C70
3838
3838
3838
3838
3838
3838
3838
1C70
1FF0
07C0
0000
0000
0000
0000
0000
0000
0000
ENDCHAR
STARTCHAR LtSmlUTilde
ENCODING 732
SWIDTH 448 0
DWIDTH 14 0
BBX 14 30 0 -7
BITMAP
0000
0000
0000
0000
0730
0FB0
0DF0
0CE0
0000
0000
3838
3838
3838
3838
3838
3838
3838
3838
3838
3878
3CF8
1FB8
0F38
0000
0000
0000
0000
0000
0000
0000
ENDCHAR
STARTCHAR LtSmlVTilde
ENCODING 733
SWIDTH 448 0
DWIDTH 14 0
BBX 14 30 0 -7
BITMAP
0000
0000
0000
0000
0730
0FB0
0DF0
0CE0
0000
0000
701C
701C
3838
3838
1C70
1C70
1C70
0EE0
0EE0
07C0
07C0
0380
0380
0000
0000
0000
0000
0000
0000
0000
ENDCHAR
STARTCHAR LtSmlYTilde
ENCODING 734
SWIDTH 448 0
DWIDTH 14 0
BBX 14 30 0 -7
BITMAP
0000
0000
0000
0000
0730
0FB0
0DF0
0CE0
0000
0000
3838
3838
3838
1C38
1C70
0E70
0E70
0E70
07E0
07E0
03E0
03C0
01C0
01C0
0380
7380
7F00
3E00
0000
0000
ENDCHAR
STARTCHAR LtSmlEpsTilde
ENCODING 735
SWIDTH 448 0
DWIDTH 14 0
BBX 14 30 0 -7
BITMAP
0000
0000
0000
0000
0730
0FB0
0DF0
0CE0
0000
0000
0FF0
1FF8
3C38
3818
3800
1F80
0F80
1C00
3800
3818
3C38
1FF8
0FF0
0000
0000
0000
0000
0000
0000
0000
ENDCHAR
STARTCHAR LtSmlAScrTilde
ENCODING 736
SWIDTH 448 0
DWIDTH 14 0
BBX 14 30 0 -7
BITMAP
0000
0000
0000
0000
0730
0FB0
0DF0
0CE0
0000
0000
0738
1FB8
1CF8
3878
3838
3838
3838
3838
3838
3878
1CF8
1FBC
071C
0000
0000
0000
0000
0000
0000
0000
ENDCHAR
STARTCHAR LtSmlANonscrTilde
ENCODING 737
SWIDTH 448 0
DWIDTH 14 0
BBX 14 30 0 -7
BITMAP
0000
0000
0000
0000
0730
0FB0
0DF0
0CE0
0000
0000
0FE0
1FF0
1C38
0038
0038
07F8
1FF8
3C38
3838
3838
3878
1FF8
0FB8
0000
0000
0000
0000
0000
0000
0000
ENDCHAR
STARTCHAR LtSmlATrndTilde
ENCODING 738
SWIDTH 448 0
DWIDTH 14 0
BBX 14 30 0 -7
BITMAP
0000
0000
0000
0000
0E60
1F60
1BE0
19C0
0000
0000
77E0
7FF0
3C38
3838
3838
3878
3FF0
3FC0
3800
3800
3870
1FF0
0FE0
0000
0000
0000
0000
0000
0000
0000
ENDCHAR
STARTCHAR LtSmlCTrndTilde
ENCODING 739
SWIDTH 448 0
DWIDTH 14 0
BBX 14 30 0 -7
BITMAP
0000
0000
0000
0000
0E60
1F60
1BE0
19C0
0000
0000
1FC0
3FE0
38F0
3070
0038
0038
0038
0038
0038
3070
38F0
3FE0
1FC0
0000
0000
0000
0000
0000
0000
0000
ENDCHAR
STARTCHAR LtSmlAScrTrndTilde
ENCODING 740
SWIDTH 448 0
DWIDTH 14 0
BBX 14 30 0 -7
BITMAP
0000
0000
0000
0000
0E60
1F60
1BE0
19C0
0000
0000
71C0
7BF0
3E70
3C38
3838
3838
3838
3838
3838
3C38
3E70
3BF0
39C0
0000
0000
0000
0000
0000
0000
0000
ENDCHAR
STARTCHAR LtSmlOETilde
ENCODING 741
SWIDTH 448 0
DWIDTH 14 0
BBX 14 30 0 -7
BITMAP
0000
0000
0000
0000
0730
0FB0
0DF0
0CE0
0000
0000
1E78
3FFC
73DC
739C
739C
73FC
73FC
7380
7380
7380
73CC
3FFC
1E78
0000
0000
0000
0000
0000
0000
0000
ENDCHAR
STARTCHAR LtCapOHornTilde
ENCODING 742
SWIDTH 448 0
DWIDTH 14 0
BBX 14 30 0 -7
BITMAP
0000
1CC0
3EC0
37C0
339C
001C
078C
1FFC
3CF8
3870
7038
7038
7038
7038
7038
7038
7038
7038
7038
3870
3CF0
1FE0
0780
0000
0000
0000
0000
0000
0000
0000
ENDCHAR
STARTCHAR LtCapUHornTilde
ENCODING 743
SWIDTH 448 0
DWIDTH 14 0
BBX 14 30 0 -7
BITMAP
0000
1CC0
3EC0
37C0
339C
001C
70CC
70FC
70FC
70F8
70E0
70E0
70E0
70E0
70E0
70E0
70E0
70E0
70E0
70E0
39C0
3FC0
0F00
0000
0000
0000
0000
0000
0000
0000
ENDCHAR
STARTCHAR LtSmlOHornTilde
ENCODING 744
SWIDTH 448 0
DWIDTH 14 0
BBX 14 30 0 -7
BITMAP
0000
0000
0000
0000
0E60
1F60
1BE0
19C0
001C
001C
0F8C
3FDC
38FC
7078
7070
7070
7070
7070
7070
7070
38E0
3FE0
0F80
0000
0000
0000
0000
0000
0000
0000
ENDCHAR
STARTCHAR LtSmlUHornTilde
ENCODING 745
SWIDTH 448 0
DWIDTH 14 0
BBX 14 30 0 -7
BITMAP
0000
0000
0000
0000
1CC0
3EC0
37C0
3380
001C
001C
70CC
70FC
70FC
70F8
70E0
70E0
70E0
70E0
70E0
71E0
7BE0
3EE0
1CE0
0000
0000
0000
0000
0000
0000
0000
ENDCHAR
STARTCHAR LtSmlAMacronTilde
ENCODING 746
SWIDTH 448 0
DWIDTH 14 0
BBX 14 30 0 -7
BITMAP
0000
0730
0FB0
0DF0
0CE0
0000
0FE0
0FE0
0000
0000
0FE0
1FF0
1C38
0038
0038
07F8
1FF8
3C38
3838
3838
3878
1FF8
0FB8
0000
0000
0000
0000
0000
0000
0000
ENDCHAR
STARTCHAR LtSmlEMacronTilde
ENCODING 747
SWIDTH 448 0
DWIDTH 14 0
BBX 14 30 0 -7
BITMAP
0000
0730
0FB0
0DF0
0CE0
0000
0FE0
0FE0
0000
0000
07C0
1FF0
1C70
3838
3838
3FF8
3FF8
3800
3800
3800
1C38
1FF0
07E0
0000
0000
0000
0000
0000
0000
0000
ENDCHAR
STARTCHAR LtSmlIMacronTilde
ENCODING 748
SWIDTH 448 0
DWIDTH 14 0
BBX 14 30 0 -7
BITMAP
0000
0E60
1F60
1BE0
19C0
0000
0FE0
0FE0
0000
0000
1F80
1F80
0380
0380
0380
0380
0380
0380
0380
0380
0380
3FF8
3FF8
0000
0000
0000
0000
0000
0000
0000
ENDCHAR
STARTCHAR LtSmlOMacronTilde
ENCODING 749
SWIDTH 448 0
DWIDTH 14 0
BBX 14 30 0 -7
BITMAP
0000
0730
0FB0
0DF0
0CE0
0000
0FE0
0FE0
0000
0000
07C0
1FF0
1C70
3838
3838
3838
3838
3838
3838
3838
1C70
1FF0
07C0
0000
0000
0000
0000
0000
0000
0000
ENDCHAR
STARTCHAR LtSmlUMacronTilde
ENCODING 750
SWIDTH 448 0
DWIDTH 14 0
BBX 14 30 0 -7
BITMAP
0000
0730
0FB0
0DF0
0CE0
0000
0FE0
0FE0
0000
0000
3838
3838
3838
3838
3838
3838
3838
3838
3838
3878
3CF8
1FB8
0F38
0000
0000
0000
0000
0000
0000
0000
ENDCHAR
STARTCHAR LtCapACircumTilde
ENCODING 751
SWIDTH 448 0
DWIDTH 14 0
BBX 14 30 0 -7
BITMAP
0000
0FB8
1DF0
0000
0380
07C0
0EE0
0000
0380
0380
07C0
07C0
0EE0
0EE0
1C70
1C70
1FF0
3FF8
3838
3838
701C
701C
701C
0000
0000
0000
0000
0000
0000
0000
ENDCHAR
STARTCHAR LtCapECircumTilde
ENCODING 752
SWIDTH 448 0
DWIDTH 14 0
BBX 14 30 0 -7
BITMAP
0000
0FB8
1DF0
0000
0380
07C0
0EE0
0000
3FF8
3FF8
3800
3800
3800
3800
3FE0
3FE0
3800
3800
3800
3800
3800
3FF8
3FF8
0000
0000
0000
0000
0000
0000
0000
ENDCHAR
STARTCHAR LtCapOCircumTilde
ENCODING 753
SWIDTH 448 0
DWIDTH 14 0
BBX 14 30 0 -7
BITMAP
0000
0FB8
1DF0
0000
0380
07C0
0EE0
0000
0780
1FE0
3CF0
3870
7038
7038
7038
7038
7038
7038
7038
3870
3CF0
1FE0
0780
0000
0000
0000
0000
0000
0000
0000
ENDCHAR
STARTCHAR LtSmlACircumTilde
ENCODING 754
SWIDTH 448 0
DWIDTH 14 0
BBX 14 30 0 -7
BITMAP
0000
0F30
1FF0
19E0
0000
0380
07C0
0EE0
0C60
0000
0FE0
1FF0
1C38
0038
0038
07F8
1FF8
3C38
3838
3838
3878
1FF8
0FB8
0000
0000
0000
0000
0000
0000
0000
ENDCHAR
STARTCHAR LtSmlECircumTilde
ENCODING 755
SWIDTH 448 0
DWIDTH 14 0
BBX 14 30 0 -7
BITMAP
0000
0F30
1FF0
19E0
0000
0380
07C0
0EE0
0C60
0000
07C0
1FF0
1C70
3838
3838
3FF8
3FF8
3800
3800
3800
1C38
1FF0
07E0
0000
0000
0000
0000
0000
0000
0000
ENDCHAR
STARTCHAR LtSmlOCircumTilde
ENCODING 756
SWIDTH 448 0
DWIDTH 14 0
BBX 14 30 0 -7
BITMAP
0000
0F30
1FF0
19E0
0000
0380
07C0
0EE0
0C60
0000
07C0
1FF0
1C70
3838
3838
3838
3838
3838
3838
3838
1C70
1FF0
07C0
0000
0000
0000
0000
0000
0000
0000
ENDCHAR
STARTCHAR LtCapABreveTilde
ENCODING 757
SWIDTH 448 0
DWIDTH 14 0
BBX 14 30 0 -7
BITMAP
0000
0F70
1DE0
0000
1C70
0FE0
07C0
0000
0380
0380
07C0
07C0
0EE0
0EE0
1C70
1C70
1FF0
3FF8
3838
3838
701C
701C
701C
0000
0000
0000
0000
0000
0000
0000
ENDCHAR
STARTCHAR LtSmlABreveTilde
ENCODING 758
SWIDTH 448 0
DWIDTH 14 0
BBX 14 30 0 -7
BITMAP
0000
0F30
1FF0
19E0
0000
1C70
0FE0
07C0
0000
0000
0FE0
1FF0
1C38
0038
0038
07F8
1FF8
3C38
3838
3838
3878
1FF8
0FB8
0000
0000
0000
0000
0000
0000
0000
ENDCHAR
STARTCHAR LtCapAPs
ENCODING 759
SWIDTH 448 0
DWIDTH 14 0
BBX 14 30 0 -7
BITMAP
0000
0000
0000
0000
0000
6000
7380
3380
37C0
67C0
06C0
0EE0
0EE0
0C60
1C70
1C70
1FF0
3FF8
3838
3838
701C
701C
701C
0000
0000
0000
0000
0000
0000
0000
ENDCHAR
STARTCHAR LtCapIPs
ENCODING 760
SWIDTH 448 0
DWIDTH 14 0
BBX 14 30 0 -7
BITMAP
0000
0000
0000
0000
0000
3000
3BF8
1BF8
18E0
30E0
00E0
00E0
00E0
00E0
00E0
00E0
00E0
00E0
00E0
00E0
00E0
03F8
03F8
0000
0000
0000
0000
0000
0000
0000
ENDCHAR
STARTCHAR LtCapUPs
ENCODING 761
SWIDTH 448 0
DWIDTH 14 0
BBX 14 30 0 -7
BITMAP
0000
0000
0000
0000
0000
6000
771C
371C
371C
671C
071C
071C
071C
071C
071C
071C
071C
071C
071C
071C
03B8
03F8
00E0
0000
0000
0000
0000
0000
0000
0000
ENDCHAR
STARTCHAR LtSmlAPs
ENCODING 762
SWIDTH 448 0
DWIDTH 14 0
BBX 14 30 0 -7
BITMAP
0000
0000
0000
0380
03C0
00C0
01C0
0380
0000
0000
0FE0
1FF0
1C38
0038
0038
07F8
1FF8
3C38
3838
3838
3878
1FF8
0FB8
0000
0000
0000
0000
0000
0000
0000
ENDCHAR
STARTCHAR LtSmlIPs
ENCODING 763
SWIDTH 448 0
DWIDTH 14 0
BBX 14 30 0 -7
BITMAP
0000
0000
0000
0700
0780
0180
0380
0700
0000
0000
1F80
1F80
0380
0380
0380
0380
0380
0380
0380
0380
0380
3FF8
3FF8
0000
0000
0000
0000
0000
0000
0000
ENDCHAR
STARTCHAR LtSmlUPs
ENCODING 764
SWIDTH 448 0
DWIDTH 14 0
BBX 14 30 0 -7
BITMAP
0000
0000
0000
0380
03C0
00C0
01C0
0380
0000
0000
3838
3838
3838
3838
3838
3838
3838
3838
3838
3878
3CF8
1FB8
0F38
0000
0000
0000
0000
0000
0000
0000
ENDCHAR
STARTCHAR LtCapAVhook
ENCODING 765
SWIDTH 448 0
DWIDTH 14 0
BBX 14 30 0 -7
BITMAP
0000
0780
07C0
01C0
0380
0000
0380
0380
07C0
07C0
06C0
0EE0
0EE0
0C60
1C70
1C70
1FF0
3FF8
3838
3838
701C
701C
701C
0000
0000
0000
0000
0000
0000
0000
ENDCHAR
STARTCHAR LtCapEVhook
ENCODING 766
SWIDTH 448 0
DWIDTH 14 0
BBX 14 30 0 -7
BITMAP
0000
0780
07C0
01C0
0380
0000
3FF8
3FF8
3800
3800
3800
3800
3800
3FE0
3FE0
3800
3800
3800
3800
3800
3800
3FF8
3FF8
0000
0000
0000
0000
0000
0000
0000
ENDCHAR
STARTCHAR LtCapIVhook
ENCODING 767
SWIDTH 448 0
DWIDTH 14 0
BBX 14 30 0 -7
BITMAP
0000
0780
07C0
01C0
0380
0000
1FF0
1FF0
0380
0380
0380
0380
0380
0380
0380
0380
0380
0380
0380
0380
0380
1FF0
1FF0
0000
0000
0000
0000
0000
0000
0000
ENDCHAR
STARTCHAR LtCapOVhook
ENCODING 768
SWIDTH 448 0
DWIDTH 14 0
BBX 14 30 0 -7
BITMAP
0000
0780
07C0
01C0
0380
0000
0780
1FE0
3CF0
3870
7038
7038
7038
7038
7038
7038
7038
7038
7038
3870
3CF0
1FE0
0780
0000
0000
0000
0000
0000
0000
0000
ENDCHAR
STARTCHAR LtCapUVhook
ENCODING 769
SWIDTH 448 0
DWIDTH 14 0
BBX 14 30 0 -7
BITMAP
0000
0780
07C0
01C0
0380
0000
3838
3838
3838
3838
3838
3838
3838
3838
3838
3838
3838
3838
3838
3838
1C70
1FF0
07C0
0000
0000
0000
0000
0000
0000
0000
ENDCHAR
STARTCHAR LtCapYVhook
ENCODING 770
SWIDTH 448 0
DWIDTH 14 0
BBX 14 30 0 -7
BITMAP
0000
0780
07C0
01C0
0380
0000
701C
3838
3838
1C70
1C70
0EE0
0EE0
07C0
07C0
0380
0380
0380
0380
0380
0380
0380
0380
0000
0000
0000
0000
0000
0000
0000
ENDCHAR
STARTCHAR LtSmlAVhook
ENCODING 771
SWIDTH 448 0
DWIDTH 14 0
BBX 14 30 0 -7
BITMAP
0000
0000
0000
0000
07C0
07E0
00E0
00C0
0180
0000
0FE0
1FF0
1C38
0038
0038
07F8
1FF8
3C38
3838
3838
3878
1FF8
0FB8
0000
0000
0000
0000
0000
0000
0000
ENDCHAR
STARTCHAR LtSmlEVhook
ENCODING 772
SWIDTH 448 0
DWIDTH 14 0
BBX 14 30 0 -7
BITMAP
0000
0000
0000
0000
07C0
07E0
00E0
00C0
0180
0000
07C0
1FF0
1C70
3838
3838
3FF8
3FF8
3800
3800
3800
1C38
1FF0
07E0
0000
0000
0000
0000
0000
0000
0000
ENDCHAR
STARTCHAR LtSmlIVhook
ENCODING 773
SWIDTH 448 0
DWIDTH 14 0
BBX 14 30 0 -7
BITMAP
0000
0000
0000
0000
0F80
0FC0
01C0
0180
0300
0000
1F80
1F80
0380
0380
0380
0380
0380
0380
0380
0380
0380
3FF8
3FF8
0000
0000
0000
0000
0000
0000
0000
ENDCHAR
STARTCHAR LtSmlOVhook
ENCODING 774
SWIDTH 448 0
DWIDTH 14 0
BBX 14 30 0 -7
BITMAP
0000
0000
0000
0000
07C0
07E0
00E0
00C0
0180
0000
07C0
1FF0
1C70
3838
3838
3838
3838
3838
3838
3838
1C70
1FF0
07C0
0000
0000
0000
0000
0000
0000
0000
ENDCHAR
STARTCHAR LtSmlUVhook
ENCODING 775
SWIDTH 448 0
DWIDTH 14 0
BBX 14 30 0 -7
BITMAP
0000
0000
0000
0000
07C0
07E0
00E0
00C0
0180
0000
3838
3838
3838
3838
3838
3838
3838
3838
3838
3878
3CF8
1FB8
0F38
0000
0000
0000
0000
0000
0000
0000
ENDCHAR
STARTCHAR LtSmlYVhook
ENCODING 776
SWIDTH 448 0
DWIDTH 14 0
BBX 14 30 0 -7
BITMAP
0000
0000
0000
0000
07C0
07E0
00E0
00C0
0180
0000
3838
3838
3838
1C38
1C70
0E70
0E70
0E70
07E0
07E0
03E0
03C0
01C0
01C0
0380
7380
7F00
3E00
0000
0000
ENDCHAR
STARTCHAR LtCapOHornVhook
ENCODING 777
SWIDTH 448 0
DWIDTH 14 0
BBX 14 30 0 -7
BITMAP
0000
0F00
0F80
0380
071C
001C
078C
1FFC
3CF8
3870
7038
7038
7038
7038
7038
7038
7038
7038
7038
3870
3CF0
1FE0
0780
0000
0000
0000
0000
0000
0000
0000
ENDCHAR
STARTCHAR LtCapUHornVhook
ENCODING 778
SWIDTH 448 0
DWIDTH 14 0
BBX 14 30 0 -7
BITMAP
0000
0F00
0F80
0380
071C
001C
70CC
70FC
70FC
70F8
70E0
70E0
70E0
70E0
70E0
70E0
70E0
70E0
70E0
70E0
39C0
3FC0
0F00
0000
0000
0000
0000
0000
0000
0000
ENDCHAR
STARTCHAR LtSmlOHornVhook
ENCODING 779
SWIDTH 448 0
DWIDTH 14 0
BBX 14 30 0 -7
BITMAP
0000
0000
0000
0000
0F80
0FC0
01C0
0180
031C
001C
0F8C
3FDC
38FC
7078
7070
7070
7070
7070
7070
7070
38E0
3FE0
0F80
0000
0000
0000
0000
0000
0000
0000
ENDCHAR
STARTCHAR LtSmlUHornVhook
ENCODING 780
SWIDTH 448 0
DWIDTH 14 0
BBX 14 30 0 -7
BITMAP
0000
0000
0000
0000
1F00
1F80
0380
0300
061C
001C
70CC
70FC
70FC
70F8
70E0
70E0
70E0
70E0
70E0
71E0
7BE0
3EE0
1CE0
0000
0000
0000
0000
0000
0000
0000
ENDCHAR
STARTCHAR LtCapACircumVhook
ENCODING 781
SWIDTH 448 0
DWIDTH 14 0
BBX 14 30 0 -7
BITMAP
0000
0038
03BC
07CC
0ED8
0000
0380
0380
07C0
07C0
06C0
0EE0
0EE0
0C60
1C70
1C70
1FF0
3FF8
3838
3838
701C
701C
701C
0000
0000
0000
0000
0000
0000
0000
ENDCHAR
STARTCHAR LtCapECircumVhook
ENCODING 782
SWIDTH 448 0
DWIDTH 14 0
BBX 14 30 0 -7
BITMAP
0000
0038
03BC
07CC
0ED8
0000
3FF8
3FF8
3800
3800
3800
3800
3800
3FE0
3FE0
3800
3800
3800
3800
3800
3800
3FF8
3FF8
0000
0000
0000
0000
0000
0000
0000
ENDCHAR
STARTCHAR LtCapOCircumVhook
ENCODING 783
SWIDTH 448 0
DWIDTH 14 0
BBX 14 30 0 -7
BITMAP
0000
0038
073C
0F8C
1DD8
0000
0780
1FE0
3CF0
3870
7038
7038
7038
7038
7038
7038
7038
7038
7038
3870
3CF0
1FE0
0780
0000
0000
0000
0000
0000
0000
0000
ENDCHAR
STARTCHAR LtSmlACircumVhook
ENCODING 784
SWIDTH 448 0
DWIDTH 14 0
BBX 14 30 0 -7
BITMAP
0000
00F8
00FC
001C
0398
07F0
0EE0
0C60
0000
0000
0FE0
1FF0
1C38
0038
0038
07F8
1FF8
3C38
3838
3838
3878
1FF8
0FB8
0000
0000
0000
0000
0000
0000
0000
ENDCHAR
STARTCHAR LtSmlECircumVhook
ENCODING 785
SWIDTH 448 0
DWIDTH 14 0
BBX 14 30 0 -7
BITMAP
0000
00F8
00FC
001C
0398
07F0
0EE0
0C60
0000
0000
07C0
1FF0
1C70
3838
3838
3FF8
3FF8
3800
3800
3800
1C38
1FF0
07E0
0000
0000
0000
0000
0000
0000
0000
ENDCHAR
STARTCHAR LtSmlOCircumVhook
ENCODING 786
SWIDTH 448 0
DWIDTH 14 0
BBX 14 30 0 -7
BITMAP
0000
00F8
00FC
001C
0398
07F0
0EE0
0C60
0000
0000
07C0
1FF0
1C70
3838
3838
3838
3838
3838
3838
3838
1C70
1FF0
07C0
0000
0000
0000
0000
0000
0000
0000
ENDCHAR
STARTCHAR LtCapABreveVhook
ENCODING 787
SWIDTH 448 0
DWIDTH 14 0
BBX 14 30 0 -7
BITMAP
0000
0780
07C0
00C0
1DB0
0FE0
07C0
0000
0380
0380
07C0
07C0
0EE0
0EE0
1C70
1C70
1FF0
3FF8
3838
3838
701C
701C
701C
0000
0000
0000
0000
0000
0000
0000
ENDCHAR
STARTCHAR LtSmlABreveVhook
ENCODING 788
SWIDTH 448 0
DWIDTH 14 0
BBX 14 30 0 -7
BITMAP
0000
0F80
0FC0
01C0
0180
1B30
1C70
0FE0
07C0
0000
0FE0
1FF0
1C38
0038
0038
07F8
1FF8
3C38
3838
3838
3878
1FF8
0FB8
0000
0000
0000
0000
0000
0000
0000
ENDCHAR
STARTCHAR LtSmlNApostr
ENCODING 789
SWIDTH 448 0
DWIDTH 14 0
BBX 14 30 0 -7
BITMAP
0000
0000
0000
3000
7800
7800
1800
3800
7000
6000
1CF0
1DF8
1F3C
1E1C
1C1C
1C1C
1C1C
1C1C
1C1C
1C1C
1C1C
1C1C
1C1C
0000
0000
0000
0000
0000
0000
0000
ENDCHAR
STARTCHAR LtCapLMdot
ENCODING 790
SWIDTH 448 0
DWIDTH 14 0
BBX 14 30 0 -7
BITMAP
0000
0000
0000
0000
0000
0000
3800
3800
3800
3800
3800
3800
3838
3838
3838
3838
3800
3800
3800
3800
3800
3FF8
3FF8
0000
0000
0000
0000
0000
0000
0000
ENDCHAR
STARTCHAR LtSmlLMdot
ENCODING 791
SWIDTH 448 0
DWIDTH 14 0
BBX 14 30 0 -7
BITMAP
0000
0000
0000
0000
0000
3F00
3F00
0700
0700
0700
0700
071C
071C
071C
071C
0700
0700
0700
0700
0700
0700
7FF0
7FF0
0000
0000
0000
0000
0000
0000
0000
ENDCHAR
STARTCHAR LtCapALdot
ENCODING 792
SWIDTH 448 0
DWIDTH 14 0
BBX 14 30 0 -7
BITMAP
0000
0000
0000
0000
0000
0000
0380
0380
07C0
07C0
06C0
0EE0
0EE0
0C60
1C70
1C70
1FF0
3FF8
3838
3838
701C
701C
701C
0000
0000
0380
0380
0380
0000
0000
ENDCHAR
STARTCHAR LtCapBLdot
ENCODING 793
SWIDTH 448 0
DWIDTH 14 0
BBX 14 30 0 -7
BITMAP
0000
0000
0000
0000
0000
0000
3FC0
3FF0
3870
3838
3838
3838
3870
3FE0
3FE0
3870
3838
3838
3838
3838
3870
3FF0
3FC0
0000
0000
0380
0380
0380
0000
0000
ENDCHAR
STARTCHAR LtCapCLdot
ENCODING 794
SWIDTH 448 0
DWIDTH 14 0
BBX 14 30 0 -7
BITMAP
0000
0000
0000
0000
0000
0000
03F0
0FF8
1E38
1C18
3800
3800
3800
3800
3800
3800
3800
3800
3800
1C18
1E38
0FF8
03F0
0000
0000
01C0
01C0
01C0
0000
0000
ENDCHAR
STARTCHAR LtCapDLdot
ENCODING 795
SWIDTH 448 0
DWIDTH 14 0
BBX 14 30 0 -7
BITMAP
0000
0000
0000
0000
0000
0000
3F80
3FE0
38F0
3870
3838
3838
3838
3838
3838
3838
3838
3838
3838
3870
38F0
3FE0
3F80
0000
0000
0700
0700
0700
0000
0000
ENDCHAR
STARTCHAR LtCapELdot
ENCODING 796
SWIDTH 448 0
DWIDTH 14 0
BBX 14 30 0 -7
BITMAP
0000
0000
0000
0000
0000
0000
3FF8
3FF8
3800
3800
3800
3800
3800
3FE0
3FE0
3800
3800
3800
3800
3800
3800
3FF8
3FF8
0000
0000
0380
0380
0380
0000
0000
ENDCHAR
STARTCHAR LtCapHLdot
ENCODING 797
SWIDTH 448 0
DWIDTH 14 0
BBX 14 30 0 -7
BITMAP
0000
0000
0000
0000
0000
0000
3838
3838
3838
3838
3838
3838
3838
3FF8
3FF8
3838
3838
3838
3838
3838
3838
3838
3838
0000
0000
0380
0380
0380
0000
0000
ENDCHAR
STARTCHAR LtCapILdot
ENCODING 798
SWIDTH 448 0
DWIDTH 14 0
BBX 14 30 0 -7
BITMAP
0000
0000
0000
0000
0000
0000
1FF0
1FF0
0380
0380
0380
0380
0380
0380
0380
0380
0380
0380
0380
0380
0380
1FF0
1FF0
0000
0000
0380
0380
0380
0000
0000
ENDCHAR
STARTCHAR LtCapKLdot
ENCODING 799
SWIDTH 448 0
DWIDTH 14 0
BBX 14 30 0 -7
BITMAP
0000
0000
0000
0000
0000
0000
3838
3838
3870
38E0
38E0
39C0
3B80
3B80
3F80
3FC0
3DC0
38E0
38E0
3870
3870
3838
3838
0000
0000
0380
0380
0380
0000
0000
ENDCHAR
STARTCHAR LtCapLLdot
ENCODING 800
SWIDTH 448 0
DWIDTH 14 0
BBX 14 30 0 -7
BITMAP
0000
0000
0000
0000
0000
0000
3800
3800
3800
3800
3800
3800
3800
3800
3800
3800
3800
3800
3800
3800
3800
3FF8
3FF8
0000
0000
0380
0380
0380
0000
0000
ENDCHAR
STARTCHAR LtCapMLdot
ENCODING 801
SWIDTH 448 0
DWIDTH 14 0
BBX 14 30 0 -7
BITMAP
0000
0000
0000
0000
0000
0000
701C
701C
783C
7C7C
7C7C
7EFC
77DC
77DC
739C
739C
711C
701C
701C
701C
701C
701C
701C
0000
0000
0380
0380
0380
0000
0000
ENDCHAR
STARTCHAR LtCapNLdot
ENCODING 802
SWIDTH 448 0
DWIDTH 14 0
BBX 14 30 0 -7
BITMAP
0000
0000
0000
0000
0000
0000
3838
3838
3C38
3C38
3E38
3E38
3F38
3B38
3BB8
39B8
39F8
38F8
38F8
3878
3878
3838
3838
0000
0000
0380
0380
0380
0000
0000
ENDCHAR
STARTCHAR LtCapOLdot
ENCODING 803
SWIDTH 448 0
DWIDTH 14 0
BBX 14 30 0 -7
BITMAP
0000
0000
0000
0000
0000
0000
0780
1FE0
3CF0
3870
7038
7038
7038
7038
7038
7038
7038
7038
7038
3870
3CF0
1FE0
0780
0000
0000
0700
0700
0700
0000
0000
ENDCHAR
STARTCHAR LtCapPLdot
ENCODING 804
SWIDTH 448 0
DWIDTH 14 0
BBX 14 30 0 -7
BITMAP
0000
0000
0000
0000
0000
0000
3FC0
3FF0
3870
3838
3838
3838
3838
3870
3FF0
3FC0
3800
3800
3800
3800
3800
3800
3800
0000
0000
3800
3800
3800
0000
0000
ENDCHAR
STARTCHAR LtCapQLdot
ENCODING 805
SWIDTH 448 0
DWIDTH 14 0
BBX 14 30 0 -7
BITMAP
0000
0000
0000
0000
0000
0000
0780
1FE0
3CF0
3870
7038
7038
7038
7038
7038
7038
7038
7038
77B8
3FF0
3CF0
1FE0
07E0
0070
003C
071C
0700
0700
0000
0000
ENDCHAR
STARTCHAR LtCapRLdot
ENCODING 806
SWIDTH 448 0
DWIDTH 14 0
BBX 14 30 0 -7
BITMAP
0000
0000
0000
0000
0000
0000
3FC0
3FF0
3870
3838
3838
3838
3870
3FF0
3FC0
3980
39C0
38E0
38E0
3870
3838
3838
381C
0000
0000
0380
0380
0380
0000
0000
ENDCHAR
STARTCHAR LtCapSLdot
ENCODING 807
SWIDTH 448 0
DWIDTH 14 0
BBX 14 30 0 -7
BITMAP
0000
0000
0000
0000
0000
0000
0FF0
1FF8
3C38
3818
3800
3C00
1E00
0F00
07C0
01E0
00F0
0078
0038
3038
3878
3FF0
1FE0
0000
0000
0380
0380
0380
0000
0000
ENDCHAR
STARTCHAR LtCapTLdot
ENCODING 808
SWIDTH 448 0
DWIDTH 14 0
BBX 14 30 0 -7
BITMAP
0000
0000
0000
0000
0000
0000
7FFC
7FFC
0380
0380
0380
0380
0380
0380
0380
0380
0380
0380
0380
0380
0380
0380
0380
0000
0000
0380
0380
0380
0000
0000
ENDCHAR
STARTCHAR LtCapULdot
ENCODING 809
SWIDTH 448 0
DWIDTH 14 0
BBX 14 30 0 -7
BITMAP
0000
0000
0000
0000
0000
0000
3838
3838
3838
3838
3838
3838
3838
3838
3838
3838
3838
3838
3838
3838
1C70
1FF0
07C0
0000
0000
0380
0380
0380
0000
0000
ENDCHAR
STARTCHAR LtCapVLdot
ENCODING 810
SWIDTH 448 0
DWIDTH 14 0
BBX 14 30 0 -7
BITMAP
0000
0000
0000
0000
0000
0000
701C
701C
701C
3838
3838
3838
1C70
1C70
1C70
0C60
0EE0
0EE0
06C0
07C0
07C0
0380
0380
0000
0000
0380
0380
0380
0000
0000
ENDCHAR
STARTCHAR LtCapWLdot
ENCODING 811
SWIDTH 448 0
DWIDTH 14 0
BBX 14 30 0 -7
BITMAP
0000
0000
0000
0000
0000
0000
701C
701C
701C
701C
701C
711C
3938
3BB8
3BB8
3BB8
3BB8
1EF0
1EF0
1EF0
1C70
1C70
1C70
0000
0000
0380
0380
0380
0000
0000
ENDCHAR
STARTCHAR LtCapYLdot
ENCODING 812
SWIDTH 448 0
DWIDTH 14 0
BBX 14 30 0 -7
BITMAP
0000
0000
0000
0000
0000
0000
701C
3838
3838
1C70
1C70
0EE0
0EE0
07C0
07C0
0380
0380
0380
0380
0380
0380
0380
0380
0000
0000
0380
0380
0380
0000
0000
ENDCHAR
STARTCHAR LtCapZLdot
ENCODING 813
SWIDTH 448 0
DWIDTH 14 0
BBX 14 30 0 -7
BITMAP
0000
0000
0000
0000
0000
0000
3FF8
3FF8
0078
0070
00F0
00E0
01C0
03C0
0380
0780
0700
0E00
1E00
1C00
3C00
3FF8
3FF8
0000
0000
0380
0380
0380
0000
0000
ENDCHAR
STARTCHAR LtSmlALdot
ENCODING 814
SWIDTH 448 0
DWIDTH 14 0
BBX 14 30 0 -7
BITMAP
0000
0000
0000
0000
0000
0000
0000
0000
0000
0000
0FE0
1FF0
1C38
0038
0038
07F8
1FF8
3C38
3838
3838
3878
1FF8
0FB8
0000
0000
0380
0380
0380
0000
0000
ENDCHAR
STARTCHAR LtSmlBLdot
ENCODING 815
SWIDTH 448 0
DWIDTH 14 0
BBX 14 30 0 -7
BITMAP
0000
0000
0000
0000
0000
3800
3800
3800
3800
3800
3BC0
3FF0
3C70
3838
3838
3838
3838
3838
3838
3838
3C70
3FF0
3BC0
0000
0000
0380
0380
0380
0000
0000
ENDCHAR
STARTCHAR LtSmlCLdot
ENCODING 816
SWIDTH 448 0
DWIDTH 14 0
BBX 14 30 0 -7
BITMAP
0000
0000
0000
0000
0000
0000
0000
0000
0000
0000
07F0
0FF8
1E38
1C18
3800
3800
3800
3800
3800
1C18
1E38
0FF8
07F0
0000
0000
0380
0380
0380
0000
0000
ENDCHAR
STARTCHAR LtSmlDLdot
ENCODING 817
SWIDTH 448 0
DWIDTH 14 0
BBX 14 30 0 -7
BITMAP
0000
0000
0000
0000
0000
0038
0038
0038
0038
0038
07B8
1FF8
1C78
3838
3838
3838
3838
3838
3838
3838
1C78
1FF8
07B8
0000
0000
0380
0380
0380
0000
0000
ENDCHAR
STARTCHAR LtSmlELdot
ENCODING 818
SWIDTH 448 0
DWIDTH 14 0
BBX 14 30 0 -7
BITMAP
0000
0000
0000
0000
0000
0000
0000
0000
0000
0000
07C0
1FF0
1C70
3838
3838
3FF8
3FF8
3800
3800
3800
1C38
1FF0
07E0
0000
0000
0380
0380
0380
0000
0000
ENDCHAR
STARTCHAR LtSmlHLdot
ENCODING 819
SWIDTH 448 0
DWIDTH 14 0
BBX 14 30 0 -7
BITMAP
0000
0000
0000
0000
0000
3800
3800
3800
3800
3800
39E0
3BF0
3E78
3C38
3838
3838
3838
3838
3838
3838
3838
3838
3838
0000
0000
0380
0380
0380
0000
0000
ENDCHAR
STARTCHAR LtSmlILdot
ENCODING 820
SWIDTH 448 0
DWIDTH 14 0
BBX 14 30 0 -7
BITMAP
0000
0000
0000
0000
0000
0380
0380
0380
0000
0000
1F80
1F80
0380
0380
0380
0380
0380
0380
0380
0380
0380
3FF8
3FF8
0000
0000
0380
0380
0380
0000
0000
ENDCHAR
STARTCHAR LtSmlKLdot
ENCODING 821
SWIDTH 448 0
DWIDTH 14 0
BBX 14 30 0 -7
BITMAP
0000
0000
0000
0000
0000
3800
3800
3800
3800
3800
3838
3878
38F0
39E0
3BC0
3F80
3FC0
3DC0
38E0
38E0
3870
3878
3838
0000
0000
0380
0380
0380
0000
0000
ENDCHAR
STARTCHAR LtSmlLLdot
ENCODING 822
SWIDTH 448 0
DWIDTH 14 0
BBX 14 30 0 -7
BITMAP
0000
0000
0000
0000
0000
1F80
1F80
0380
0380
0380
0380
0380
0380
0380
0380
0380
0380
0380
0380
0380
0380
3FF8
3FF8
0000
0000
0380
0380
0380
0000
0000
ENDCHAR
STARTCHAR LtSmlMLdot
ENCODING 823
SWIDTH 448 0
DWIDTH 14 0
BBX 14 30 0 -7
BITMAP
0000
0000
0000
0000
0000
0000
0000
0000
0000
0000
6630
6F78
7FFC
7BDC
739C
739C
739C
739C
739C
739C
739C
739C
739C
0000
0000
0380
0380
0380
0000
0000
ENDCHAR
ENDFONT
